<svg width="200" height="180" viewBox="20 580 200 180" fill="none" xmlns="http://www.w3.org/2000/svg">
<g opacity="0.4">
<path d="M97.0298 672.865L99.5691 674.297C100.419 674.769 101.306 675.172 102.172 675.614L103.479 676.265C103.919 676.473 104.371 676.656 104.816 676.853L107.497 678.012C109.327 678.674 111.129 679.428 113.001 679.965L114.393 680.404C114.857 680.554 115.321 680.7 115.795 680.81L118.621 681.533C119.09 681.666 119.567 681.751 120.043 681.844L121.472 682.125L122.901 682.407C123.377 682.499 123.859 682.543 124.338 682.614C125.298 682.74 126.257 682.883 127.218 682.997L130.108 683.203C131.045 683.281 131.986 683.307 132.926 683.281C133.857 683.266 134.789 683.203 135.72 683.111C137.583 682.915 139.429 682.575 141.241 682.094C145.052 681.121 148.625 679.373 151.737 676.959C153.215 675.785 154.51 674.395 155.577 672.835C156.599 671.313 157.333 669.616 157.743 667.827C157.806 667.582 157.857 667.333 157.895 667.082L158.015 666.329L158.028 666.247C158.112 665.726 158.341 665.24 158.689 664.845C159.037 664.451 159.49 664.164 159.995 664.019C160.499 663.873 161.035 663.875 161.538 664.025C162.042 664.174 162.493 664.464 162.838 664.862C165.196 667.577 168.696 669.217 172.419 669.651C176.196 670.083 180.017 669.418 183.429 667.735C185.096 666.914 186.623 665.831 187.95 664.528C188.606 663.879 189.197 663.169 189.718 662.407L190.135 661.843C190.264 661.647 190.374 661.439 190.495 661.238C190.725 660.828 190.991 660.44 191.196 660.016C192.046 658.315 192.673 656.511 193.063 654.649C193.437 652.755 193.592 650.823 193.526 648.893C193.379 644.994 192.367 641.178 190.564 637.722C189.65 636.018 188.564 634.414 187.322 632.934C186.035 631.452 184.615 630.093 183.079 628.874C176.854 624.003 168.764 621.442 160.721 621.23L160.705 621.23C160.085 621.213 159.485 621.004 158.987 620.632C158.489 620.259 158.118 619.741 157.926 619.149C157.733 618.556 157.727 617.918 157.909 617.322C158.092 616.726 158.453 616.202 158.944 615.82C160.506 614.575 161.578 612.814 161.968 610.85C162.196 609.798 162.286 608.721 162.235 607.646C162.178 606.537 161.995 605.438 161.692 604.37C161.103 602.235 159.999 600.279 158.478 598.676L158.197 598.39L157.876 598.107L157.238 597.537L156.554 597.017C156.331 596.836 156.097 596.669 155.853 596.517L155.129 596.044C154.88 595.895 154.621 595.761 154.369 595.617C153.858 595.332 153.332 595.076 152.792 594.85C149.472 593.445 145.727 592.839 141.936 592.715C140.027 592.657 138.116 592.72 136.214 592.904C135.263 592.936 134.32 593.056 133.374 593.149L131.964 593.352C131.728 593.381 131.495 593.425 131.265 593.482C131.029 593.507 130.794 593.544 130.562 593.594C130.095 593.675 129.628 593.76 129.171 593.878C128.712 593.989 128.247 594.086 127.791 594.207C126.888 594.463 125.999 594.766 125.127 595.114C123.402 595.768 121.754 596.61 120.211 597.624C120.022 597.749 119.822 597.863 119.641 597.996L119.105 598.405C118.739 598.664 118.389 598.944 118.056 599.243L117.07 600.138L116.18 601.11C115.076 602.447 114.184 603.948 113.536 605.559L113.526 605.583C113.244 606.283 112.698 606.841 112.006 607.136C111.314 607.431 110.535 607.437 109.838 607.155C109.554 607.038 109.291 606.877 109.057 606.678C107.37 605.227 105.65 603.824 103.89 602.487C102.124 601.161 100.328 599.888 98.4893 598.698C96.643 597.524 94.765 596.415 92.841 595.419C90.9247 594.437 88.956 593.562 86.9438 592.797C84.9478 592.061 82.906 591.457 80.8315 590.989C78.7872 590.546 76.7103 590.273 74.6216 590.17C72.5425 590.096 70.4608 590.2 68.3992 590.481C66.3532 590.774 64.3384 591.256 62.3803 591.92C61.8845 592.061 61.4238 592.287 60.9434 592.464L60.2294 592.746C59.9931 592.843 59.7693 592.964 59.5385 593.071C59.0831 593.298 58.6145 593.501 58.1687 593.741L56.8539 594.498C55.1435 595.534 53.5603 596.768 52.1369 598.175C51.7751 598.515 51.4751 598.909 51.1385 599.27L50.6461 599.824L50.2105 600.42C49.9344 600.822 49.5848 601.197 49.3348 601.598L48.9448 602.193L48.5879 602.813C47.6478 604.52 46.9792 606.364 46.6065 608.278C46.3082 609.237 46.0913 610.22 45.9581 611.216C45.8052 612.221 45.7878 613.242 45.9065 614.251C46.0719 616.268 46.5513 618.246 47.3272 620.114C48.8923 623.802 51.6899 626.799 55.1501 628.226C55.6831 628.446 56.1371 628.823 56.452 629.308C56.7668 629.793 56.9278 630.362 56.9135 630.941C56.8992 631.519 56.7103 632.08 56.3719 632.548C56.0334 633.017 55.5614 633.371 55.0181 633.564L54.856 633.621C53.2219 634.196 51.6515 634.94 50.1696 635.84C49.8065 636.077 49.4245 636.283 49.0758 636.541L48.0192 637.297L47.0147 638.118C46.6746 638.385 46.3775 638.701 46.0554 638.987C43.2218 641.484 41.0425 644.641 39.7089 648.182L39.2804 649.512L38.9609 650.87C38.873 651.322 38.8273 651.774 38.7529 652.228C38.6796 652.681 38.6945 653.146 38.6562 653.606C38.6066 655.475 38.8403 657.341 39.3494 659.14C39.5842 659.971 39.862 660.79 40.1816 661.592C40.3519 661.968 40.5237 662.333 40.6814 662.698C40.8291 663.069 41.046 663.388 41.2149 663.728C41.5474 664.414 41.9734 664.991 42.326 665.589C42.5184 665.874 42.7271 666.134 42.9171 666.403C43.097 666.668 43.2912 666.923 43.4988 667.167C44.7979 668.741 46.2701 670.163 47.8874 671.405C49.7934 672.732 49.7859 673.361 47.54 673.123C46.856 673.005 46.183 672.831 45.5277 672.602C45.1425 672.452 44.7385 672.262 44.2991 672.059C44.0833 671.953 43.8466 671.859 43.6277 671.726L42.9486 671.311C40.6657 669.863 38.721 667.936 37.2473 665.664C34.9159 662.149 33.6057 658.052 33.4639 653.832L33.4652 652.201C33.5069 651.657 33.5611 651.112 33.6133 650.567C33.634 650.296 33.6723 650.027 33.728 649.761L33.8753 648.964C33.9278 648.7 33.9692 648.432 34.0325 648.171L34.2435 647.392C34.7881 645.337 35.611 643.366 36.6892 641.536C37.5998 639.966 38.6648 638.491 39.8683 637.134C40.4425 636.435 41.1063 635.827 41.7329 635.181C42.0623 634.876 42.4062 634.587 42.7482 634.297C43.0838 633.998 43.4408 633.728 43.8016 633.463C46.6498 631.301 49.8567 629.663 53.2738 628.624L53.0343 633.02C49.4485 631.306 46.4685 628.534 44.4915 625.075C44.0065 624.241 43.5709 623.379 43.1872 622.493C42.9878 622.055 42.8238 621.605 42.6422 621.161C42.4883 620.708 42.3226 620.259 42.1844 619.802C41.6319 617.978 41.2657 616.102 41.0917 614.204C41.0047 613.256 40.9905 612.307 40.9223 611.353C40.8878 610.393 40.9025 609.432 40.9663 608.474C41.0132 607.507 41.1596 606.546 41.4033 605.609C41.6264 604.661 41.9038 603.727 42.2341 602.812C42.8979 600.96 43.8026 599.205 44.9245 597.591C45.4668 596.792 46.0609 596.029 46.7029 595.308L47.663 594.227C48.0024 593.886 48.356 593.561 48.703 593.229C51.4882 590.616 54.735 588.548 58.2762 587.133C61.7538 585.726 65.4153 584.83 69.1475 584.473C69.6101 584.411 70.0754 584.385 70.541 584.365L71.9373 584.294C72.8685 584.271 73.8013 584.298 74.7331 584.308C75.6629 584.382 76.5963 584.416 77.5234 584.529L78.913 584.714L79.607 584.809L80.2878 584.939C83.9084 585.612 87.448 586.668 90.8475 588.089C94.927 589.813 98.8305 591.93 102.503 594.411C106.093 596.837 109.514 599.507 112.742 602.401L108.285 603.515C108.554 602.935 108.82 602.362 109.083 601.796C109.212 601.514 109.361 601.241 109.53 600.981L110.012 600.192C112.01 597.113 114.675 594.527 117.809 592.628L118.373 592.268L118.955 591.949L120.12 591.313C120.911 590.93 121.705 590.551 122.511 590.213C123.325 589.905 124.127 589.548 124.956 589.299C125.367 589.161 125.78 589.032 126.188 588.882C126.598 588.745 127.015 588.632 127.428 588.507C129.081 588.017 130.762 587.628 132.463 587.343C133.311 587.21 134.163 587.09 135.016 586.987C135.442 586.923 135.873 586.914 136.301 586.88C136.73 586.847 137.157 586.829 137.583 586.82C139.295 586.756 141.009 586.782 142.718 586.898C144.448 587.002 146.169 587.22 147.871 587.551C149.602 587.877 151.304 588.342 152.96 588.943C154.646 589.563 156.273 590.331 157.823 591.239C159.39 592.187 160.847 593.308 162.167 594.579C163.509 595.918 164.64 597.455 165.52 599.136C167.298 602.477 168.083 606.262 167.781 610.039C167.615 611.996 167.086 613.905 166.224 615.668C165.324 617.492 164.029 619.09 162.433 620.346L160.844 615.507C164.708 615.597 168.546 616.159 172.275 617.181C177.972 618.735 183.271 621.495 187.818 625.277C190.111 627.212 192.138 629.442 193.849 631.91C196.405 635.685 198.107 639.977 198.836 644.483C199.564 648.99 199.302 653.602 198.067 657.995C197.188 660.966 195.773 663.749 193.891 666.204C192.952 667.465 191.867 668.61 190.66 669.614C189.467 670.616 188.175 671.491 186.804 672.226C182.355 674.612 177.296 675.604 172.28 675.075C171.024 674.946 169.782 674.707 168.567 674.363C167.337 674.027 166.141 673.574 164.996 673.01C163.837 672.447 162.736 671.77 161.71 670.988C160.683 670.195 159.736 669.303 158.882 668.326L163.221 667.006C162.924 669.153 162.293 671.241 161.35 673.191C160.408 675.111 159.19 676.881 157.736 678.445C156.321 679.975 154.729 681.331 152.995 682.483C151.301 683.621 149.504 684.598 147.629 685.401C143.923 686.977 140.002 687.981 135.997 688.38C134.999 688.473 133.999 688.545 132.995 688.564C132.493 688.577 131.991 688.583 131.488 688.569C130.98 688.571 130.492 688.538 130.005 688.504L127.077 688.31C126.587 688.291 126.106 688.211 125.621 688.152L124.17 687.965C122.226 687.764 120.326 687.329 118.412 686.98C117.459 686.785 116.522 686.522 115.578 686.296C114.635 686.059 113.688 685.84 112.766 685.534L109.984 684.677C109.059 684.384 108.158 684.021 107.245 683.696C105.409 683.069 103.645 682.255 101.859 681.505C98.3227 679.909 94.902 678.067 91.6217 675.992C89.9532 675 88.3966 673.827 86.8043 672.714C86.0192 672.141 85.2746 671.51 84.5082 670.91L83.3671 669.999C82.9915 669.689 82.6384 669.35 82.2732 669.027C78.5612 665.817 75.3212 662.094 72.6497 657.97L75.8216 656.94C75.8373 658.398 75.6518 659.852 75.2703 661.259C74.8892 662.644 74.3018 663.963 73.5281 665.171C72.0178 667.433 69.9863 669.296 67.6061 670.601C63.3023 672.951 58.37 673.877 53.5116 673.248C52.4054 673.125 51.3318 672.795 50.3458 672.277C49.7383 671.897 49.5489 671.59 49.712 671.389C50.0555 670.961 51.6937 671.091 54.8243 670.841C58.923 670.543 62.8573 669.101 66.1834 666.678C67.7038 665.546 68.9443 664.077 69.8087 662.386C70.2045 661.582 70.4916 660.729 70.6623 659.849C70.8161 658.949 70.8707 658.036 70.8252 657.125C70.7952 656.431 70.9862 655.745 71.3704 655.167C71.7547 654.589 72.3122 654.148 72.9622 653.91C73.6122 653.672 74.3209 653.647 74.9856 653.841C75.6503 654.034 76.2365 654.435 76.6591 654.985L76.8077 655.181L78.316 657.171C80.8388 660.335 83.6644 663.242 86.7523 665.852C89.9385 668.487 93.3383 670.85 96.9162 672.916C96.953 672.897 96.9875 672.881 97.0298 672.865Z" fill="white"/>
<path d="M82.6095 695.45C83.698 695.696 84.7693 696.014 85.8168 696.399C88.8886 697.563 91.7146 699.297 94.147 701.511C94.9985 702.282 95.8028 703.103 96.5555 703.971C97.4145 704.965 98.1317 706.075 98.6867 707.268C99.0653 708.06 99.3546 708.893 99.549 709.75C99.7609 710.633 99.8596 711.539 99.8429 712.447C99.836 712.917 99.7992 713.386 99.7327 713.851C99.6543 714.328 99.5422 714.798 99.3973 715.259C99.2512 715.728 99.0679 716.185 98.8494 716.625C98.6238 717.063 98.367 717.485 98.081 717.886C96.9756 719.357 95.5249 720.532 93.8583 721.304C92.4078 721.987 90.8787 722.488 89.3057 722.793C84.8559 723.729 80.2554 723.671 75.8308 722.62C74.3573 722.26 72.9136 721.787 71.5123 721.204C69.9322 720.568 68.4499 719.71 67.11 718.655C66.3981 718.039 65.7655 717.335 65.2268 716.561C64.6319 715.754 64.1528 714.867 63.8036 713.925L66.8309 715.709C65.3223 715.944 63.7931 716.016 62.2693 715.923C60.756 715.822 59.2571 715.564 57.7967 715.153C56.3384 714.744 54.9279 714.18 53.589 713.47C52.9173 713.117 52.2663 712.727 51.6391 712.3L51.1469 711.963C50.9114 711.79 50.6892 711.599 50.4821 711.392C50.1194 711.027 49.7976 710.623 49.5226 710.188C49.0413 709.411 48.669 708.572 48.4163 707.693C48.1776 706.818 48.0661 705.912 48.0852 705.005C48.1058 704.112 48.2558 703.227 48.5307 702.378C48.794 701.539 49.1743 700.742 49.6605 700.011C50.629 698.562 51.9533 697.389 53.5053 696.604C53.8586 696.423 54.221 696.261 54.5912 696.118C54.9408 695.979 55.3001 695.855 55.66 695.733C56.3965 695.493 57.1501 695.31 57.9142 695.185C59.1274 694.972 60.368 694.968 61.5828 695.172C62.8068 695.376 63.9831 695.804 65.0531 696.435C65.8842 696.912 66.5882 697.583 67.1051 698.392C67.2857 698.682 67.4277 698.994 67.5277 699.32C67.5048 699.571 67.4998 699.823 67.5127 700.075C67.5661 700.907 67.7231 701.512 67.0063 701.49C66.7733 701.47 66.5456 701.409 66.3336 701.31C66.1854 701.245 66.0416 701.171 65.903 701.087C65.8499 701.052 65.7912 701.027 65.7295 701.012L65.5756 700.956C65.3551 700.871 65.1405 700.772 64.9334 700.657C64.6871 700.555 64.4476 700.436 64.2164 700.302C63.5796 699.986 62.9209 699.716 62.2453 699.495C61.5572 699.289 60.8493 699.158 60.1334 699.102C59.2704 699.049 58.4044 699.127 57.5648 699.335C57.1261 699.44 56.6931 699.568 56.2674 699.718C56.0516 699.79 55.8394 699.882 55.6247 699.964C55.4151 700.048 55.2644 700.137 55.0789 700.219C54.3893 700.585 53.7914 701.104 53.3302 701.736C52.869 702.367 52.5564 703.096 52.416 703.866C52.2782 704.604 52.3137 705.364 52.5197 706.085C52.6202 706.436 52.7627 706.773 52.944 707.089C53.1012 707.388 53.3014 707.663 53.5381 707.903C53.6185 707.983 53.7092 708.052 53.8078 708.107C53.8315 708.118 53.8544 708.13 53.8762 708.144L54.0235 708.229L54.3175 708.399C54.5103 708.517 54.714 708.617 54.9156 708.72C55.116 708.824 55.3177 708.925 55.5266 709.013C56.347 709.388 57.2 709.687 58.0748 709.904C59.0434 710.139 60.0293 710.293 61.0229 710.366C62.0104 710.444 62.9807 710.472 63.9244 710.522C64.6094 710.555 65.2959 710.534 65.9777 710.461L66.2108 710.44C66.7634 710.391 67.3164 710.529 67.7821 710.832C68.2477 711.135 68.5992 711.585 68.7807 712.112L68.8966 712.449C68.9505 712.558 68.9878 712.673 69.049 712.781C69.1613 713.013 69.31 713.226 69.4895 713.41C69.5792 713.512 69.6748 713.608 69.7757 713.699C69.8761 713.797 69.9818 713.889 70.0923 713.976C70.2026 714.07 70.3184 714.157 70.439 714.238C70.5452 714.336 70.6731 714.422 70.7914 714.514C71.8794 715.272 73.0752 715.862 74.3385 716.262C77.0284 717.173 79.8315 717.703 82.667 717.837C83.8569 717.901 85.05 717.87 86.2351 717.745C87.4069 717.624 88.5673 717.41 89.7052 717.104C90.7199 716.84 91.6883 716.421 92.5764 715.862C93.2987 715.415 93.8812 714.774 94.2575 714.011C94.8956 712.762 94.7846 710.9 94.0446 709.276C93.9594 709.07 93.8441 708.878 93.7463 708.677C93.6242 708.492 93.5257 708.287 93.3909 708.112C93.2687 707.928 93.1358 707.751 92.9927 707.583C92.8699 707.424 92.6784 707.213 92.5002 707.025C91.7728 706.248 90.9934 705.522 90.1675 704.852C86.8773 702.14 82.8228 700.341 78.5481 700.169C75.146 700.045 71.8888 700.365 68.5248 700.485C68.2944 700.522 68.0583 700.496 67.8415 700.409C67.7247 700.372 67.7208 700.222 67.7675 700.066C67.7794 700.025 67.7946 699.981 67.8123 699.935L67.8407 699.864L67.856 699.828L67.864 699.809L67.868 699.8L67.87 699.796L67.8711 699.793L67.8716 699.792L67.8769 699.761C67.9227 699.643 67.9747 699.507 68.0214 699.356C68.0707 699.2 68.1079 699.04 68.1325 698.878C68.1611 698.725 68.1537 698.526 68.1765 698.456C68.1405 698.411 68.321 698.302 68.448 698.206L68.8502 697.914C69.1224 697.723 69.39 697.512 69.6774 697.333C69.9587 697.145 70.256 696.982 70.5659 696.846C70.8675 696.693 71.1871 696.576 71.5028 696.444C72.1323 696.175 72.7938 695.969 73.4591 695.76C74.1351 695.572 74.8208 695.421 75.513 695.308C76.6752 695.118 77.8544 695.055 79.0301 695.119C80.2175 695.19 81.3998 695.33 82.571 695.538L82.6095 695.45Z" fill="white"/>
<path d="M38.7977 733.779C40.694 733.683 42.5938 733.878 44.4313 734.358C45.3787 734.598 46.2948 734.907 47.2354 735.183C48.6012 735.561 49.8925 736.171 51.0535 736.986C51.7378 737.477 52.3397 738.075 52.8365 738.757C53.4109 739.552 53.7928 740.471 53.9519 741.44C54.1102 742.438 54.0221 743.46 53.6954 744.416C53.4017 745.272 52.9537 746.067 52.3737 746.761C51.3664 747.943 50.0987 748.873 48.671 749.477C47.8804 749.823 47.0523 750.075 46.2035 750.228C45.7905 750.311 45.3791 750.367 44.9695 750.413C44.5157 750.467 44.0586 750.49 43.6017 750.48C43.1534 750.47 42.7012 750.436 42.2892 750.39C41.9159 750.345 41.5428 750.294 41.1702 750.235C40.4241 750.118 39.6812 749.959 38.9359 749.783C37.3956 749.435 35.9035 748.899 34.4933 748.186C34.1223 748 33.7608 747.796 33.4103 747.573C33.2327 747.459 33.054 747.351 32.881 747.222L32.6203 747.035L32.4904 746.941L32.325 746.804C31.4223 746.069 30.7609 745.079 30.4268 743.962C30.2411 743.309 30.1915 742.625 30.2813 741.952C30.371 741.28 30.5982 740.633 30.9485 740.053C31.206 739.586 31.6271 739.231 32.1301 739.058C32.3355 738.995 32.5503 738.969 32.7648 738.98C32.9697 738.997 33.1708 739.046 33.3612 739.124C33.5989 739.236 33.812 739.394 33.9883 739.589C34.1645 739.784 34.3003 740.013 34.3878 740.261C34.55 740.611 34.6438 740.989 34.664 741.374C34.6498 741.697 34.6167 742.019 34.5649 742.339C34.5441 742.523 34.5622 742.709 34.618 742.886C34.6737 743.063 34.7659 743.226 34.8885 743.364C34.9206 743.399 34.9603 743.429 34.9939 743.464C35.012 743.484 35.0312 743.502 35.0514 743.52L35.1531 743.594C35.2874 743.698 35.4269 743.795 35.5709 743.885C35.8645 744.075 36.1721 744.242 36.491 744.384C37.86 744.97 39.3367 745.259 40.8246 745.232C41.2468 745.227 41.6793 745.192 42.1052 745.175C42.3172 745.171 42.5298 745.163 42.7372 745.177C42.904 745.185 43.0701 745.203 43.2346 745.232C43.4791 745.277 43.7276 745.295 43.976 745.287C44.0834 745.286 44.2433 745.262 44.3852 745.244C44.5297 745.228 44.6732 745.203 44.815 745.171C45.3637 745.052 45.8973 744.871 46.4056 744.632C47.2355 744.257 47.9632 743.686 48.5274 742.969C48.6564 742.815 48.7457 742.631 48.7874 742.434C48.8206 742.285 48.8102 742.129 48.7574 741.986C48.5225 741.488 48.1488 741.07 47.6816 740.782C46.3657 739.926 44.886 739.357 43.3379 739.111C42.5239 738.961 41.6985 738.881 40.8709 738.872C40.0553 738.874 39.2417 738.953 38.4407 739.107C38.1265 739.177 37.804 739.212 37.4891 739.264C37.3293 739.285 37.1654 739.296 36.9985 739.303C36.8307 739.321 36.662 739.327 36.4935 739.322C36.1388 739.307 35.7862 739.309 35.4044 739.286L34.1981 739.196C34.0035 739.189 33.8135 739.135 33.6445 739.038C33.4754 738.941 33.3325 738.804 33.228 738.639C33.1236 738.474 33.0607 738.286 33.0448 738.091C33.0289 737.896 33.0605 737.7 33.1369 737.52L33.3261 737.035C33.4022 736.894 33.4945 736.763 33.6012 736.644C33.7995 736.396 34.0101 736.15 34.2324 735.908C34.4639 735.685 34.7059 735.467 34.9583 735.252C35.2152 735.055 35.4885 734.881 35.7754 734.732C36.7251 734.265 37.7512 733.974 38.8039 733.874L38.7977 733.779Z" fill="white"/>
</g>
</svg>
