<svg width="200" height="170" viewBox="1225 305 200 170" fill="none" xmlns="http://www.w3.org/2000/svg">
<g opacity="0.5">
<path d="M1334.14 437.49L1335.2 435.757L1335.04 436.07C1335.65 434.67 1336.55 433.413 1337.68 432.38C1338.88 431.288 1340.34 430.523 1341.93 430.158C1342.32 430.069 1342.71 430 1343.1 429.953L1344.04 429.876L1345.5 429.742C1346.49 429.633 1347.51 429.531 1348.52 429.386C1350.53 429.123 1352.54 428.782 1354.54 428.38C1356.54 427.984 1358.52 427.52 1360.49 426.986C1368.38 424.89 1375.95 421.753 1383 417.657C1390.74 413.117 1397.83 407.266 1402.99 400.103C1405.65 396.456 1407.75 392.444 1409.24 388.195C1410.7 383.978 1411.45 379.55 1411.46 375.092C1411.45 370.614 1410.76 366.163 1409.41 361.889C1408.73 359.732 1407.93 357.616 1407.01 355.552C1406.06 353.487 1405.01 351.466 1403.86 349.485L1404.07 349.794L1402.34 347.683L1401.48 346.627C1401.18 346.285 1400.86 345.958 1400.55 345.623L1398.7 343.622C1398.05 342.978 1397.38 342.361 1396.72 341.729L1395.74 340.785C1395.41 340.471 1395.04 340.191 1394.7 339.892L1392.61 338.124C1391.9 337.553 1391.16 337.02 1390.43 336.466L1389.34 335.641C1388.97 335.363 1388.58 335.126 1388.2 334.867L1385.92 333.339C1385.15 332.846 1384.35 332.396 1383.56 331.921C1382.01 330.945 1380.35 330.148 1378.73 329.274C1375.43 327.631 1372.03 326.185 1368.56 324.943C1366.83 324.283 1365.05 323.756 1363.29 323.196C1362.41 322.901 1361.51 322.692 1360.61 322.439C1359.72 322.204 1358.83 321.936 1357.92 321.727C1356.11 321.324 1354.31 320.854 1352.48 320.533L1349.73 320.006L1346.97 319.571C1339.58 318.459 1332.11 317.915 1324.63 317.945C1317.11 317.937 1309.6 318.431 1302.15 319.426C1301.22 319.534 1300.29 319.673 1299.36 319.818L1296.57 320.242L1293.8 320.736L1292.41 320.982L1291.03 321.262L1288.26 321.824L1285.52 322.453C1283.68 322.851 1281.88 323.364 1280.05 323.818L1277.33 324.594L1275.97 324.983L1274.66 325.378L1274 325.574L1273.36 325.795L1272.09 326.239C1271.25 326.567 1270.41 326.886 1269.59 327.248C1266.28 328.683 1263.14 330.468 1260.22 332.57C1257.29 334.676 1254.58 337.076 1252.15 339.732C1249.69 342.378 1247.52 345.276 1245.68 348.375C1244.76 349.921 1243.91 351.513 1243.15 353.144C1242.8 353.97 1242.4 354.781 1242.09 355.624L1241.59 356.879L1241.15 358.154C1239.98 361.559 1239.2 365.08 1238.81 368.656C1238.69 369.546 1238.67 370.445 1238.59 371.34C1238.57 372.236 1238.51 373.136 1238.53 374.032C1238.54 374.928 1238.54 375.822 1238.63 376.731C1238.7 377.635 1238.74 378.543 1238.84 379.445C1239.23 383.055 1239.96 386.62 1241.02 390.095L1241.43 391.392C1241.56 391.826 1241.7 392.258 1241.87 392.678L1242.85 395.219L1243.97 397.703C1244.37 398.522 1244.8 399.325 1245.21 400.135C1248.69 406.59 1253.37 412.341 1258.98 417.091C1261.8 419.486 1264.81 421.652 1267.98 423.569C1275.71 428.209 1284.19 431.503 1293.04 433.308L1294.59 433.617C1295.09 433.723 1295.58 433.819 1296.07 433.891L1298.84 434.356C1300.61 434.581 1302.21 434.844 1303.66 434.976L1305.72 435.214L1307.55 435.379L1309.17 435.548L1310.59 435.668C1313.14 435.915 1313.19 436.252 1310.98 436.66C1310.43 436.758 1309.74 436.874 1308.91 436.968C1308.09 437.042 1307.13 437.113 1306.04 437.179C1304.95 437.242 1303.73 437.224 1302.39 437.233C1301.72 437.238 1301.02 437.183 1300.29 437.155C1299.56 437.11 1298.8 437.098 1298.01 437.015C1289.67 436.312 1281.51 434.25 1273.84 430.912C1265.02 427.117 1257.05 421.613 1250.41 414.724C1247.1 411.254 1244.19 407.419 1241.76 403.296C1239.32 399.158 1237.4 394.739 1236.05 390.138C1234.7 385.54 1233.87 380.805 1233.59 376.023C1233.46 373.614 1233.49 371.199 1233.66 368.792C1233.86 366.387 1234.21 363.996 1234.71 361.633C1237.4 349.442 1243.96 338.426 1253.42 330.196C1255.5 328.405 1257.71 326.766 1260.03 325.292C1262.34 323.82 1264.77 322.531 1267.28 321.436C1269.74 320.386 1272.27 319.518 1274.85 318.839C1278.73 317.747 1282.71 316.796 1286.69 315.936L1289.68 315.342L1291.18 315.045L1292.68 314.785L1295.69 314.264L1298.71 313.812C1299.71 313.651 1300.72 313.521 1301.73 313.399L1304.76 313.021C1306.79 312.83 1308.81 312.576 1310.85 312.446L1313.9 312.214L1316.95 312.058L1318.48 311.981L1320.01 311.943L1323.06 311.866L1326.13 311.872L1327.66 311.878L1329.19 311.925L1332.25 312.023L1335.31 312.207C1337.35 312.304 1339.39 312.545 1341.42 312.719C1342.44 312.829 1343.45 312.968 1344.47 313.092C1345.49 313.217 1346.5 313.34 1347.51 313.515L1350.54 314C1351.55 314.174 1352.56 314.388 1353.56 314.581C1355.58 314.943 1357.57 315.466 1359.57 315.925C1360.56 316.175 1361.55 316.467 1362.54 316.737C1363.52 317.009 1364.51 317.282 1365.49 317.613L1368.42 318.562C1369.39 318.903 1370.35 319.274 1371.31 319.629C1378.57 322.336 1385.46 325.938 1391.81 330.352C1392.63 330.876 1393.38 331.499 1394.16 332.078L1395.31 332.96C1395.7 333.255 1396.09 333.541 1396.45 333.866C1397.92 335.14 1399.44 336.352 1400.81 337.739C1401.5 338.419 1402.22 339.075 1402.9 339.776L1404.87 341.924C1405.2 342.285 1405.54 342.633 1405.85 343.005L1406.77 344.138L1408.6 346.404C1408.66 346.475 1408.71 346.55 1408.76 346.628L1408.79 346.681C1411.09 350.627 1412.97 354.797 1414.41 359.126C1415.86 363.507 1416.7 368.063 1416.92 372.669C1417.13 377.476 1416.57 382.285 1415.27 386.92C1413.97 391.527 1412 395.92 1409.42 399.962C1406.87 403.955 1403.85 407.639 1400.44 410.942C1397.05 414.212 1393.37 417.163 1389.44 419.758C1381.61 424.889 1373.05 428.837 1364.05 431.473C1359.57 432.804 1355.01 433.824 1350.39 434.524C1349.23 434.691 1348.07 434.852 1346.91 434.98C1346.34 435.054 1345.74 435.107 1345.14 435.164L1344.25 435.25C1343.99 435.276 1343.77 435.277 1343.58 435.315C1342.81 435.42 1342.09 435.736 1341.5 436.228C1340.87 436.767 1340.38 437.442 1340.06 438.199L1340.04 438.236C1340.02 438.287 1339.99 438.339 1339.97 438.386C1336.9 443.737 1332.89 448.494 1328.12 452.427C1323.08 456.628 1317.22 459.763 1310.91 461.64L1310.83 461.664C1310.46 461.772 1310.06 461.746 1309.71 461.59C1309.35 461.433 1309.07 461.157 1308.9 460.811C1308.73 460.465 1308.7 460.071 1308.8 459.701C1308.9 459.33 1309.13 459.007 1309.45 458.789C1310.35 458.139 1311.18 457.396 1311.93 456.571C1312.71 455.72 1313.45 454.824 1314.14 453.889C1314.83 452.956 1315.48 451.998 1316.08 451.015C1316.67 450.044 1317.22 449.044 1317.72 448.018C1318.73 446.058 1319.39 443.938 1319.67 441.752C1319.79 440.707 1319.65 439.649 1319.25 438.674C1318.8 437.704 1318.03 436.919 1317.06 436.453C1315.93 435.965 1314.74 435.606 1313.53 435.383C1312.75 435.212 1312.38 434.985 1312.49 434.757C1312.55 434.637 1312.72 434.532 1313.02 434.396C1313.2 434.325 1313.39 434.263 1313.57 434.211L1313.92 434.119L1314.33 434.062C1314.63 434.027 1314.96 433.996 1315.32 433.971C1315.7 433.98 1316.12 434.007 1316.57 434.045C1316.82 434.079 1317.06 434.127 1317.3 434.188C1317.57 434.242 1317.84 434.314 1318.1 434.403C1318.37 434.513 1318.66 434.63 1318.95 434.764C1319.25 434.923 1319.54 435.105 1319.81 435.309C1320.15 435.545 1320.46 435.818 1320.74 436.122C1321.03 436.417 1321.28 436.742 1321.5 437.091C1321.93 437.754 1322.26 438.48 1322.46 439.241C1322.81 440.593 1322.92 441.994 1322.78 443.382C1322.66 444.638 1322.42 445.88 1322.07 447.091C1321.73 448.26 1321.33 449.407 1320.85 450.525C1319.91 452.743 1318.77 454.868 1317.43 456.874C1316.74 457.901 1316 458.89 1315.2 459.837C1314.33 460.883 1313.35 461.831 1312.28 462.661L1309.41 457.094C1311.32 456.415 1313.19 455.622 1315 454.721C1316.93 453.75 1318.79 452.662 1320.59 451.464C1322.39 450.246 1324.11 448.918 1325.74 447.487C1327.37 446.037 1328.9 444.485 1330.33 442.841C1331.73 441.184 1333.02 439.435 1334.19 437.608C1334.17 437.57 1334.16 437.534 1334.14 437.49Z" fill="white"/>
</g>
</svg>
