<svg width="140" height="140" viewBox="1245 980 140 140" fill="none" xmlns="http://www.w3.org/2000/svg">
<g opacity="0.2" clip-path="url(#clip0_184_10831)">
<path d="M1362.82 1014.48C1364.51 1017.13 1366 1019.9 1367.27 1022.79C1368.52 1025.68 1369.57 1028.69 1370.28 1031.78C1371.71 1037.91 1372.17 1044.2 1371.81 1050.42C1371.44 1057.02 1370.09 1063.57 1367.96 1069.83C1367.24 1071.91 1366.42 1073.97 1365.49 1075.98C1364.54 1077.98 1363.49 1079.94 1362.32 1081.84C1361.15 1083.74 1359.84 1085.56 1358.42 1087.3C1358.06 1087.72 1357.71 1088.17 1357.33 1088.58L1356.19 1089.83L1354.99 1091.02C1354.6 1091.43 1354.16 1091.79 1353.75 1092.18C1353.54 1092.36 1353.33 1092.56 1353.11 1092.74L1352.45 1093.28C1352.02 1093.64 1351.58 1094.01 1351.14 1094.33L1349.82 1095.32C1349.38 1095.64 1348.92 1095.95 1348.47 1096.27L1347.8 1096.74L1347.11 1097.2C1346.65 1097.5 1346.19 1097.81 1345.73 1098.1C1344.79 1098.67 1343.85 1099.26 1342.89 1099.79C1341.94 1100.35 1340.95 1100.85 1339.97 1101.36C1338.98 1101.84 1337.99 1102.34 1336.97 1102.77C1334.95 1103.67 1332.88 1104.47 1330.76 1105.14C1328.64 1105.81 1326.5 1106.38 1324.32 1106.81C1322.14 1107.24 1319.93 1107.56 1317.72 1107.75C1313.28 1108.13 1308.8 1107.96 1304.4 1107.32C1300 1106.66 1295.69 1105.5 1291.55 1103.89C1287.41 1102.27 1283.46 1100.2 1279.77 1097.75C1270.68 1091.69 1263.16 1083.32 1258.11 1073.62C1255.58 1068.77 1253.66 1063.59 1252.43 1058.25L1252.2 1057.24L1252 1056.22C1251.86 1055.53 1251.76 1054.84 1251.66 1054.15C1251.45 1052.77 1251.33 1051.37 1251.24 1049.98C1251.09 1047.19 1251.2 1044.38 1251.53 1041.61C1252.19 1036.07 1253.84 1030.69 1256.16 1025.67C1258.49 1020.66 1261.51 1016.01 1265.02 1011.81C1272.05 1003.4 1280.98 996.687 1290.97 992.248C1297 989.578 1303.58 987.972 1310.08 987.529C1313.19 987.33 1315.78 987.553 1317.84 987.97C1318.87 988.168 1319.78 988.446 1320.56 988.714C1321.35 989.018 1322.02 989.305 1322.58 989.638C1324.23 990.593 1324.04 991.296 1322.52 991.662C1322.33 991.709 1322.12 991.747 1321.88 991.784C1321.65 991.827 1321.4 991.866 1321.12 991.899C1320.85 991.932 1320.55 991.96 1320.24 991.983C1319.93 992.017 1319.59 992.047 1319.24 992.071C1317.83 992.174 1316.11 992.256 1314.11 992.413C1309.04 992.78 1303.54 993.809 1298.5 995.44C1292.7 997.294 1287.15 1000.07 1282.11 1003.56C1277.05 1007.05 1272.48 1011.26 1268.65 1016.03C1266.72 1018.41 1265 1020.95 1263.47 1023.59C1261.98 1026.24 1260.68 1029 1259.67 1031.86C1257.64 1037.55 1256.71 1043.6 1257.14 1049.53C1257.27 1051.17 1257.49 1052.81 1257.8 1054.44C1258.13 1056.05 1258.56 1057.71 1259.02 1059.33C1259.98 1062.56 1261.15 1065.71 1262.45 1068.67C1263.48 1071.05 1264.69 1073.35 1266.05 1075.57C1267.41 1077.78 1268.94 1079.9 1270.6 1081.91C1273.92 1085.93 1277.8 1089.5 1282.09 1092.47C1290.64 1098.44 1300.84 1101.99 1311.22 1102.49C1318.93 1102.89 1326.75 1101.47 1333.97 1098.49C1335.77 1097.74 1337.55 1096.92 1339.28 1096C1341.01 1095.07 1342.71 1094.1 1344.35 1093.01L1344.97 1092.61L1345.58 1092.19L1346.79 1091.35L1347.98 1090.48L1348.58 1090.04L1349.14 1089.59C1349.51 1089.29 1349.89 1089.01 1350.25 1088.69L1351.32 1087.74C1352.01 1087.07 1352.71 1086.42 1353.35 1085.7C1353.95 1085.09 1354.49 1084.42 1355.06 1083.77L1355.86 1082.76L1356.26 1082.25L1356.63 1081.72C1357.67 1080.34 1358.58 1078.86 1359.46 1077.37C1361.18 1074.34 1362.64 1071.16 1363.78 1067.84C1364.37 1066.19 1364.84 1064.5 1365.3 1062.81C1365.71 1061.1 1366.11 1059.39 1366.39 1057.66C1366.99 1054.19 1367.29 1050.68 1367.32 1047.17C1367.35 1040.15 1366.31 1033.08 1363.73 1026.62C1361.16 1020.13 1357.23 1014.15 1352.49 1008.97C1348.69 1004.83 1344.53 1001.26 1340.2 998.288C1335.87 995.317 1331.37 992.949 1326.83 991.224C1326.3 991.033 1325.86 990.829 1325.47 990.667C1325.09 990.504 1324.78 990.347 1324.54 990.198C1324.07 989.902 1323.88 989.642 1324 989.449C1324.12 989.256 1324.54 989.129 1325.27 989.099C1325.64 989.084 1326.08 989.087 1326.6 989.154C1327.11 989.219 1327.71 989.289 1328.37 989.442C1330.24 989.84 1332.1 990.399 1333.94 991.037C1335.78 991.703 1337.59 992.475 1339.37 993.347C1342.91 995.115 1346.3 997.272 1349.42 999.747C1354.58 1003.8 1359.05 1008.93 1362.72 1014.48C1362.75 1014.48 1362.79 1014.48 1362.82 1014.48Z" fill="white"/>
<path d="M1287.7 1017.84C1288.78 1017.87 1289.85 1017.91 1290.93 1017.92C1291.49 1017.93 1292.07 1017.94 1292.62 1017.84C1294.1 1017.58 1295.65 1017.25 1297.36 1017.1C1299.06 1016.96 1300.98 1017.02 1302.89 1017.68C1304.05 1018.1 1305.17 1018.68 1306.13 1019.42C1307.09 1020.15 1307.91 1021 1308.62 1021.87C1309.33 1022.75 1309.91 1023.67 1310.43 1024.59C1310.94 1025.5 1311.39 1026.43 1311.79 1027.33C1312.04 1027.88 1312.07 1028.52 1312.09 1029.14C1312.1 1029.73 1311.55 1030.33 1310.75 1030.88C1309.57 1031.7 1308.07 1031.96 1307.47 1031.42C1307.09 1031.08 1306.9 1030.62 1306.79 1030.16C1306.54 1029.11 1306.15 1028.13 1305.62 1027.27C1305.1 1026.41 1304.42 1025.68 1303.65 1025.19C1303.23 1024.91 1302.74 1024.77 1302.54 1024.35C1302.2 1023.68 1301.6 1023.28 1300.98 1023.02C1300.34 1022.76 1299.63 1022.65 1298.86 1022.46C1297.7 1022.17 1296.39 1022.32 1295.01 1022.36C1292.44 1022.46 1289.87 1022.55 1287.3 1022.65C1286.27 1022.69 1285.26 1022.37 1284.28 1021.33C1283.82 1020.85 1283.7 1019.57 1284.12 1019.23C1284.72 1018.74 1285.37 1018.4 1286.03 1018.16C1286.56 1017.96 1287.14 1018 1287.71 1017.93C1287.7 1017.9 1287.7 1017.87 1287.7 1017.84Z" fill="white"/>
<path d="M1347.29 1052.72C1347.01 1051.65 1346.68 1050.59 1346.29 1049.55C1346.08 1048.99 1345.86 1048.44 1345.54 1047.95C1344.67 1046.65 1343.69 1045.43 1342.67 1044.27C1341.65 1043.11 1340.63 1042.16 1339.71 1041.63C1339.43 1041.46 1339.15 1041.34 1338.89 1041.24C1338.76 1041.21 1338.68 1041.2 1338.58 1041.16C1338.43 1041.15 1338.3 1041.13 1338.15 1041.11C1337.52 1041.05 1336.68 1041.1 1335.82 1041.21C1334.1 1041.45 1332.24 1041.93 1330.42 1042.51C1329.87 1042.69 1329.24 1042.68 1328.62 1042.67C1328.03 1042.66 1327.43 1042.12 1326.87 1041.31C1326.04 1040.14 1325.81 1038.63 1326.51 1037.98C1326.94 1037.58 1327.51 1037.37 1328.08 1037.27C1329.38 1037.03 1330.65 1036.72 1331.94 1036.37C1333.23 1036.02 1334.51 1035.61 1335.94 1035.23C1336.34 1035.14 1336.73 1035 1337.18 1034.95C1337.4 1034.93 1337.62 1034.91 1337.83 1034.92C1338.06 1034.93 1338.29 1034.97 1338.5 1035.03C1338.84 1035.12 1339.21 1035.25 1339.58 1035.36L1339.85 1035.44C1339.94 1035.47 1340.04 1035.51 1340.13 1035.55L1340.71 1035.77C1341.43 1036.07 1342.05 1036.41 1342.66 1036.79C1343.85 1037.54 1344.84 1038.43 1345.56 1039.42C1346.07 1040.13 1346.58 1040.83 1347.09 1041.54C1347.58 1042.22 1348.06 1042.92 1348.47 1043.65C1349.97 1046.26 1351.13 1049.02 1352.04 1051.83C1352.41 1052.95 1352.37 1054.16 1351.57 1055.43C1351.2 1056.01 1349.96 1056.36 1349.54 1056C1348.94 1055.47 1348.46 1054.9 1348.06 1054.3C1347.73 1053.81 1347.61 1053.23 1347.38 1052.69C1347.35 1052.7 1347.32 1052.71 1347.29 1052.72Z" fill="white"/>
<path d="M1329.16 1076.72C1326.74 1077.84 1324.21 1078.72 1321.61 1079.33C1320.92 1079.49 1320.22 1079.63 1319.52 1079.76L1318.47 1079.94L1317.95 1080.04L1317.43 1080.12C1315.57 1080.47 1313.65 1080.6 1311.74 1080.57C1309.82 1080.55 1307.89 1080.32 1306.02 1079.88C1302.27 1079.02 1298.73 1077.43 1295.58 1075.28C1293.65 1073.96 1291.86 1072.43 1290.23 1070.75C1288.61 1069.06 1287.16 1067.22 1285.89 1065.29C1283.33 1061.41 1281.5 1057.15 1280.2 1052.8C1279.8 1051.48 1279.68 1050.08 1279.6 1048.73C1279.53 1047.42 1280.1 1046.47 1280.95 1045.81C1281.57 1045.33 1282.28 1045.21 1282.92 1045.4C1283.56 1045.59 1284.1 1046.09 1284.45 1046.87C1284.66 1047.36 1284.83 1047.88 1284.99 1048.41C1285.13 1048.95 1285.25 1049.49 1285.35 1050.02C1285.82 1052.48 1286.6 1054.86 1287.65 1057.1C1288.72 1059.32 1290.05 1061.41 1291.67 1063.21C1292.55 1064.23 1293.59 1065.12 1294.31 1066.19C1295.47 1067.89 1297 1069.32 1298.67 1070.52C1300.34 1071.73 1302.16 1072.69 1303.99 1073.59C1305.35 1074.26 1306.8 1074.77 1308.28 1075.1C1309.76 1075.43 1311.26 1075.6 1312.78 1075.68C1315.48 1075.79 1318.25 1075.49 1320.94 1074.75C1322.3 1074.4 1323.62 1073.92 1324.93 1073.39C1325.58 1073.1 1326.24 1072.84 1326.87 1072.51C1327.19 1072.35 1327.51 1072.2 1327.82 1072.03L1328.76 1071.51C1330.75 1070.39 1332.71 1069.46 1334.97 1069.04C1336.01 1068.86 1336.84 1069.84 1336.16 1070.79C1335.23 1072.13 1334.03 1073.35 1332.73 1074.43C1332.18 1074.87 1331.61 1075.27 1330.99 1075.62L1330.07 1076.14C1329.75 1076.31 1329.44 1076.47 1329.13 1076.64C1329.14 1076.67 1329.15 1076.69 1329.16 1076.72Z" fill="white"/>
</g>
<defs>
<clipPath id="clip0_184_10831">
<rect width="154.655" height="155.452" fill="white" transform="translate(1282.02 942.178) rotate(28.418)"/>
</clipPath>
</defs>
</svg>
