<svg width="100" height="240" viewBox="305 145 100 240" fill="none" xmlns="http://www.w3.org/2000/svg">
<path d="M323.64 173.159C325.575 174.131 327.51 175.307 329.134 176.935C329.934 177.75 330.637 178.655 331.228 179.632C331.804 180.593 332.293 181.604 332.69 182.652C333.512 184.854 333.958 187.133 334.304 189.366C334.395 189.92 334.477 190.474 334.554 191.025L334.776 192.678L332.756 192.929C332.433 190.33 332.179 187.659 332.401 184.95C332.613 182.252 333.322 179.503 334.76 177.095C335.121 176.49 335.527 175.913 335.975 175.369C336.424 174.815 336.924 174.303 337.466 173.84C337.599 173.718 337.742 173.613 337.883 173.503C338.025 173.395 338.163 173.279 338.31 173.18C338.605 172.98 338.897 172.774 339.205 172.601C339.81 172.241 340.44 171.926 341.091 171.658C341.73 171.394 342.383 171.166 343.048 170.974C343.706 170.79 344.366 170.62 345.025 170.487C346.344 170.207 347.655 170.018 348.947 169.832L349.075 172.282L347.923 172.257C346.672 172.233 345.409 172.166 344.136 172.063C342.834 171.97 341.54 171.779 340.266 171.491C338.923 171.191 337.637 170.68 336.454 169.977C335.843 169.599 335.278 169.152 334.77 168.644C334.265 168.133 333.825 167.561 333.461 166.941C332.742 165.73 332.3 164.464 331.923 163.246C331.542 162.02 331.225 160.775 330.973 159.517C330.714 158.26 330.53 156.99 330.42 155.712C330.367 155.073 330.326 154.433 330.306 153.793L330.291 153.313C330.287 153.153 330.291 152.993 330.278 152.833C330.26 152.513 330.256 152.193 330.244 151.873L332.415 151.976C332.233 154.312 332.037 156.689 331.587 159.076C331.526 159.374 331.47 159.674 331.403 159.971L331.181 160.861L330.926 161.748L330.637 162.629C330.227 163.812 329.703 164.953 329.074 166.036C327.857 168.082 326.187 169.823 324.194 171.124C323.423 171.642 322.579 172.044 321.691 172.315C321.367 172.408 321.035 172.475 320.7 172.515C320.551 172.531 320.41 172.542 320.278 172.547L320.181 172.55L320.102 172.54C320.046 172.532 319.993 172.525 319.941 172.518C319.302 172.425 318.948 172.313 319.44 171.83C319.511 171.763 319.586 171.7 319.665 171.642C319.707 171.61 319.765 171.574 319.802 171.543C319.837 171.514 319.873 171.484 319.911 171.453C320.061 171.328 320.243 171.206 320.444 171.062C320.643 170.914 320.874 170.773 321.117 170.599C321.24 170.517 321.369 170.431 321.503 170.342C321.635 170.248 321.773 170.154 321.917 170.057C322.663 169.546 323.374 168.986 324.047 168.382C324.733 167.775 325.372 167.115 325.958 166.41C326.756 165.436 327.426 164.366 327.954 163.223C328.487 162.056 328.911 160.842 329.22 159.597C329.885 157.088 330.186 154.449 330.468 151.788L330.468 151.787C330.491 151.566 330.598 151.363 330.767 151.219C330.935 151.075 331.152 151.001 331.373 151.011C331.595 151.022 331.804 151.117 331.957 151.277C332.111 151.436 332.198 151.649 332.2 151.87C332.204 152.302 332.19 152.734 332.22 153.165C332.247 153.597 332.28 154.027 332.323 154.456C332.407 155.316 332.531 156.17 332.672 157.019C332.952 158.717 333.363 160.391 333.9 162.026C334.243 163.144 334.689 164.228 335.233 165.264C335.488 165.732 335.789 166.174 336.132 166.582C336.466 166.967 336.836 167.318 337.238 167.631C337.614 167.913 338.014 168.162 338.433 168.377C338.871 168.592 339.323 168.778 339.786 168.933C340.755 169.242 341.751 169.46 342.761 169.584C344.829 169.853 346.978 169.892 349.14 169.972L349.153 169.972C349.424 169.982 349.681 170.094 349.873 170.284C350.066 170.475 350.18 170.731 350.192 171.002C350.205 171.273 350.115 171.538 349.941 171.746C349.767 171.954 349.521 172.088 349.252 172.123C347.611 172.336 345.996 172.559 344.444 172.921C342.898 173.29 341.401 173.774 340.079 174.534C339.516 174.856 338.983 175.231 338.489 175.652C337.999 176.083 337.549 176.559 337.146 177.073C336.342 178.136 335.71 179.32 335.273 180.579C334.826 181.857 334.538 183.185 334.414 184.534C334.286 185.904 334.258 187.282 334.329 188.657C334.387 189.995 334.523 191.342 334.681 192.693L334.682 192.702C334.71 192.944 334.641 193.188 334.49 193.379C334.339 193.571 334.118 193.694 333.876 193.723C333.633 193.752 333.39 193.684 333.198 193.534C333.006 193.383 332.881 193.163 332.852 192.92C332.586 190.751 332.307 188.599 331.805 186.525C331.569 185.493 331.268 184.477 330.903 183.483C330.539 182.507 330.084 181.567 329.544 180.676C329.402 180.461 329.27 180.237 329.121 180.027L328.66 179.408C328.336 179.009 327.991 178.628 327.627 178.266C326.874 177.544 326.049 176.901 325.164 176.348C324.718 176.065 324.259 175.799 323.79 175.544C323.556 175.417 323.319 175.293 323.08 175.172L322.72 174.992L322.54 174.904L322.369 174.827C322.146 174.72 321.901 174.633 321.663 174.539C321.416 174.458 321.174 174.367 320.92 174.297C320.42 174.142 319.904 174.024 319.388 173.912C318.387 173.703 317.372 173.572 316.351 173.52C315.362 173.471 314.385 173.529 313.574 173.81L313.341 172.883L313.34 172.821H313.341H313.346H313.354H313.369L313.4 172.821C313.42 172.822 313.44 172.822 313.469 172.821L313.626 172.816L313.948 172.802C314.163 172.793 314.377 172.783 314.59 172.774C315.018 172.757 315.44 172.74 315.857 172.723C316.693 172.693 317.509 172.675 318.306 172.658C318.577 172.648 318.849 172.659 319.118 172.69C319.223 172.698 319.285 172.73 319.382 172.729C319.444 172.728 319.506 172.745 319.559 172.779L319.717 172.595C319.695 172.679 319.664 172.716 319.679 172.724C319.689 172.731 319.744 172.707 319.794 172.627C319.8 172.617 319.804 172.606 319.805 172.595C319.806 172.584 319.805 172.572 319.802 172.561C319.798 172.55 319.792 172.54 319.784 172.532C319.776 172.524 319.767 172.517 319.756 172.513C319.745 172.509 319.734 172.507 319.722 172.508C319.711 172.509 319.7 172.512 319.69 172.518C319.68 172.524 319.671 172.531 319.665 172.541C319.658 172.55 319.654 172.561 319.652 172.572L319.602 172.85C319.593 172.902 319.524 172.981 319.395 173.068C319.305 173.141 319.207 173.204 319.104 173.255C318.784 173.411 318.447 173.529 318.099 173.605C317.347 173.778 316.589 173.932 315.819 174.077C315.435 174.15 315.048 174.219 314.658 174.286L314.068 174.384L313.765 174.431L313.607 174.453C313.547 174.461 313.459 174.469 313.386 174.475C313.125 174.497 312.864 174.428 312.649 174.278C312.434 174.129 312.278 173.909 312.208 173.656C312.138 173.404 312.159 173.135 312.266 172.896C312.374 172.657 312.562 172.463 312.797 172.348L312.872 172.312C313.478 172.03 314.122 171.837 314.784 171.74C315.09 171.703 315.403 171.655 315.704 171.644C315.855 171.636 316.008 171.623 316.158 171.619L316.607 171.616C317.798 171.628 318.984 171.766 320.145 172.029C320.732 172.156 321.312 172.312 321.883 172.496L322.316 172.641L322.752 172.807C322.896 172.858 323.044 172.928 323.19 172.992L323.41 173.089L323.605 173.183C323.617 173.175 323.627 173.167 323.64 173.159Z" fill="white"/>
<path d="M375.088 178.18C376.097 179.389 376.911 180.75 377.499 182.211C377.572 182.394 377.649 182.574 377.716 182.759L377.893 183.323C377.949 183.511 378.015 183.697 378.063 183.888L378.192 184.465C378.232 184.658 378.286 184.847 378.312 185.043L378.393 185.629L378.432 185.922C378.446 186.019 378.459 186.116 378.465 186.224C378.481 186.435 378.489 186.653 378.484 186.879C378.478 187.287 378.412 187.691 378.287 188.079C378.21 188.305 378.106 188.521 377.978 188.723C377.836 188.938 377.663 189.132 377.465 189.298L377.451 189.309C377.288 189.447 377.087 189.531 376.874 189.552C376.662 189.573 376.448 189.529 376.261 189.426C376.074 189.323 375.922 189.166 375.826 188.976C375.73 188.785 375.694 188.57 375.722 188.358C375.854 187.378 376.042 186.406 376.285 185.447C376.68 183.844 377.291 182.302 378.103 180.865C378.935 179.395 380.022 178.084 381.313 176.996C382.635 175.903 384.161 175.086 385.804 174.592C387.49 174.091 389.274 174.007 391 174.348C391.254 174.4 391.485 174.53 391.661 174.72C391.838 174.909 391.951 175.148 391.986 175.405C392.02 175.662 391.974 175.923 391.854 176.152C391.734 176.381 391.545 176.568 391.315 176.685L391.292 176.697C390.73 176.974 390.128 177.162 389.508 177.252C388.938 177.332 388.361 177.355 387.786 177.321C387.235 177.293 386.711 177.228 386.206 177.156C385.703 177.082 385.223 177.01 384.702 176.915C383.953 176.789 383.219 176.581 382.515 176.296C382.129 176.134 381.76 175.935 381.414 175.7C381.06 175.459 380.734 175.18 380.44 174.868C379.895 174.271 379.449 173.589 379.121 172.85C378.816 172.168 378.577 171.457 378.407 170.73C377.72 167.909 377.778 164.958 378.575 162.166L378.577 162.162C378.646 161.919 378.786 161.701 378.978 161.536C379.17 161.371 379.406 161.266 379.657 161.233C379.908 161.201 380.163 161.242 380.39 161.353C380.618 161.464 380.808 161.638 380.938 161.856C381.345 162.562 381.565 163.36 381.577 164.174C381.591 164.888 381.502 165.601 381.315 166.29C381.232 166.623 381.125 166.93 381.022 167.241C380.908 167.548 380.797 167.856 380.661 168.153C380.403 168.752 380.099 169.331 379.754 169.885C378.38 172.121 376.389 173.912 374.021 175.042C372.514 175.748 370.878 176.136 369.215 176.182C368.562 176.205 367.911 176.115 367.288 175.917C367.162 175.875 367.044 175.831 366.934 175.785C366.824 175.735 366.722 175.684 366.628 175.631C366.456 175.539 366.296 175.426 366.151 175.295C365.771 174.952 365.843 174.676 366.221 174.496C366.6 174.319 367.286 174.226 368.216 174.132L368.663 174.084L369.114 174.024C369.416 173.978 369.722 173.94 370.027 173.882C370.635 173.775 371.237 173.631 371.828 173.452C372.969 173.097 374.04 172.548 374.995 171.828C376.923 170.379 378.324 168.337 378.983 166.016C379.14 165.488 379.22 164.939 379.22 164.387C379.227 163.932 379.105 163.484 378.867 163.095L380.896 162.828C380.689 163.649 380.56 164.488 380.51 165.333C380.414 166.894 380.626 168.499 380.895 169.973C381.081 171.024 381.407 172.019 381.937 172.784C382.187 173.151 382.503 173.469 382.87 173.72C383.269 173.974 383.705 174.168 384.161 174.293C384.682 174.437 385.211 174.549 385.745 174.63C386.315 174.722 386.881 174.814 387.415 174.869C388.487 174.984 389.475 174.94 390.231 174.57L390.492 176.67L390.117 176.599L389.93 176.562L389.74 176.539L389.36 176.493L388.977 176.474C388.104 176.441 387.232 176.543 386.391 176.777C385.535 177.017 384.714 177.369 383.949 177.823C383.179 178.278 382.469 178.827 381.834 179.456C381.193 180.095 380.624 180.802 380.136 181.565C378.797 183.633 378.008 186.083 377.68 188.586L376.198 187.788C376.287 187.714 376.353 187.617 376.392 187.508C376.453 187.338 376.489 187.16 376.496 186.98C376.508 186.756 376.502 186.531 376.478 186.308L376.372 185.561C376.335 185.311 376.285 185.064 376.221 184.82L376.136 184.451C376.11 184.327 376.062 184.21 376.026 184.088C375.946 183.848 375.877 183.604 375.788 183.367L375.498 182.662C375.076 181.732 374.552 180.851 373.935 180.037C373.304 179.228 372.589 178.487 371.803 177.828C370.81 177.016 369.73 176.318 368.581 175.747C368.512 175.711 368.445 175.672 368.375 175.638L368.163 175.545L367.742 175.354C367.466 175.214 367.178 175.121 366.896 175.007L366.473 174.838C366.335 174.788 366.198 174.744 366.06 174.709C365.787 174.624 365.496 174.623 365.222 174.705C365.155 174.731 365.095 174.762 365.047 174.784C365.046 174.784 365.045 174.785 365.044 174.786C365.043 174.786 365.043 174.787 365.042 174.788L365.037 174.804C365.019 174.86 365.022 174.921 365.047 174.975C365.07 175.024 365.103 175.068 365.143 175.104C365.215 175.169 365.306 175.21 365.403 175.221C365.449 175.227 365.496 175.224 365.54 175.211C365.58 175.203 365.619 175.193 365.657 175.179C365.721 175.155 365.768 175.14 365.794 175.157C365.82 175.173 365.827 175.223 365.79 175.309C365.762 175.362 365.725 175.409 365.681 175.449C365.627 175.512 365.558 175.561 365.48 175.589C365.292 175.664 365.084 175.671 364.892 175.608C364.75 175.561 364.623 175.478 364.522 175.367C364.45 175.286 364.393 175.194 364.355 175.093C364.31 174.973 364.29 174.846 364.295 174.719C364.299 174.622 364.33 174.529 364.386 174.449L364.525 174.25C364.598 174.145 364.683 174.049 364.779 173.965C364.833 173.918 364.89 173.875 364.95 173.837C365.013 173.801 365.08 173.77 365.148 173.743C365.469 173.621 365.812 173.561 366.156 173.568C366.424 173.57 366.693 173.593 366.958 173.639L367.686 173.755L367.869 173.786L368.049 173.832L368.409 173.925C369.381 174.177 370.319 174.544 371.204 175.017C372.667 175.836 373.969 176.912 375.05 178.193C375.062 178.189 375.073 178.185 375.088 178.18Z" fill="white"/>
<path d="M352.408 204.175L353.175 204.605L353.914 205.083L354.097 205.204L354.274 205.336L354.626 205.601C354.742 205.69 354.861 205.776 354.975 205.868L355.309 206.157C355.755 206.54 356.179 206.947 356.579 207.378L357.154 208.046C357.343 208.27 357.509 208.512 357.686 208.745C358.366 209.694 358.943 210.712 359.406 211.784C359.854 212.853 360.194 213.965 360.42 215.103C360.471 215.406 360.534 215.706 360.573 216.011L360.674 216.926L360.719 217.846C360.735 218.153 360.715 218.46 360.714 218.767C360.674 219.997 360.498 221.219 360.191 222.411L359.951 223.249C359.882 223.49 359.728 223.698 359.518 223.834C359.308 223.971 359.055 224.027 358.807 223.992C358.559 223.957 358.332 223.834 358.167 223.645C358.003 223.456 357.912 223.214 357.912 222.963L357.912 222.914C357.915 220.209 357.909 217.418 358.429 214.616C358.684 213.197 359.103 211.813 359.675 210.49C360.26 209.131 361.061 207.875 362.049 206.773C363.061 205.681 364.251 204.768 365.568 204.072C366.846 203.405 368.19 202.874 369.578 202.487C370.261 202.292 370.945 202.125 371.632 201.978C372.321 201.832 373.026 201.704 373.755 201.625C374.499 201.537 375.25 201.514 375.999 201.558C376.784 201.604 377.56 201.751 378.308 201.995C378.555 202.075 378.77 202.23 378.926 202.437C379.081 202.645 379.169 202.895 379.176 203.154C379.184 203.413 379.112 203.668 378.969 203.885C378.827 204.101 378.621 204.268 378.379 204.364L378.352 204.374C377.175 204.812 375.93 205.041 374.673 205.051C373.34 205.059 372.008 204.953 370.693 204.734C369.389 204.553 368.098 204.289 366.828 203.943C366.171 203.761 365.527 203.539 364.897 203.279C364.249 203.016 363.623 202.7 363.027 202.334C362.415 201.961 361.841 201.529 361.313 201.045C360.787 200.558 360.311 200.02 359.892 199.439C359.095 198.315 358.448 197.093 357.967 195.802C357.022 193.322 356.439 190.72 356.234 188.074C356.21 187.744 356.189 187.414 356.178 187.083C356.171 186.918 356.165 186.752 356.163 186.587C356.161 186.42 356.155 186.266 356.158 186.063C356.158 185.617 356.224 185.174 356.354 184.748C356.443 184.466 356.575 184.2 356.747 183.959C356.952 183.675 357.218 183.44 357.524 183.269L357.537 183.262C357.687 183.18 357.852 183.129 358.021 183.111C358.191 183.093 358.363 183.108 358.527 183.156C358.691 183.205 358.844 183.285 358.977 183.392C359.109 183.499 359.22 183.632 359.302 183.782C359.39 183.944 359.442 184.123 359.457 184.307C359.841 189.578 358.48 194.83 355.585 199.251C354.911 200.279 354.112 201.218 353.206 202.049C352.742 202.468 352.246 202.849 351.721 203.188C351.193 203.529 350.636 203.821 350.055 204.059C349.133 204.45 348.135 204.628 347.135 204.579C346.494 204.556 345.868 204.378 345.31 204.062C344.71 203.68 344.829 203.416 345.351 203.293C345.617 203.216 345.989 203.168 346.455 203.079C347.019 202.974 347.575 202.833 348.121 202.655C348.958 202.372 349.749 201.969 350.47 201.458C351.22 200.921 351.905 200.298 352.512 199.603C353.387 198.587 354.139 197.47 354.751 196.276C355.385 195.078 355.9 193.82 356.289 192.521C357.072 189.923 357.352 187.199 357.115 184.495L358.661 185.326C358.662 185.327 358.664 185.33 358.662 185.326L358.656 185.318C358.657 185.32 358.658 185.321 358.659 185.323C358.663 185.327 358.666 185.33 358.664 185.328V185.331C358.655 185.343 358.648 185.357 358.642 185.371C358.602 185.466 358.576 185.567 358.565 185.669C358.544 185.831 358.536 185.993 358.54 186.155L358.563 186.77C358.606 187.606 358.694 188.439 358.815 189.265C359.064 190.916 359.481 192.538 360.058 194.105C360.456 195.217 360.977 196.283 361.609 197.282C361.91 197.751 362.249 198.196 362.62 198.612C362.799 198.813 362.988 199.004 363.186 199.186C363.286 199.274 363.38 199.369 363.482 199.454L363.79 199.709C364.712 200.416 365.746 200.964 366.848 201.331C368.014 201.725 369.211 202.021 370.427 202.215C371.645 202.442 372.877 202.583 374.115 202.638C375.264 202.694 376.414 202.527 377.5 202.147L377.54 204.252C376.464 203.886 375.249 203.826 374.001 203.952C373.377 204.011 372.744 204.114 372.103 204.237C371.462 204.362 370.825 204.503 370.199 204.665C368.858 204.996 367.564 205.494 366.348 206.149C365.166 206.783 364.118 207.639 363.26 208.671C362.411 209.73 361.739 210.921 361.273 212.196C360.792 213.502 360.456 214.856 360.272 216.236C359.962 218.408 359.929 220.652 359.9 222.925L358.064 222.624C359.287 219.019 358.86 214.864 357.03 211.485C356.911 211.277 356.804 211.06 356.674 210.858L356.283 210.253C356.15 210.053 355.997 209.867 355.856 209.673C355.782 209.578 355.715 209.478 355.637 209.387L355.401 209.116C355.087 208.753 354.756 208.405 354.407 208.075C354.042 207.763 353.688 207.436 353.292 207.16C353.102 207.011 352.904 206.872 352.7 206.743C352.496 206.615 352.297 206.478 352.089 206.355L351.454 206.004C351.244 205.883 351.018 205.794 350.801 205.687C349.92 205.277 349 204.96 348.054 204.741C345.799 204.211 343.458 204.166 341.185 204.607L341.162 203.705C342.523 204.119 343.952 204.264 345.368 204.132C346.172 204.056 346.58 204.034 346.577 204.207C346.572 204.284 346.465 204.416 346.236 204.567C346.098 204.659 345.952 204.74 345.802 204.81C345.714 204.853 345.617 204.896 345.513 204.937C345.46 204.957 345.406 204.98 345.349 204.998C345.292 205.015 345.233 205.031 345.172 205.048C343.751 205.421 342.267 205.485 340.819 205.236C340.579 205.194 340.361 205.073 340.198 204.892C340.035 204.712 339.937 204.482 339.92 204.239C339.903 203.996 339.968 203.755 340.104 203.553C340.24 203.352 340.439 203.201 340.671 203.126L340.763 203.097C342.201 202.638 343.701 202.406 345.211 202.407C346.451 202.404 347.685 202.562 348.884 202.877C350.091 203.189 351.26 203.632 352.371 204.198C352.383 204.19 352.394 204.182 352.408 204.175Z" fill="white"/>
</svg>
