<svg width="398" height="514" viewBox="0 0 398 514" fill="none" xmlns="http://www.w3.org/2000/svg">
<g clip-path="url(#clip0_184_9303)">
<path d="M377.732 10H20.2683C14.5973 10 10 14.5958 10 20.2649V493.735C10 499.404 14.5973 504 20.2683 504H377.732C383.403 504 388 499.404 388 493.735V20.2649C388 14.5958 383.403 10 377.732 10Z" fill="#F7F7F7"/>
<g opacity="0.2">
<path d="M98.5636 31.813H30.5365C27.701 31.813 25.4023 34.1109 25.4023 36.9455C25.4023 39.78 27.701 42.0779 30.5365 42.0779H98.5636C101.399 42.0779 103.698 39.78 103.698 36.9455C103.698 34.1109 101.399 31.813 98.5636 31.813Z" fill="#666666"/>
</g>
<path d="M361.046 25.7182H300.078C293.875 25.7182 288.847 30.7448 288.847 36.9455C288.847 43.1461 293.875 48.1727 300.078 48.1727H361.046C367.248 48.1727 372.277 43.1461 372.277 36.9455C372.277 30.7448 367.248 25.7182 361.046 25.7182Z" fill="#F5F5F5"/>
<path d="M361.046 25.7182H300.078C293.875 25.7182 288.847 30.7448 288.847 36.9455C288.847 43.1461 293.875 48.1727 300.078 48.1727H361.046C367.248 48.1727 372.277 43.1461 372.277 36.9455C372.277 30.7448 367.248 25.7182 361.046 25.7182Z" stroke="#D9D9D9"/>
<g opacity="0.2">
<path d="M343.076 33.0961H302.645C300.518 33.0961 298.794 34.8195 298.794 36.9455C298.794 39.0714 300.518 40.7948 302.645 40.7948H343.076C345.203 40.7948 346.927 39.0714 346.927 36.9455C346.927 34.8195 345.203 33.0961 343.076 33.0961Z" fill="#2B2B2B"/>
</g>
<mask id="mask0_184_9303" style="mask-type:alpha" maskUnits="userSpaceOnUse" x="352" y="31" width="11" height="12">
<path d="M362.329 31.813H352.061V42.0779H362.329V31.813Z" fill="#D9D9D9"/>
</mask>
<g mask="url(#mask0_184_9303)">
<path d="M355.912 39.5117C355.676 39.5117 355.474 39.428 355.307 39.2604C355.139 39.0929 355.056 38.8915 355.056 38.6563V33.5238C355.056 33.2886 355.139 33.0872 355.307 32.9197C355.474 32.7522 355.676 32.6684 355.912 32.6684H359.762C359.998 32.6684 360.199 32.7522 360.367 32.9197C360.534 33.0872 360.618 33.2886 360.618 33.5238V38.6563C360.618 38.8915 360.534 39.0929 360.367 39.2604C360.199 39.428 359.998 39.5117 359.762 39.5117H355.912ZM355.912 38.6563H359.762V33.5238H355.912V38.6563ZM354.2 41.2225C353.965 41.2225 353.764 41.1388 353.596 40.9713C353.429 40.8037 353.344 40.6024 353.344 40.3671V34.807C353.344 34.6858 353.386 34.5842 353.468 34.5022C353.549 34.4202 353.651 34.3792 353.773 34.3792C353.894 34.3792 353.995 34.4202 354.077 34.5022C354.159 34.5842 354.2 34.6858 354.2 34.807V40.3671H358.479C358.6 40.3671 358.701 40.4081 358.783 40.4901C358.866 40.5721 358.907 40.6736 358.907 40.7948C358.907 40.916 358.866 41.0176 358.783 41.0996C358.701 41.1816 358.6 41.2225 358.479 41.2225H354.2Z" fill="#1C1B1F"/>
</g>
<path d="M372.598 57.4753H25.4023V58.7585H372.598V57.4753Z" fill="#3A3A3A"/>
<g opacity="0.2">
<path d="M313.555 70.9481H35.6707C32.8352 70.9481 30.5366 73.2459 30.5366 76.0805C30.5366 78.9151 32.8352 81.213 35.6707 81.213H313.555C316.391 81.213 318.689 78.9151 318.689 76.0805C318.689 73.2459 316.391 70.9481 313.555 70.9481Z" fill="#27272A"/>
</g>
<g opacity="0.2">
<path d="M132.577 95.3273H35.6707C32.8352 95.3273 30.5366 97.6252 30.5366 100.46C30.5366 103.294 32.8352 105.592 35.6707 105.592H132.577C135.413 105.592 137.711 103.294 137.711 100.46C137.711 97.6252 135.413 95.3273 132.577 95.3273Z" fill="#27272A"/>
</g>
<g opacity="0.2">
<path d="M161.457 119.706H35.6707C32.8352 119.706 30.5366 122.004 30.5366 124.839C30.5366 127.674 32.8352 129.971 35.6707 129.971H161.457C164.292 129.971 166.591 127.674 166.591 124.839C166.591 122.004 164.292 119.706 161.457 119.706Z" fill="#27272A"/>
</g>
<g opacity="0.2">
<path d="M176.859 144.086H35.6707C32.8352 144.086 30.5366 146.384 30.5366 149.218C30.5366 152.053 32.8352 154.351 35.6707 154.351H176.859C179.695 154.351 181.993 152.053 181.993 149.218C181.993 146.384 179.695 144.086 176.859 144.086Z" fill="#27272A"/>
</g>
<g opacity="0.2">
<path d="M138.995 168.465H35.6707C32.8352 168.465 30.5366 170.763 30.5366 173.597C30.5366 176.432 32.8352 178.73 35.6707 178.73H138.995C141.831 178.73 144.129 176.432 144.129 173.597C144.129 170.763 141.831 168.465 138.995 168.465Z" fill="#27272A"/>
</g>
<path d="M372.598 190.919H25.4023V192.203H372.598V190.919Z" fill="#3A3A3A"/>
<mask id="mask1_184_9303" style="mask-type:luminance" maskUnits="userSpaceOnUse" x="30" y="202" width="258" height="43">
<path d="M287.885 202.468H30.5366V244.81H287.885V202.468Z" fill="white"/>
</mask>
<g mask="url(#mask1_184_9303)">
<g opacity="0.2">
<path d="M282.751 202.468H35.6707C32.8352 202.468 30.5366 204.765 30.5366 207.6C30.5366 210.435 32.8352 212.732 35.6707 212.732H282.751C285.586 212.732 287.885 210.435 287.885 207.6C287.885 204.765 285.586 202.468 282.751 202.468Z" fill="#27272A"/>
<path d="M39.5213 222.997C39.5213 220.517 37.51 218.506 35.029 218.506C32.5479 218.506 30.5366 220.517 30.5366 222.997V224.28C30.5366 226.761 32.5479 228.771 35.029 228.771C37.51 228.771 39.5213 226.761 39.5213 224.28V222.997Z" fill="#27272A"/>
<path d="M39.5213 239.036C39.5213 236.556 37.51 234.545 35.029 234.545C32.5479 234.545 30.5366 236.556 30.5366 239.036V240.319C30.5366 242.8 32.5479 244.81 35.029 244.81C37.51 244.81 39.5213 242.8 39.5213 240.319V239.036Z" fill="#27272A"/>
</g>
</g>
<mask id="mask2_184_9303" style="mask-type:luminance" maskUnits="userSpaceOnUse" x="30" y="260" width="258" height="43">
<path d="M287.885 260.208H30.5366V302.551H287.885V260.208Z" fill="white"/>
</mask>
<g mask="url(#mask2_184_9303)">
<g opacity="0.2">
<path d="M282.751 260.208H35.6707C32.8352 260.208 30.5366 262.506 30.5366 265.34C30.5366 268.175 32.8352 270.473 35.6707 270.473H282.751C285.586 270.473 287.885 268.175 287.885 265.34C287.885 262.506 285.586 260.208 282.751 260.208Z" fill="#27272A"/>
<path d="M39.5213 280.738C39.5213 278.257 37.51 276.247 35.029 276.247C32.5479 276.247 30.5366 278.257 30.5366 280.738V282.021C30.5366 284.501 32.5479 286.512 35.029 286.512C37.51 286.512 39.5213 284.501 39.5213 282.021V280.738Z" fill="#27272A"/>
<path d="M39.5213 296.777C39.5213 294.296 37.51 292.286 35.029 292.286C32.5479 292.286 30.5366 294.296 30.5366 296.777V298.06C30.5366 300.54 32.5479 302.551 35.029 302.551C37.51 302.551 39.5213 300.54 39.5213 298.06V296.777Z" fill="#27272A"/>
</g>
</g>
<path d="M387.679 446.581H10.3208V503.679H387.679V446.581Z" fill="white"/>
<path d="M388.179 446.081V504.179H9.8208V446.081H388.179Z" stroke="#D9D9D9"/>
<g opacity="0.2">
<path d="M136.428 469.997H30.5365C27.701 469.997 25.4023 472.295 25.4023 475.13C25.4023 477.964 27.701 480.262 30.5365 480.262H136.428C139.263 480.262 141.562 477.964 141.562 475.13C141.562 472.295 139.263 469.997 136.428 469.997Z" fill="#666666"/>
</g>
<path d="M359.121 461.657H266.064C258.621 461.657 252.587 467.689 252.587 475.13C252.587 482.571 258.621 488.603 266.064 488.603H359.121C366.564 488.603 372.598 482.571 372.598 475.13C372.598 467.689 366.564 461.657 359.121 461.657Z" fill="#2B7FFF"/>
<g opacity="0.2">
<path d="M336.659 469.997H267.99C265.154 469.997 262.856 472.295 262.856 475.13C262.856 477.964 265.154 480.262 267.99 480.262H336.659C339.494 480.262 341.793 477.964 341.793 475.13C341.793 472.295 339.494 469.997 336.659 469.997Z" fill="white"/>
</g>
<mask id="mask3_184_9303" style="mask-type:alpha" maskUnits="userSpaceOnUse" x="346" y="467" width="17" height="16">
<path d="M362.329 467.431H346.927V482.829H362.329V467.431Z" fill="#D9D9D9"/>
</mask>
<g mask="url(#mask3_184_9303)">
<path d="M353.73 476.285L352.35 474.905C352.232 474.788 352.082 474.729 351.901 474.729C351.719 474.729 351.569 474.788 351.451 474.905C351.334 475.023 351.275 475.173 351.275 475.354C351.275 475.536 351.334 475.686 351.451 475.803L353.28 477.632C353.409 477.76 353.558 477.824 353.73 477.824C353.901 477.824 354.051 477.76 354.179 477.632L357.805 474.007C357.922 473.89 357.981 473.74 357.981 473.558C357.981 473.376 357.922 473.226 357.805 473.109C357.687 472.991 357.537 472.932 357.356 472.932C357.174 472.932 357.024 472.991 356.906 473.109L353.73 476.285ZM354.628 481.545C353.741 481.545 352.906 481.377 352.125 481.04C351.344 480.703 350.665 480.246 350.088 479.669C349.51 479.091 349.053 478.413 348.716 477.632C348.379 476.851 348.21 476.017 348.21 475.13C348.21 474.243 348.379 473.409 348.716 472.628C349.053 471.847 349.51 471.168 350.088 470.591C350.665 470.013 351.344 469.557 352.125 469.22C352.906 468.882 353.741 468.714 354.628 468.714C355.516 468.714 356.35 468.882 357.131 469.22C357.912 469.557 358.591 470.013 359.169 470.591C359.746 471.168 360.203 471.847 360.54 472.628C360.877 473.409 361.046 474.243 361.046 475.13C361.046 476.017 360.877 476.851 360.54 477.632C360.203 478.413 359.746 479.091 359.169 479.669C358.591 480.246 357.912 480.703 357.131 481.04C356.35 481.377 355.516 481.545 354.628 481.545ZM354.628 480.262C356.061 480.262 357.275 479.765 358.27 478.771C359.265 477.776 359.762 476.562 359.762 475.13C359.762 473.697 359.265 472.483 358.27 471.489C357.275 470.495 356.061 469.997 354.628 469.997C353.195 469.997 351.981 470.495 350.986 471.489C349.991 472.483 349.494 473.697 349.494 475.13C349.494 476.562 349.991 477.776 350.986 478.771C351.981 479.765 353.195 480.262 354.628 480.262Z" fill="white"/>
</g>
</g>
<rect x="5" y="5" width="388" height="504" rx="21" stroke="white" stroke-width="10"/>
<defs>
<clipPath id="clip0_184_9303">
<rect x="10" y="10" width="378" height="494" rx="16" fill="white"/>
</clipPath>
</defs>
</svg>
