<svg width="613" height="307" viewBox="0 0 613 307" fill="none" xmlns="http://www.w3.org/2000/svg">
<path d="M442.006 247.617L460.296 66.9922H512.142C512.142 66.9922 535.129 68.5483 526.877 107.143C518.626 145.739 491.514 223.957 499.766 247.617L442.006 247.617Z" fill="#DFDFDF"/>
<path d="M343.157 208.239C350.022 174.543 361.069 117.704 366.929 87.421C369.224 75.5578 379.61 66.9922 391.693 66.9922H473.247C488.901 66.9922 500.776 81.1039 498.1 96.5281L475.512 226.703C473.234 239.831 461.14 248.922 447.897 247.464L365.112 238.343C350.363 236.718 340.195 222.779 343.157 208.239Z" fill="#E8E8E8"/>
<path d="M185.198 197.505C192.945 193.828 260.626 189.958 266.339 187.871C272.049 185.795 314.774 107.108 322.248 102.586C322.248 102.586 322.253 102.583 322.26 102.578C322.869 102.212 323.551 101.876 324.288 101.566C333.354 97.4464 372.715 83.6054 443.609 113.455C443.609 113.455 445.873 147.138 442 183.004C437.467 225.06 424.502 270.117 389.576 267.296C387.996 267.174 386.454 267.033 384.937 266.884C324.087 261.256 308.715 244.843 308.715 244.843L313.558 193.934C313.557 193.936 313.556 193.937 313.554 193.938C313.554 193.938 313.554 193.938 313.541 193.948C298.64 209.997 283.829 223.042 280.291 224.064C273.391 226.051 201.553 221.345 189.473 215.737C177.407 210.131 185.198 197.505 185.198 197.505Z" fill="#47C7F4"/>
<path d="M384.953 266.887C386.47 267.037 388.012 267.177 389.593 267.3C424.518 270.121 437.483 225.064 442.017 183.008C437.796 185.085 380.541 214.225 384.953 266.887Z" fill="#00A2DB"/>
<path d="M415.895 227.64C415.895 227.64 403.581 219.647 399.505 220.375C395.429 221.103 378.759 225.998 376.469 228.724C372.897 232.975 366.592 239.727 370.184 240.445C373.775 241.162 405.484 242.752 409.139 242.439C412.794 242.126 421.311 238.564 415.895 227.64Z" fill="#FFB792"/>
<path d="M428.672 108.527C428.672 108.527 454.375 114.28 467.244 129.058C478.941 142.491 512.821 208.076 522.146 231.668C523.631 235.425 519.45 243.6 516.088 245.838C507.666 251.444 490.328 255.512 447.432 248.436L409.085 242.844C409.085 242.844 407.346 229.872 415.682 226.281L476.716 221.167C476.716 221.167 441.15 184.36 434.28 173.778C427.409 163.196 428.672 108.527 428.672 108.527Z" fill="#47C7F4"/>
<path d="M497.682 180.469C488.48 190.898 485.004 193.965 485.004 193.965L464.146 208.075L476.716 221.161C459.852 218.504 411.183 224.638 411.183 224.638L404.64 237.726C447.536 244.801 507.666 251.437 516.088 245.832C519.45 243.593 523.631 235.418 522.146 231.661C512.821 208.07 509.379 193.901 497.682 180.469Z" fill="#FFB792"/>
<path d="M189.456 215.73C201.535 221.338 273.373 226.044 280.274 224.057C283.812 223.035 298.623 209.99 313.524 193.941C312.789 194.039 289.345 197.375 274.904 209.86C274.904 209.86 266.768 213.482 244.623 211.454C222.479 209.428 194.042 208.682 189.456 215.73Z" fill="#00A2DB"/>
<path d="M376.472 123.968C376.472 123.968 375.206 142.646 373.234 152.472C373.234 152.472 376.923 153.812 380.718 152.789C380.718 152.789 378.517 156.137 371.637 153.948C371.637 153.948 375.398 134.649 376.472 123.968Z" fill="#3288A1"/>
<path d="M377.488 121.091C373.852 117.87 372.119 109.243 371.596 105.656C371.077 102.069 379.879 92.7946 379.879 92.7946C379.879 92.7946 365.011 93.7374 363.742 95.4571C362.475 97.1788 356.299 108.72 356.667 115.071C357.033 121.421 358.991 129.972 361.6 133.536C364.208 137.097 365.739 130.658 367.321 128.141C369.379 124.873 372.226 121.309 377.488 121.091Z" fill="white"/>
<path d="M364.641 97.9778L364.658 102.427C364.658 102.427 363.425 116.337 380.553 118.395C397.682 120.458 410.672 113.015 410.224 102.279C408.694 93.9649 407.009 88.2535 406.904 81.3754C406.866 78.8201 407.046 76.1073 407.526 73.0461L374.332 72.332L364.552 73.9144L364.641 97.9778Z" fill="#FFB792"/>
<path d="M364.535 73.9073L364.624 97.9711C368.148 99.6156 372.125 100.623 376.586 100.629C391.842 100.653 407.029 76.1003 407.509 73.0391L364.535 73.9073Z" fill="#F2AC8C"/>
<path d="M362.61 85.5922C362.61 85.5922 405.113 94.2458 410.094 67.695C415.077 41.1438 423.917 24.379 396.992 17.7315C370.066 11.0835 362.877 20.2229 359.059 28.6802C355.24 37.1387 351.683 82.657 362.61 85.5922Z" fill="#FFB792"/>
<path d="M350.817 8.9393C350.817 8.9393 362.674 8.04527 376.668 1.98668C388.024 -2.93004 402.336 2.52616 406.98 4.98247C406.856 4.23282 406.559 3.21037 405.85 2.18383C405.85 2.18383 407.936 3.66676 408.24 5.73578C408.454 5.89487 408.55 6.00406 408.495 6.04046C408.495 6.04046 410.861 5.61146 412.38 6.29772C412.38 6.29772 411.317 6.14436 410.935 6.82776C410.895 6.90015 410.835 6.96108 410.765 7.01548C428.456 15.597 430.959 48.0032 425.253 54.4683C418.386 62.247 406.922 79.6961 406.922 79.6961C406.922 79.6961 406.237 71.2053 407.494 64.3525C408.751 57.4996 402.832 57.491 395.358 54.3636C387.884 51.2361 394.13 42.5217 387.595 37.2148C381.06 31.9075 368.245 35.5469 357.381 30.9366C348.481 27.6786 350.816 9.85132 350.817 8.9393Z" fill="#233862"/>
<path d="M407.833 96.352C408.066 100.534 402.638 107.59 394.333 112.544C386.029 117.498 378.873 119.504 377.965 121.572C381.907 122.229 385.468 123.961 388.401 129.959C391.202 135.687 391.174 135.871 400.76 129.959C410.347 124.046 418.92 110.477 418.899 105.955C418.879 101.436 411.364 92.6924 407.676 93.4343L407.833 96.352Z" fill="white"/>
<path d="M260.293 145.824H133.321L163.777 235.266H291.571L260.293 145.824Z" fill="#D5D5D5"/>
<path d="M258.424 145.824L289.704 235.268H161.909L131.454 145.824H258.424Z" fill="url(#paint0_linear_4_994)"/>
<path d="M419.367 104.237C419.519 104.796 414.36 120.397 413.71 121.205C408.793 125.508 406.691 128.478 392.954 135.75C393.464 134.035 412.902 121.205 419.367 104.237Z" fill="#00A2DB"/>
<path d="M376.944 119.588C376.842 119.84 377.752 124.436 376.257 126.061C380.984 124.436 381.792 126.061 390.681 134.133C389.999 133.268 395.054 126.672 376.944 119.588Z" fill="#00A2DB"/>
<path d="M377.753 119.588C377.855 119.84 376.945 124.436 378.44 126.061C373.713 124.436 372.905 126.061 364.017 134.133C364.698 133.268 359.644 126.672 377.753 119.588Z" fill="#00A2DB"/>
<path d="M101.978 306.999H612.485L599.314 270.578C591.644 249.374 571.511 235.25 548.958 235.25H150.605C134.009 235.25 119.418 246.239 114.834 262.195L101.978 306.999Z" fill="#D8782F"/>
<path d="M199.755 306.999H492.83L493.397 288.642C494.298 259.615 480.53 235.25 463.228 235.25H228.694C218.816 235.25 210.131 246.239 207.407 262.195L199.755 306.999Z" fill="#F0A250"/>
<path d="M3.05176e-05 306.999H300.704C317.403 278.02 332.615 251.897 342.649 235.25H48.6205C32.0251 235.25 17.4331 246.239 12.8567 262.195L3.05176e-05 306.999Z" fill="#EC9746"/>
<defs>
<linearGradient id="paint0_linear_4_994" x1="202.602" y1="205.499" x2="210.579" y2="235.268" gradientUnits="userSpaceOnUse">
<stop stop-color="#F4F4F4"/>
<stop offset="1" stop-color="#C6C6C6"/>
</linearGradient>
</defs>
</svg>
