<svg width="554" height="224" viewBox="0 0 554 224" fill="none" xmlns="http://www.w3.org/2000/svg">
<ellipse cx="277" cy="218" rx="238" ry="6" fill="#6294C3"/>
<g filter="url(#filter0_d_147_763)">
<path d="M289.276 42.9959L164.896 30.0648C148.122 28.3209 133.111 40.5096 131.367 57.289C129.624 74.0684 141.809 89.0845 158.583 90.8284L282.963 103.76C299.737 105.503 314.748 93.3147 316.491 76.5353C318.234 59.7559 306.05 44.7398 289.276 42.9959Z" fill="white"/>
<path d="M289.201 43.7192L164.821 30.7882C148.446 29.0858 133.793 40.9843 132.091 57.3642C130.389 73.7441 142.284 88.4027 158.658 90.105L283.038 103.036C299.412 104.738 314.066 92.84 315.768 76.4601C317.47 60.0802 305.575 45.4216 289.201 43.7192Z" stroke="#005FB8"/>
<path d="M193.95 71.39C192.622 71.2521 191.656 70.7149 191.052 69.7785C190.464 68.8284 190.255 67.543 190.423 65.9227L191.261 57.8672L194.685 58.2233L193.88 65.9778C193.842 66.3482 193.836 66.6987 193.864 67.0291C193.894 67.3442 193.974 67.6255 194.104 67.8731C194.236 68.1051 194.425 68.3042 194.674 68.4703C194.938 68.6227 195.271 68.7197 195.673 68.7613C195.95 68.7903 196.231 68.7805 196.517 68.7322C196.82 68.6701 197.089 68.5654 197.321 68.4181C197.556 68.2709 197.755 68.0809 197.919 67.8485C198.083 67.616 198.182 67.3378 198.216 67.0137L199.082 58.6803L202.507 59.0364L201.451 69.1984L202.585 69.3162L202.309 71.9784L200.249 71.7642C198.86 71.6198 198.226 70.7504 198.345 69.1562L198.182 69.1394C198.022 69.4815 197.817 69.8034 197.567 70.1049C197.335 70.3928 197.044 70.6432 196.695 70.8565C196.36 71.0713 195.962 71.2249 195.5 71.3173C195.052 71.4267 194.535 71.4509 193.95 71.39ZM192.276 53.4569L199.866 54.246L200.078 52.2091L203.178 52.5314L202.707 57.0684L192.017 55.957L192.276 53.4569ZM200.798 47.534L203.667 47.8323L203.282 51.536L200.413 51.2377L200.798 47.534ZM206.363 65.591L204.433 64.5715C204.585 63.7292 204.864 62.9861 205.274 62.3424C205.701 61.6848 206.225 61.1465 206.846 60.7274C207.465 60.3084 208.175 60.0079 208.973 59.8256C209.787 59.6451 210.657 59.6029 211.583 59.6992C212.524 59.7971 213.351 60.0156 214.065 60.3549C214.795 60.6805 215.397 61.1097 215.872 61.6426C216.348 62.16 216.69 62.7728 216.898 63.4806C217.122 64.1747 217.191 64.9306 217.106 65.7485L216.307 73.4338L212.883 73.0777L213.636 65.8323C213.738 64.8447 213.563 64.0466 213.113 63.4381C212.676 62.8313 211.973 62.4773 211.001 62.3763C210.26 62.2992 209.604 62.3871 209.033 62.6396C208.476 62.8937 208.05 63.2393 207.754 63.6767L208.534 64.0618C209.066 64.3356 209.419 64.6219 209.591 64.9205C209.763 65.2191 209.819 65.6461 209.761 66.2016L209.088 72.6831L205.663 72.327L206.363 65.591ZM210.481 58.1808C209.694 58.0989 209.088 57.7787 208.663 57.2197C208.223 56.6591 208.048 55.9312 208.141 55.0361C208.242 54.0795 208.614 53.3382 209.261 52.8128C209.908 52.2873 210.748 52.0783 211.782 52.1858L218.446 52.8786L218.238 54.8925L211.643 54.2069C211.349 54.1763 211.115 54.2611 210.937 54.4611C210.763 54.6457 210.658 54.9001 210.625 55.2242C210.593 55.5328 210.636 55.7869 210.756 55.9865C210.862 56.1691 211.046 56.2741 211.308 56.3013C211.478 56.319 211.621 56.2949 211.737 56.2288C211.852 56.1629 211.948 56.0715 212.022 55.9544C212.082 55.8358 212.134 55.7085 212.179 55.573C212.208 55.4357 212.23 55.3052 212.243 55.1819L214.048 55.3695C214.052 55.6349 214.1 55.913 214.195 56.2037C214.292 56.4789 214.494 56.6325 214.802 56.6646C215.003 56.6854 215.188 56.6267 215.359 56.4885C215.515 56.3331 215.609 56.1011 215.641 55.7925L215.704 55.1906L218.18 55.448L218.093 56.2813C218.004 57.1456 217.703 57.7851 217.193 58.1999C216.668 58.5977 215.996 58.7542 215.179 58.6691C214.978 58.6483 214.764 58.6027 214.538 58.5324C214.311 58.462 214.103 58.3624 213.914 58.2335C213.71 58.0876 213.534 57.9132 213.383 57.7104C213.219 57.4905 213.114 57.23 213.068 56.9288L212.951 56.9167C212.723 57.4701 212.381 57.8323 211.926 58.0035C211.472 58.1746 210.99 58.2338 210.481 58.1808ZM218.987 64.4467L222.32 64.7932L224.425 71.5401L224.542 71.5522C225.081 71.6083 225.529 71.421 225.887 70.99C226.243 70.5592 226.464 69.927 226.551 69.0937L226.772 66.9641C226.859 66.1308 226.765 65.4658 226.489 64.9692C226.212 64.4725 225.789 64.1945 225.218 64.1352L224.363 64.0461L224.643 61.3378L225.57 61.4341C226.403 61.5206 227.127 61.7443 227.745 62.1048C228.377 62.4669 228.889 62.9491 229.279 63.5512C229.686 64.1394 229.971 64.8476 230.134 65.6757C230.3 66.4885 230.329 67.3963 230.226 68.3995C230.121 69.4025 229.904 70.2924 229.574 71.0693C229.26 71.8322 228.844 72.4674 228.324 72.9749C227.819 73.4684 227.221 73.8274 226.526 74.0517C225.849 74.2774 225.1 74.348 224.283 74.2629L222.038 74.0296L218.987 64.4467ZM238.264 67.1293C238.325 66.5429 238.219 66.0639 237.945 65.6922C237.688 65.3224 237.212 65.1013 236.517 65.0291C235.854 64.9602 235.315 65.0522 234.899 65.3053C234.483 65.543 234.125 65.8333 233.826 66.1765L231.976 64.1592C232.546 63.4853 233.214 62.9853 233.98 62.6595C234.764 62.3197 235.789 62.2157 237.054 62.3472C238.735 62.5221 239.968 63.0325 240.755 63.8784C241.54 64.7244 241.857 65.8728 241.705 67.3234L240.807 75.9807L237.381 75.6246L238.264 67.1293ZM247.733 76.9816C246.405 76.8437 245.44 76.3065 244.836 75.3701C244.249 74.42 244.039 73.1346 244.206 71.5142L245.044 63.4588L248.468 63.8149L247.663 71.5693C247.625 71.9398 247.619 72.2902 247.647 72.6207C247.677 72.9357 247.757 73.2171 247.887 73.4646C248.019 73.6966 248.21 73.8957 248.457 74.0618C248.721 74.2143 249.054 74.3113 249.456 74.3529C249.733 74.3818 250.015 74.3721 250.3 74.3238C250.603 74.2617 250.872 74.157 251.105 74.0096C251.339 73.8624 251.538 73.6725 251.702 73.44C251.867 73.2076 251.965 72.9293 252 72.6053L252.865 64.2719L256.29 64.628L255.234 74.79L256.368 74.9078L256.092 77.5699L254.032 77.3558C252.644 77.2114 252.009 76.3421 252.128 74.7478L251.965 74.7309C251.805 75.073 251.6 75.3949 251.352 75.6965C251.119 75.9843 250.827 76.2348 250.478 76.448C250.143 76.6629 249.745 76.8165 249.284 76.9088C248.836 77.0182 248.319 77.0425 247.733 76.9816Z" fill="#005FB8"/>
</g>
<g filter="url(#filter1_d_147_763)">
<path d="M447.407 60.073L244.225 72.6412C227.393 73.6824 214.592 88.176 215.633 105.014C216.674 121.851 231.162 134.657 247.994 133.616L451.176 121.047C468.008 120.006 480.809 105.513 479.769 88.675C478.728 71.8374 464.239 59.0318 447.407 60.073Z" fill="white"/>
<path d="M447.452 60.7988L244.27 73.3671C227.839 74.3834 215.342 88.532 216.358 104.969C217.374 121.405 231.518 133.906 247.95 132.89L451.131 120.322C467.563 119.305 480.059 105.157 479.043 88.7198C478.027 72.2831 463.883 59.7825 447.452 60.7988Z" stroke="#005FB8"/>
<path d="M275.115 100.902C275.065 100.066 275.165 99.3056 275.418 98.6216C275.671 97.9375 276.053 97.3386 276.565 96.8252C277.077 96.3116 277.712 95.9069 278.471 95.6114C279.245 95.2992 280.119 95.1131 281.095 95.0527C282.07 94.9923 282.953 95.0698 283.742 95.2853C284.548 95.4842 285.236 95.8069 285.807 96.2534C286.379 96.7 286.832 97.2472 287.167 97.8949C287.503 98.5424 287.696 99.2844 287.748 100.121L288.222 107.809L284.787 108.022L284.321 100.496C284.265 99.5667 283.965 98.8701 283.423 98.4063C282.88 97.9269 282.16 97.7148 281.262 97.7704C280.365 97.8259 279.675 98.125 279.197 98.6677C278.716 99.1948 278.505 99.9229 278.563 100.852L278.733 103.616L278.85 103.609C278.89 103.264 278.979 102.933 279.114 102.613C279.249 102.279 279.433 101.98 279.665 101.717C279.912 101.453 280.211 101.24 280.558 101.078C280.904 100.902 281.317 100.798 281.797 100.769L282.402 100.731L282.6 103.937L281.74 103.99C280.734 104.052 279.991 104.23 279.513 104.524C279.049 104.817 278.839 105.32 278.883 106.032L279.028 108.378L275.591 108.591L275.115 100.902ZM295.228 107.656C293.896 107.738 292.857 107.367 292.106 106.543C291.371 105.703 290.952 104.469 290.851 102.843L290.351 94.7599L293.789 94.5472L294.27 102.329C294.292 102.7 294.346 103.047 294.427 103.368C294.508 103.674 294.633 103.939 294.802 104.161C294.971 104.368 295.19 104.534 295.462 104.657C295.749 104.763 296.093 104.804 296.496 104.779C296.774 104.762 297.05 104.706 297.323 104.611C297.613 104.5 297.86 104.353 298.067 104.169C298.272 103.985 298.437 103.765 298.561 103.509C298.686 103.253 298.737 102.962 298.718 102.637L298.2 94.2744L301.636 94.0619L302.267 104.259L303.406 104.189L303.57 106.86L301.504 106.988C300.111 107.074 299.342 106.321 299.196 104.729L299.033 104.739C298.932 105.103 298.782 105.454 298.586 105.792C298.404 106.115 298.158 106.41 297.848 106.678C297.553 106.944 297.187 107.161 296.746 107.329C296.323 107.51 295.816 107.619 295.228 107.656ZM309.674 106.482C308.498 106.555 307.612 106.322 307.021 105.784C306.443 105.244 306.121 104.433 306.054 103.349L305.318 91.4325C305.261 90.5343 305.444 89.839 305.865 89.3467C306.285 88.8544 306.792 88.5122 307.386 88.3199L307.378 88.2038L302.387 88.5126L302.221 85.8413L310.673 85.3184L310.839 87.9897L310.513 88.0099C309.91 88.0472 309.442 88.2627 309.109 88.6565C308.79 89.0491 308.654 89.5862 308.696 90.2675L309.532 103.81L311.134 103.711L311.3 106.382L309.674 106.482ZM320.795 106.074C320.238 106.109 319.745 106.069 319.319 105.956C318.908 105.841 318.541 105.685 318.218 105.488C317.909 105.273 317.646 105.025 317.426 104.744C317.222 104.461 317.057 104.168 316.929 103.865L316.812 103.872L316.946 106.032L313.51 106.245L312.713 93.3766L316.151 93.164L316.667 101.526C316.687 101.851 316.775 102.134 316.93 102.373C317.084 102.612 317.275 102.81 317.503 102.967C317.746 103.123 318.009 103.239 318.293 103.314C318.592 103.374 318.882 103.395 319.159 103.377C319.593 103.351 319.944 103.259 320.215 103.102C320.5 102.945 320.714 102.745 320.853 102.503C320.993 102.246 321.084 101.96 321.127 101.647C321.17 101.333 321.18 101.006 321.16 100.665L320.679 92.884L324.115 92.6713L324.615 100.755C324.715 102.381 324.445 103.657 323.802 104.582C323.159 105.493 322.158 105.99 320.795 106.074ZM320.436 86.0904L323.546 85.8979L323.844 90.7062L320.733 90.8987L320.436 86.0904ZM332.419 105.075C331.243 105.148 330.357 104.915 329.765 104.377C329.188 103.837 328.865 103.026 328.798 101.942L328.275 93.4633C328.252 93.0917 328.285 92.7554 328.375 92.4544C328.48 92.1371 328.609 91.8493 328.765 91.591C328.933 91.3163 329.121 91.0715 329.325 90.8568C329.544 90.6256 329.755 90.3949 329.959 90.1647C330.249 89.8358 330.492 89.5099 330.69 89.1868C330.902 88.8472 330.995 88.4607 330.969 88.0271C330.937 87.5315 330.774 87.1608 330.481 86.9147C330.2 86.6677 329.82 86.559 329.341 86.5887C328.8 86.6223 328.369 86.82 328.049 87.1817C327.746 87.5424 327.511 88.0466 327.35 88.6939L324.779 87.4539C324.909 87.0262 325.092 86.6107 325.332 86.2072C325.57 85.7882 325.874 85.4198 326.242 85.1016C326.626 84.767 327.082 84.4901 327.613 84.2707C328.158 84.0504 328.803 83.9173 329.546 83.8713C330.181 83.832 330.774 83.8808 331.327 84.0176C331.879 84.1545 332.359 84.3813 332.768 84.6979C333.19 84.9983 333.524 85.3817 333.771 85.8485C334.031 86.2987 334.181 86.8256 334.218 87.4296C334.258 88.08 334.139 88.6626 333.86 89.1772C333.595 89.6755 333.299 90.1446 332.969 90.5848C332.638 91.0249 332.337 91.4477 332.067 91.853C331.797 92.2584 331.676 92.6856 331.703 93.1346L332.276 102.403L333.879 102.304L334.045 104.975L332.419 105.075ZM341.264 104.808C340.444 104.859 339.686 104.812 338.994 104.669C338.302 104.525 337.703 104.275 337.2 103.917C336.695 103.56 336.294 103.102 335.996 102.546C335.698 101.989 335.523 101.316 335.475 100.526C335.448 100.093 335.455 99.7112 335.497 99.3821C335.539 99.0531 335.599 98.7541 335.675 98.4851C335.768 98.2152 335.861 97.9762 335.957 97.7682C336.069 97.5592 336.181 97.3657 336.294 97.1877C336.49 96.8336 336.653 96.4582 336.784 96.0616C336.929 95.6483 336.99 95.2482 336.966 94.861L336.956 94.6985L334.982 94.8205L334.808 92.0099L337.386 91.8505C338.269 91.796 338.953 91.9555 339.443 92.3295C339.932 92.6879 340.197 93.2 340.237 93.8659L340.243 93.9587C340.271 94.4079 340.237 94.8685 340.143 95.3407C340.047 95.813 339.871 96.3525 339.614 96.959C339.423 97.4061 339.262 97.8202 339.131 98.2015C339.013 98.5661 338.972 99.0351 339.007 99.608L339.047 100.235C339.083 100.824 339.273 101.278 339.619 101.599C339.965 101.904 340.432 102.038 341.02 102.002C341.609 101.965 342.055 101.782 342.362 101.453C342.682 101.106 342.824 100.639 342.788 100.05L342.677 98.2619C342.64 97.6579 342.533 97.1981 342.359 96.8825C342.184 96.5669 341.834 96.4253 341.308 96.4579L341.168 96.4665L341.01 93.9115L341.382 93.8885C341.753 93.8655 342.056 93.7456 342.292 93.5291C342.542 93.3115 342.651 92.9471 342.621 92.4361L342.529 90.9727L345.873 90.7659L345.945 91.9273C345.964 92.2216 345.942 92.5104 345.882 92.7939C345.837 93.061 345.728 93.3164 345.556 93.5602C345.401 93.8029 345.165 94.0197 344.851 94.2101C344.552 94.3996 344.165 94.5557 343.691 94.6783L343.701 94.8408C344.492 95.0562 345.101 95.5004 345.532 96.1733C345.977 96.8453 346.238 97.8083 346.317 99.0627C346.368 99.8989 346.283 100.666 346.062 101.364C345.856 102.045 345.535 102.632 345.098 103.125C344.664 103.619 344.12 104.01 343.47 104.299C342.82 104.588 342.084 104.757 341.264 104.808ZM342.228 84.7424L345.338 84.5498L345.636 89.3581L342.525 89.5506L342.228 84.7424ZM348.611 91.1561L352.047 90.9436L352.268 94.5208L355.194 93.9434C355.639 93.8537 355.947 93.687 356.119 93.4432C356.303 93.183 356.411 92.7723 356.439 92.2109L356.506 90.6678L360.059 90.448L359.998 92.1072C359.965 92.8243 359.723 93.4533 359.276 93.9941C358.826 94.5193 358.156 94.8483 357.262 94.9813L357.269 95.0975C357.864 95.1539 358.348 95.3261 358.723 95.6137C359.098 95.9014 359.399 96.2482 359.626 96.6539C359.869 97.0429 360.042 97.4598 360.147 97.904C360.267 98.3474 360.354 98.7462 360.407 99.1004L361.063 103.304L357.534 103.522L356.91 99.0837C356.798 98.2822 356.551 97.6834 356.17 97.2873C355.786 96.8758 355.28 96.7283 354.65 96.845L352.438 97.2617L352.843 103.812L349.407 104.025L348.611 91.1561ZM358.546 108.099L356.897 108.201L356.761 105.995L359.06 105.853C359.834 105.805 360.401 105.933 360.762 106.237C361.108 106.542 361.297 106.973 361.332 107.531L361.573 111.433L358.762 111.607L358.546 108.099ZM356.332 83.8699L359.444 83.6774L359.741 88.4857L356.629 88.6781L356.332 83.8699ZM367.793 103.167C366.462 103.249 365.42 102.879 364.67 102.054C363.934 101.214 363.517 99.9807 363.417 98.3546L362.917 90.2712L366.352 90.0586L366.834 97.8402C366.857 98.2118 366.909 98.5583 366.992 98.8796C367.072 99.1855 367.197 99.4498 367.367 99.6726C367.535 99.8797 367.756 100.045 368.028 100.168C368.314 100.275 368.657 100.316 369.06 100.291C369.339 100.273 369.615 100.217 369.889 100.123C370.177 100.012 370.425 99.8643 370.63 99.6805C370.837 99.4968 371.003 99.2767 371.126 99.0203C371.25 98.764 371.302 98.4732 371.282 98.148L370.766 89.7858L374.202 89.5731L374.833 99.7704L375.97 99.7L376.135 102.371L374.068 102.499C372.675 102.585 371.906 101.832 371.762 100.24L371.599 100.25C371.497 100.614 371.347 100.965 371.151 101.304C370.969 101.626 370.723 101.921 370.414 102.189C370.119 102.456 369.752 102.673 369.312 102.84C368.887 103.022 368.381 103.131 367.793 103.167ZM383.348 102.205C381.659 102.309 380.316 102.066 379.317 101.475C378.315 100.868 377.777 99.9612 377.703 98.7533C377.656 98.0101 377.835 97.3618 378.235 96.8085C378.652 96.2541 379.202 95.847 379.885 95.5872L379.877 95.4479C379.09 95.2944 378.462 94.9523 377.995 94.4217C377.527 93.8909 377.268 93.2386 377.222 92.4643C377.19 91.9688 377.255 91.5139 377.416 91.0998C377.576 90.6701 377.809 90.2982 378.116 89.9839C378.439 89.6685 378.827 89.4191 379.282 89.2355C379.752 89.0355 380.265 88.9183 380.822 88.8838C381.178 88.8619 381.584 88.8755 382.038 88.9253C382.506 88.9584 382.923 89.0648 383.292 89.244L382.724 91.7507C382.532 91.6539 382.341 91.5957 382.154 91.5762C381.981 91.5403 381.795 91.5285 381.593 91.541C381.236 91.5629 380.927 91.6909 380.661 91.925C380.41 92.1426 380.297 92.4527 380.322 92.8553C380.374 93.7071 380.943 94.0994 382.026 94.0323L383.234 93.9577L383.375 96.2341L382.167 96.3087C381.827 96.3298 381.555 96.4632 381.353 96.7088C381.149 96.9391 381.059 97.24 381.082 97.6117L381.11 98.053C381.142 98.5795 381.344 98.9634 381.716 99.2047C382.088 99.4304 382.615 99.5222 383.295 99.48C384.07 99.4322 384.668 99.1853 385.091 98.7394C385.513 98.278 385.699 97.637 385.648 96.8162L385.159 88.8955L388.595 88.6828L389.113 97.045C389.157 97.7728 389.05 98.44 388.793 99.0467C388.55 99.6524 388.179 100.181 387.679 100.631C387.179 101.082 386.564 101.446 385.836 101.725C385.106 101.987 384.277 102.148 383.348 102.205ZM396.388 101.398C395.057 101.481 394.016 101.11 393.266 100.286C392.53 99.4451 392.111 98.2118 392.011 96.5859L391.512 88.5024L394.948 88.2898L395.429 96.0713C395.453 96.4429 395.505 96.7896 395.587 97.1109C395.668 97.4168 395.793 97.6811 395.962 97.9037C396.13 98.111 396.35 98.2761 396.622 98.3992C396.908 98.5059 397.253 98.5468 397.656 98.5218C397.933 98.5046 398.21 98.4486 398.484 98.3539C398.772 98.2429 399.02 98.0955 399.226 97.9117C399.433 97.7279 399.597 97.508 399.722 97.2515C399.845 96.9951 399.898 96.7043 399.877 96.3791L399.36 88.0169L402.797 87.8044L403.427 98.0016L404.565 97.9312L404.73 100.603L402.663 100.73C401.27 100.816 400.501 100.063 400.356 98.4713L400.193 98.4815C400.091 98.8453 399.943 99.1964 399.745 99.535C399.563 99.8572 399.318 100.152 399.008 100.42C398.714 100.687 398.346 100.904 397.906 101.071C397.483 101.253 396.977 101.362 396.388 101.398ZM412.454 100.405C410.518 100.524 408.997 100.059 407.892 99.0079C406.784 97.9416 406.16 96.278 406.021 94.0171C405.887 91.8336 406.124 90.1557 406.736 88.983C407.363 87.8095 408.358 87.1805 409.72 87.0963C410.478 87.0493 411.101 87.2128 411.591 87.5868C412.096 87.9597 412.433 88.5141 412.603 89.2496L412.765 89.2396C412.843 88.4886 413.141 87.8952 413.658 87.4589C414.175 87.0229 414.851 86.7789 415.688 86.7272C416.662 86.6668 417.464 86.9514 418.094 87.581C418.738 88.1939 419.096 89.0889 419.169 90.2658L419.75 99.6733L416.314 99.8859L415.763 90.9663C415.734 90.5017 415.628 90.1584 415.443 89.9368C415.259 89.7149 415.019 89.6133 414.725 89.6315C414.369 89.6534 414.123 89.824 413.986 90.1434C413.851 90.4627 413.768 90.872 413.736 91.3714L411.693 91.4978C411.6 91.006 411.475 90.6096 411.317 90.3085C411.158 90.0075 410.901 89.868 410.545 89.8899C410.127 89.9158 409.838 90.1436 409.678 90.5731C409.534 91.0018 409.486 91.6188 409.535 92.424L409.692 94.9558C409.719 95.374 409.788 95.7506 409.902 96.0854C410.017 96.4204 410.19 96.705 410.421 96.9394C410.668 97.1573 410.981 97.3245 411.362 97.4409C411.74 97.5417 412.217 97.5744 412.79 97.5391C413.053 97.5228 413.313 97.4755 413.573 97.3973L414.137 100.114C413.97 100.186 413.719 100.249 413.38 100.301C413.041 100.353 412.731 100.387 412.454 100.405ZM412.569 83.3059C412.515 82.4387 412.729 81.7648 413.213 81.2841C413.679 80.8044 414.393 80.5349 415.353 80.4755L420.184 80.1768L420.338 82.6854L415.276 82.9986L415.403 85.0427L412.686 85.2106L412.569 83.3059Z" fill="#005FB8"/>
</g>
<g filter="url(#filter2_d_147_763)">
<path d="M510.728 100.398L250.988 151.107C234.436 154.339 223.637 170.381 226.867 186.938C230.098 203.496 246.135 214.299 262.687 211.067L522.426 160.358C538.978 157.126 549.778 141.084 546.547 124.527C543.317 107.97 527.28 97.1668 510.728 100.398Z" fill="white"/>
<path d="M510.868 101.112L251.128 151.821C234.97 154.976 224.428 170.636 227.582 186.799C230.735 202.962 246.39 213.508 262.548 210.353L522.288 159.644C538.446 156.49 548.988 140.83 545.834 124.666C542.681 108.503 527.026 97.9577 510.868 101.112Z" stroke="#005FB8"/>
<path d="M284.449 169.972L287.828 169.312L288.243 171.436L288.356 171.414C288.401 171.073 288.494 170.739 288.635 170.412C288.776 170.083 288.971 169.785 289.218 169.514C289.479 169.226 289.802 168.982 290.19 168.78C290.574 168.563 291.04 168.4 291.589 168.294C292.942 168.029 294.047 168.263 294.902 168.998C295.769 169.713 296.358 170.871 296.669 172.47L298.221 180.419L294.841 181.079L293.348 173.427C293.188 172.605 292.899 172.013 292.48 171.652C292.074 171.273 291.484 171.159 290.707 171.311C290.402 171.37 290.114 171.473 289.844 171.622C289.583 171.751 289.357 171.923 289.16 172.134C288.965 172.346 288.823 172.588 288.733 172.858C288.644 173.129 288.63 173.424 288.692 173.743L290.297 181.967L286.918 182.625L284.449 169.972ZM293.461 164.963C293.767 164.905 293.988 164.783 294.124 164.596C294.263 164.412 294.3 164.16 294.238 163.84L294.193 163.612C294.13 163.292 294.001 163.072 293.805 162.953C293.607 162.833 293.357 162.803 293.051 162.863C292.747 162.922 292.526 163.044 292.388 163.229C292.25 163.414 292.212 163.665 292.275 163.985L292.32 164.214C292.382 164.534 292.512 164.753 292.71 164.873C292.906 164.993 293.158 165.023 293.461 164.963ZM293.832 166.86C293.345 166.954 292.896 166.963 292.486 166.886C292.06 166.81 291.685 166.671 291.36 166.464C291.033 166.244 290.767 165.972 290.561 165.648C290.338 165.312 290.185 164.94 290.105 164.528C290.025 164.116 290.027 163.721 290.111 163.341C290.177 162.95 290.321 162.596 290.545 162.285C290.766 161.956 291.059 161.679 291.424 161.449C291.776 161.222 292.195 161.062 292.682 160.966C293.153 160.874 293.602 160.865 294.028 160.941C294.439 161.018 294.806 161.168 295.135 161.389C295.459 161.594 295.733 161.865 295.957 162.201C296.178 162.521 296.327 162.886 296.407 163.297C296.487 163.709 296.487 164.112 296.407 164.508C296.323 164.887 296.17 165.241 295.949 165.568C295.727 165.881 295.439 166.15 295.089 166.377C294.722 166.607 294.303 166.768 293.832 166.86ZM304.832 170.426C304.719 169.847 304.477 169.421 304.108 169.145C303.753 168.867 303.234 168.794 302.549 168.928C301.894 169.056 301.405 169.302 301.081 169.665C300.754 170.013 300.496 170.396 300.309 170.812L297.952 169.423C298.299 168.611 298.792 167.937 299.43 167.402C300.08 166.848 301.03 166.449 302.279 166.207C303.938 165.882 305.267 166.01 306.264 166.591C307.263 167.169 307.902 168.175 308.181 169.607L309.847 178.15L306.468 178.809L304.832 170.426ZM309.785 168.772L313.072 168.129L317.057 173.968L317.171 173.945C317.704 173.841 318.077 173.532 318.293 173.015C318.508 172.499 318.535 171.83 318.375 171.007L317.965 168.906C317.805 168.083 317.52 167.475 317.112 167.081C316.703 166.687 316.216 166.544 315.653 166.655L314.809 166.819L314.287 164.147L315.201 163.968C316.023 163.808 316.782 163.809 317.477 163.974C318.188 164.135 318.817 164.448 319.367 164.909C319.927 165.353 320.407 165.948 320.805 166.691C321.199 167.421 321.494 168.281 321.686 169.27C321.88 170.26 321.932 171.174 321.843 172.013C321.766 172.835 321.553 173.564 321.204 174.202C320.866 174.82 320.398 175.338 319.799 175.756C319.217 176.17 318.522 176.455 317.715 176.614L315.501 177.046L309.785 168.772ZM329.005 165.708C328.891 165.129 328.65 164.701 328.281 164.426C327.926 164.147 327.407 164.074 326.722 164.208C326.066 164.336 325.577 164.582 325.253 164.945C324.926 165.295 324.669 165.676 324.481 166.092L322.124 164.703C322.472 163.892 322.964 163.219 323.603 162.684C324.253 162.129 325.202 161.731 326.451 161.487C328.11 161.164 329.439 161.292 330.437 161.871C331.434 162.451 332.074 163.456 332.353 164.887L334.02 173.43L330.64 174.09L329.005 165.708ZM340.937 172.365C339.627 172.62 338.546 172.388 337.696 171.67C336.857 170.932 336.281 169.764 335.968 168.166L334.418 160.217L337.797 159.556L339.291 167.209C339.362 167.574 339.458 167.911 339.582 168.218C339.702 168.511 339.861 168.756 340.057 168.956C340.252 169.139 340.492 169.274 340.777 169.36C341.075 169.428 341.421 169.424 341.816 169.347C342.091 169.293 342.357 169.201 342.616 169.072C342.888 168.925 343.113 168.746 343.294 168.537C343.476 168.327 343.609 168.089 343.699 167.818C343.788 167.548 343.803 167.252 343.74 166.932L342.136 158.71L345.516 158.049L347.471 168.077L348.591 167.859L349.103 170.486L347.07 170.883C345.7 171.149 344.839 170.503 344.488 168.944L344.328 168.976C344.275 169.35 344.172 169.718 344.022 170.079C343.884 170.422 343.678 170.746 343.406 171.053C343.148 171.356 342.814 171.619 342.398 171.841C342.003 172.077 341.514 172.252 340.937 172.365ZM354.356 156.323L357.736 155.664L358.15 157.788L358.265 157.766C358.308 157.425 358.402 157.091 358.543 156.764C358.684 156.435 358.878 156.137 359.127 155.866C359.386 155.578 359.71 155.334 360.097 155.132C360.481 154.915 360.948 154.752 361.496 154.646C362.851 154.381 363.955 154.615 364.81 155.35C365.676 156.065 366.265 157.223 366.578 158.822L368.128 166.771L364.749 167.431L363.255 159.779C363.095 158.957 362.806 158.365 362.389 158.004C361.981 157.625 361.391 157.511 360.615 157.663C360.311 157.722 360.023 157.825 359.751 157.974C359.492 158.103 359.264 158.273 359.069 158.486C358.873 158.698 358.73 158.94 358.641 159.21C358.551 159.481 358.538 159.776 358.601 160.095L360.205 168.319L356.825 168.977L354.356 156.323ZM363.369 151.315C363.674 151.257 363.895 151.133 364.033 150.948C364.17 150.764 364.208 150.512 364.145 150.192L364.101 149.964C364.039 149.644 363.91 149.424 363.712 149.305C363.514 149.184 363.264 149.155 362.959 149.215C362.655 149.273 362.434 149.396 362.296 149.581C362.159 149.766 362.121 150.017 362.184 150.337L362.227 150.566C362.29 150.886 362.419 151.105 362.617 151.225C362.815 151.345 363.065 151.375 363.369 151.315ZM363.739 153.212C363.252 153.306 362.803 153.315 362.393 153.236C361.967 153.162 361.593 153.021 361.268 152.816C360.94 152.596 360.674 152.324 360.469 152C360.245 151.664 360.094 151.292 360.013 150.88C359.933 150.468 359.934 150.073 360.018 149.693C360.084 149.3 360.229 148.948 360.452 148.637C360.673 148.308 360.967 148.031 361.333 147.801C361.683 147.574 362.102 147.414 362.589 147.318C363.062 147.226 363.51 147.217 363.936 147.293C364.346 147.37 364.715 147.52 365.042 147.74C365.367 147.946 365.641 148.217 365.864 148.553C366.085 148.873 366.235 149.238 366.316 149.649C366.396 150.061 366.395 150.464 366.315 150.86C366.23 151.239 366.078 151.593 365.858 151.92C365.634 152.233 365.348 152.502 364.996 152.729C364.631 152.959 364.211 153.119 363.739 153.212ZM374.739 156.778C374.627 156.199 374.386 155.773 374.015 155.497C373.662 155.219 373.141 155.146 372.457 155.28C371.802 155.408 371.312 155.654 370.988 156.017C370.661 156.365 370.403 156.748 370.217 157.164L367.86 155.775C368.208 154.963 368.699 154.289 369.338 153.754C369.989 153.2 370.939 152.801 372.186 152.559C373.845 152.234 375.174 152.362 376.172 152.941C377.171 153.521 377.809 154.527 378.088 155.958L379.755 164.502L376.375 165.161L374.739 156.778ZM379.692 155.123L382.981 154.481L386.964 160.32L387.079 160.297C387.611 160.193 387.986 159.884 388.201 159.367C388.416 158.851 388.444 158.182 388.283 157.359L387.873 155.258C387.713 154.435 387.428 153.827 387.019 153.433C386.61 153.039 386.125 152.896 385.561 153.005L384.716 153.171L384.195 150.499L385.108 150.32C385.93 150.16 386.689 150.161 387.386 150.326C388.097 150.487 388.726 150.799 389.274 151.261C389.834 151.705 390.314 152.3 390.712 153.043C391.108 153.773 391.402 154.631 391.595 155.622C391.787 156.611 391.839 157.526 391.751 158.365C391.674 159.187 391.46 159.916 391.111 160.553C390.773 161.172 390.305 161.69 389.708 162.108C389.125 162.522 388.43 162.807 387.623 162.966L385.408 163.398L379.692 155.123ZM398.912 152.06C398.8 151.481 398.559 151.053 398.188 150.778C397.833 150.499 397.314 150.426 396.629 150.56C395.975 150.688 395.485 150.934 395.16 151.297C394.833 151.647 394.576 152.028 394.388 152.444L392.031 151.055C392.379 150.244 392.872 149.571 393.51 149.036C394.161 148.481 395.111 148.083 396.359 147.839C398.018 147.516 399.347 147.642 400.344 148.223C401.343 148.803 401.981 149.808 402.261 151.239L403.927 159.782L400.548 160.442L398.912 152.06ZM410.844 158.717C409.534 158.972 408.455 158.74 407.603 158.022C406.764 157.284 406.188 156.116 405.877 154.516L404.325 146.569L407.705 145.908L409.198 153.561C409.269 153.926 409.367 154.262 409.49 154.57C409.609 154.863 409.768 155.108 409.966 155.308C410.159 155.491 410.399 155.626 410.684 155.712C410.982 155.78 411.328 155.776 411.725 155.699C411.998 155.645 412.265 155.553 412.525 155.424C412.795 155.277 413.022 155.098 413.202 154.889C413.383 154.679 413.518 154.439 413.607 154.17C413.697 153.9 413.71 153.604 413.647 153.284L412.044 145.061L415.423 144.401L417.379 154.429L418.498 154.211L419.01 156.838L416.979 157.233C415.609 157.501 414.747 156.855 414.396 155.296L414.236 155.327C414.183 155.702 414.081 156.068 413.93 156.431C413.791 156.774 413.586 157.098 413.313 157.404C413.057 157.708 412.721 157.971 412.307 158.193C411.91 158.429 411.423 158.604 410.844 158.717ZM424.264 142.675L427.643 142.016L428.057 144.14L428.172 144.118C428.216 143.777 428.309 143.443 428.45 143.115C428.592 142.787 428.786 142.488 429.034 142.218C429.295 141.93 429.617 141.686 430.004 141.483C430.39 141.266 430.855 141.104 431.403 140.997C432.758 140.732 433.863 140.967 434.717 141.702C435.583 142.418 436.172 143.575 436.485 145.174L438.036 153.123L434.656 153.783L433.164 146.131C433.003 145.308 432.713 144.717 432.296 144.356C431.89 143.977 431.298 143.863 430.522 144.015C430.218 144.074 429.93 144.178 429.658 144.325C429.399 144.455 429.173 144.626 428.976 144.838C428.78 145.05 428.637 145.291 428.549 145.562C428.459 145.833 428.445 146.127 428.508 146.447L430.112 154.671L426.733 155.329L424.264 142.675ZM433.277 137.667C433.581 137.608 433.802 137.486 433.94 137.301C434.079 137.116 434.116 136.863 434.054 136.544L434.009 136.315C433.946 135.995 433.817 135.776 433.619 135.656C433.423 135.536 433.171 135.506 432.867 135.566C432.562 135.625 432.341 135.747 432.204 135.932C432.066 136.117 432.028 136.37 432.091 136.69L432.136 136.918C432.197 137.238 432.328 137.457 432.524 137.577C432.722 137.697 432.972 137.727 433.277 137.667ZM433.647 139.563C433.16 139.658 432.712 139.667 432.3 139.589C431.876 139.514 431.5 139.374 431.176 139.168C430.848 138.948 430.581 138.676 430.376 138.352C430.153 138.016 430.001 137.643 429.921 137.232C429.84 136.821 429.843 136.425 429.926 136.045C429.993 135.653 430.137 135.301 430.36 134.988C430.58 134.661 430.874 134.382 431.24 134.153C431.591 133.926 432.009 133.765 432.496 133.67C432.969 133.578 433.418 133.569 433.843 133.644C434.253 133.722 434.622 133.872 434.95 134.092C435.274 134.298 435.549 134.568 435.772 134.904C435.992 135.224 436.143 135.59 436.223 136.001C436.303 136.412 436.303 136.816 436.222 137.211C436.137 137.591 435.986 137.945 435.765 138.272C435.541 138.585 435.255 138.854 434.904 139.081C434.538 139.31 434.119 139.471 433.647 139.563ZM444.648 143.13C444.535 142.551 444.293 142.124 443.924 141.849C443.569 141.57 443.049 141.498 442.364 141.631C441.709 141.759 441.221 142.005 440.897 142.369C440.569 142.717 440.312 143.099 440.125 143.515L437.767 142.126C438.115 141.315 438.608 140.642 439.246 140.106C439.896 139.552 440.846 139.154 442.093 138.91C443.754 138.586 445.081 138.714 446.08 139.294C447.078 139.873 447.716 140.879 447.995 142.31L449.663 150.854L446.283 151.513L444.648 143.13ZM449.601 141.475L452.888 140.833L456.872 146.672L456.986 146.649C457.52 146.545 457.893 146.236 458.108 145.719C458.324 145.202 458.351 144.533 458.191 143.711L457.781 141.609C457.62 140.787 457.335 140.179 456.926 139.784C456.518 139.39 456.032 139.248 455.469 139.358L454.625 139.522L454.103 136.85L455.016 136.672C455.837 136.511 456.596 136.513 457.293 136.678C458.004 136.839 458.633 137.151 459.182 137.613C459.743 138.057 460.221 138.651 460.62 139.395C461.015 140.124 461.309 140.984 461.502 141.974C461.696 142.963 461.747 143.878 461.658 144.717C461.581 145.539 461.368 146.268 461.018 146.905C460.681 147.524 460.212 148.042 459.615 148.46C459.032 148.874 458.337 149.159 457.53 149.318L455.315 149.75L449.601 141.475ZM468.821 138.411C468.707 137.832 468.466 137.405 468.096 137.129C467.742 136.851 467.221 136.778 466.536 136.912C465.882 137.04 465.392 137.286 465.068 137.649C464.742 137.998 464.485 138.38 464.297 138.796L461.94 137.407C462.287 136.596 462.78 135.923 463.419 135.387C464.069 134.833 465.018 134.434 466.266 134.191C467.925 133.867 469.254 133.995 470.253 134.574C471.25 135.154 471.889 136.16 472.168 137.591L473.834 146.134L470.455 146.794L468.821 138.411ZM480.751 145.068C479.443 145.324 478.362 145.092 477.51 144.373C476.671 143.636 476.095 142.468 475.784 140.869L474.233 132.92L477.612 132.26L479.105 139.912C479.176 140.278 479.274 140.614 479.397 140.922C479.518 141.215 479.677 141.46 479.873 141.659C480.066 141.843 480.306 141.978 480.591 142.064C480.889 142.132 481.237 142.128 481.632 142.051C481.906 141.997 482.173 141.906 482.432 141.776C482.704 141.628 482.929 141.45 483.11 141.241C483.29 141.032 483.425 140.792 483.515 140.521C483.604 140.251 483.617 139.956 483.555 139.636L481.951 131.413L485.33 130.753L487.287 140.781L488.405 140.562L488.919 143.189L486.886 143.586C485.516 143.854 484.655 143.207 484.303 141.648L484.144 141.679C484.09 142.053 483.988 142.421 483.837 142.782C483.699 143.125 483.494 143.45 483.222 143.756C482.964 144.059 482.628 144.322 482.214 144.546C481.817 144.781 481.33 144.955 480.751 145.068Z" fill="#005FB8"/>
</g>
<g filter="url(#filter3_d_147_763)">
<path d="M328.825 106.867L189.447 99.147C172.609 98.2144 158.203 111.113 157.271 127.957C156.338 144.801 169.233 159.212 186.071 160.144L325.448 167.864C342.287 168.797 356.693 155.898 357.625 139.054C358.557 122.21 345.663 107.799 328.825 106.867Z" fill="white"/>
<path d="M328.785 107.593L189.408 99.8731C172.97 98.9626 158.907 111.554 157.997 127.997C157.087 144.44 169.674 158.508 186.112 159.418L325.489 167.138C341.927 168.048 355.99 155.457 356.9 139.014C357.81 122.571 345.222 108.503 328.785 107.593Z" stroke="#005FB8"/>
<path d="M220.462 139.02C219.13 138.947 218.139 138.457 217.489 137.551C216.857 136.63 216.586 135.356 216.677 133.729L217.124 125.643L220.562 125.833L220.131 133.618C220.111 133.99 220.123 134.34 220.166 134.669C220.211 134.982 220.304 135.259 220.447 135.5C220.589 135.725 220.789 135.915 221.045 136.069C221.316 136.209 221.652 136.289 222.055 136.312C222.334 136.327 222.615 136.304 222.899 136.242C223.198 136.165 223.461 136.048 223.687 135.889C223.913 135.731 224.102 135.531 224.255 135.291C224.409 135.051 224.495 134.769 224.513 134.443L224.975 126.078L228.414 126.268L227.848 136.469L228.987 136.532L228.84 139.205L226.772 139.09C225.378 139.013 224.702 138.175 224.744 136.577L224.581 136.568C224.438 136.918 224.248 137.249 224.014 137.562C223.796 137.861 223.516 138.125 223.178 138.355C222.853 138.586 222.464 138.758 222.007 138.873C221.565 139.004 221.049 139.053 220.462 139.02ZM225.314 124.115C224.353 124.062 223.637 123.797 223.168 123.321C222.68 122.843 222.462 122.17 222.51 121.303L222.615 119.397L225.333 119.548L225.219 121.593L231.446 121.938L231.306 124.447L225.314 124.115ZM224.15 116.499L225.497 116.574L225.542 115.784C225.554 115.567 225.516 115.409 225.427 115.311C225.325 115.197 225.135 115.132 224.856 115.116L224.229 115.082L224.337 113.13L226.102 113.227C226.753 113.263 227.248 113.431 227.589 113.729C227.914 114.027 228.063 114.424 228.036 114.919C228.018 115.245 227.899 115.557 227.681 115.855C227.463 116.139 227.188 116.349 226.854 116.486L226.845 116.648L230.468 116.849L230.359 118.824L224.041 118.474L224.15 116.499ZM235.116 139.832C233.784 139.758 232.793 139.268 232.145 138.362C231.512 137.441 231.24 136.168 231.331 134.541L231.779 126.455L235.216 126.645L234.786 134.43C234.765 134.801 234.777 135.152 234.82 135.48C234.866 135.794 234.959 136.071 235.101 136.312C235.244 136.537 235.443 136.727 235.699 136.881C235.971 137.02 236.308 137.101 236.711 137.123C236.988 137.139 237.271 137.115 237.553 137.053C237.852 136.977 238.115 136.859 238.341 136.701C238.568 136.543 238.757 136.343 238.911 136.103C239.063 135.863 239.149 135.58 239.167 135.255L239.63 126.89L243.068 127.08L242.504 137.281L243.642 137.344L243.494 140.016L241.426 139.902C240.033 139.825 239.357 138.987 239.398 137.389L239.236 137.38C239.092 137.729 238.903 138.061 238.668 138.374C238.45 138.673 238.171 138.937 237.832 139.167C237.509 139.397 237.118 139.57 236.661 139.684C236.219 139.815 235.705 139.865 235.116 139.832ZM247.235 133.441L245.259 132.516C245.368 131.667 245.613 130.911 245.991 130.249C246.386 129.571 246.883 129.008 247.482 128.56C248.082 128.111 248.777 127.777 249.565 127.556C250.37 127.337 251.237 127.253 252.166 127.304C253.11 127.356 253.947 127.535 254.676 127.839C255.422 128.129 256.044 128.529 256.543 129.038C257.044 129.532 257.415 130.128 257.657 130.825C257.914 131.507 258.02 132.259 257.974 133.08L257.547 140.795L254.109 140.604L254.511 133.331C254.567 132.34 254.354 131.551 253.873 130.965C253.409 130.38 252.689 130.06 251.714 130.006C250.969 129.965 250.318 130.084 249.76 130.364C249.216 130.645 248.807 131.011 248.534 131.462L249.331 131.809C249.876 132.057 250.241 132.325 250.427 132.615C250.613 132.905 250.69 133.329 250.66 133.887L250.299 140.393L246.862 140.203L247.235 133.441ZM250.993 125.841C250.202 125.797 249.581 125.506 249.13 124.968C248.662 124.43 248.454 123.711 248.503 122.812C248.557 121.852 248.893 121.094 249.515 120.538C250.136 119.982 250.965 119.732 252.003 119.79L258.693 120.16L258.581 122.182L251.961 121.815C251.666 121.799 251.436 121.895 251.269 122.103C251.103 122.296 251.01 122.555 250.993 122.881C250.975 123.19 251.032 123.442 251.161 123.636C251.275 123.813 251.464 123.909 251.727 123.923C251.897 123.933 252.039 123.902 252.151 123.83C252.265 123.759 252.355 123.663 252.423 123.543C252.477 123.421 252.524 123.292 252.561 123.154C252.585 123.015 252.601 122.884 252.607 122.76L254.418 122.86C254.436 123.125 254.498 123.401 254.606 123.687C254.715 123.957 254.924 124.101 255.234 124.118C255.436 124.129 255.618 124.061 255.782 123.915C255.931 123.752 256.013 123.516 256.031 123.206L256.064 122.602L258.549 122.74L258.504 123.576C258.455 124.444 258.186 125.097 257.696 125.536C257.191 125.959 256.528 126.147 255.708 126.102C255.506 126.091 255.291 126.055 255.061 125.996C254.831 125.937 254.619 125.847 254.423 125.728C254.213 125.592 254.029 125.426 253.869 125.231C253.694 125.019 253.576 124.764 253.514 124.465L253.399 124.459C253.197 125.023 252.873 125.401 252.426 125.594C251.981 125.787 251.503 125.869 250.993 125.841ZM259.791 131.689L263.135 131.874L265.564 138.512L265.68 138.518C266.222 138.548 266.662 138.339 266.996 137.892C267.332 137.444 267.522 136.802 267.569 135.966L267.688 133.828C267.733 132.991 267.607 132.332 267.307 131.849C267.008 131.366 266.571 131.109 265.999 131.077L265.139 131.03L265.29 128.311L266.22 128.362C267.056 128.409 267.79 128.597 268.425 128.927C269.074 129.258 269.609 129.715 270.026 130.298C270.461 130.866 270.78 131.56 270.983 132.379C271.187 133.183 271.261 134.088 271.206 135.095C271.15 136.102 270.976 137.001 270.684 137.793C270.407 138.57 270.022 139.225 269.526 139.757C269.048 140.274 268.466 140.661 267.784 140.919C267.118 141.177 266.374 141.284 265.554 141.238L263.3 141.113L259.791 131.689ZM279.174 133.438C279.206 132.85 279.078 132.376 278.787 132.018C278.511 131.661 278.025 131.464 277.329 131.425C276.663 131.388 276.128 131.506 275.723 131.779C275.322 132.036 274.979 132.344 274.694 132.701L272.751 130.775C273.286 130.074 273.929 129.543 274.679 129.18C275.446 128.803 276.465 128.65 277.734 128.72C279.423 128.814 280.679 129.264 281.503 130.071C282.329 130.878 282.701 132.01 282.621 133.466L282.14 142.157L278.701 141.967L279.174 133.438ZM289.107 142.822C287.775 142.749 286.784 142.259 286.134 141.353C285.502 140.432 285.232 139.158 285.322 137.532L285.77 129.445L289.207 129.635L288.777 137.42C288.756 137.792 288.768 138.142 288.811 138.471C288.857 138.784 288.95 139.061 289.091 139.302C289.235 139.528 289.434 139.717 289.688 139.871C289.96 140.011 290.297 140.091 290.7 140.114C290.979 140.129 291.26 140.106 291.544 140.044C291.843 139.967 292.105 139.85 292.332 139.691C292.559 139.533 292.748 139.334 292.9 139.093C293.054 138.853 293.14 138.571 293.158 138.245L293.62 129.88L297.059 130.07L296.493 140.271L297.632 140.335L297.483 143.007L295.417 142.892C294.023 142.815 293.347 141.977 293.389 140.379L293.226 140.37C293.082 140.72 292.893 141.051 292.659 141.364C292.441 141.663 292.162 141.927 291.823 142.157C291.499 142.388 291.109 142.56 290.652 142.675C290.21 142.806 289.694 142.855 289.107 142.822Z" fill="#005FB8"/>
</g>
<g filter="url(#filter4_d_147_763)">
<path d="M522.437 155.69L342.137 154.404C325.273 154.284 311.505 167.861 311.385 184.731C311.265 201.6 324.838 215.373 341.702 215.493L522.002 216.779C538.865 216.899 552.634 203.321 552.754 186.452C552.874 169.583 539.301 155.81 522.437 155.69Z" fill="white"/>
<path d="M522.431 156.416L342.131 155.13C325.669 155.013 312.229 168.268 312.111 184.735C311.994 201.203 325.244 214.648 341.706 214.765L522.006 216.051C538.469 216.168 551.909 202.914 552.026 186.446C552.144 169.978 538.894 156.533 522.431 156.416Z" stroke="#005FB8"/>
<path d="M375.871 192.743C374.631 192.733 373.578 192.525 372.711 192.115C371.862 191.706 371.113 191.133 370.468 190.4L372.553 188.413C372.998 188.913 373.507 189.321 374.079 189.635C374.665 189.933 375.324 190.086 376.053 190.09C376.767 190.096 377.287 189.983 377.614 189.753C377.941 189.523 378.107 189.22 378.11 188.848C378.112 188.445 377.982 188.157 377.72 187.984C377.457 187.796 377.102 187.67 376.653 187.604L375.327 187.433C373.918 187.252 372.835 186.833 372.08 186.176C371.34 185.519 370.974 184.608 370.982 183.444C370.987 182.793 371.107 182.212 371.343 181.702C371.596 181.191 371.939 180.759 372.377 180.406C372.829 180.036 373.358 179.761 373.965 179.58C374.587 179.382 375.269 179.286 376.013 179.292C376.634 179.296 377.193 179.347 377.688 179.443C378.184 179.524 378.632 179.651 379.035 179.825C379.452 179.999 379.83 180.211 380.171 180.461C380.509 180.713 380.841 181.002 381.164 181.329L379.126 183.316C378.757 182.911 378.302 182.582 377.76 182.33C377.219 182.077 376.655 181.949 376.064 181.945C375.429 181.94 374.962 182.054 374.667 182.284C374.37 182.515 374.22 182.816 374.218 183.188C374.215 183.561 374.33 183.865 374.561 184.099C374.806 184.317 375.225 184.468 375.814 184.55L377.139 184.746C377.805 184.844 378.392 184.988 378.904 185.177C379.429 185.367 379.87 185.619 380.224 185.932C380.594 186.228 380.871 186.595 381.053 187.031C381.252 187.466 381.35 187.987 381.345 188.592C381.341 189.197 381.204 189.756 380.938 190.265C380.671 190.775 380.296 191.215 379.811 191.584C379.343 191.953 378.767 192.243 378.084 192.455C377.415 192.653 376.678 192.748 375.871 192.743ZM378.094 177.607C377.133 177.6 376.406 177.37 375.913 176.916C375.404 176.464 375.153 175.802 375.16 174.934L375.173 173.025L377.895 173.044L377.88 175.092L384.115 175.137L384.097 177.651L378.094 177.607ZM389.568 192.841C388.67 192.833 387.864 192.704 387.152 192.451C386.44 192.198 385.837 191.844 385.344 191.391C384.851 190.937 384.476 190.384 384.216 189.729C383.957 189.076 383.83 188.353 383.836 187.562L383.893 179.628L387.336 179.651L387.281 187.424C387.275 188.278 387.471 188.938 387.871 189.407C388.287 189.875 388.859 190.112 389.589 190.118C390.317 190.122 390.884 189.894 391.291 189.431C391.698 188.969 391.905 188.311 391.911 187.457L391.966 179.684L395.409 179.709L395.352 187.645C395.347 188.436 395.21 189.156 394.941 189.807C394.673 190.457 394.29 191.004 393.789 191.45C393.291 191.897 392.683 192.241 391.967 192.484C391.252 192.729 390.452 192.847 389.568 192.841ZM398.482 179.731L401.925 179.756L401.91 181.92L402.027 181.921C402.137 181.596 402.294 181.287 402.498 180.993C402.701 180.7 402.951 180.445 403.248 180.231C403.559 180 403.926 179.824 404.344 179.703C404.765 179.567 405.253 179.5 405.812 179.504C407.193 179.514 408.228 179.964 408.92 180.852C409.627 181.727 409.975 182.979 409.963 184.608L409.906 192.705L406.463 192.681L406.518 184.886C406.524 184.048 406.358 183.409 406.02 182.973C405.698 182.521 405.141 182.292 404.35 182.287C404.039 182.284 403.737 182.329 403.441 182.419C403.162 182.495 402.905 182.618 402.671 182.787C402.437 182.956 402.249 183.164 402.108 183.411C401.967 183.658 401.896 183.945 401.893 184.271L401.833 192.649L398.39 192.624L398.482 179.731ZM417.744 193.041C416.502 193.033 415.449 192.823 414.584 192.413C413.733 192.004 412.984 191.433 412.339 190.698L414.424 188.711C414.87 189.212 415.379 189.619 415.951 189.933C416.538 190.231 417.195 190.384 417.925 190.39C418.638 190.394 419.158 190.282 419.486 190.051C419.813 189.821 419.979 189.52 419.981 189.148C419.984 188.743 419.854 188.455 419.592 188.284C419.329 188.095 418.974 187.968 418.524 187.904L417.2 187.731C415.789 187.551 414.706 187.132 413.951 186.474C413.211 185.817 412.845 184.908 412.854 183.744C412.858 183.092 412.979 182.511 413.216 182C413.467 181.491 413.812 181.059 414.248 180.704C414.7 180.336 415.23 180.06 415.836 179.878C416.458 179.681 417.14 179.585 417.885 179.59C418.506 179.594 419.064 179.645 419.56 179.741C420.056 179.823 420.503 179.951 420.906 180.124C421.324 180.297 421.702 180.509 422.042 180.761C422.381 181.011 422.712 181.3 423.036 181.629L420.998 183.616C420.629 183.209 420.173 182.88 419.633 182.628C419.09 182.377 418.526 182.247 417.936 182.244C417.3 182.239 416.835 182.352 416.538 182.583C416.242 182.813 416.092 183.116 416.089 183.488C416.087 183.86 416.201 184.163 416.432 184.397C416.678 184.617 417.097 184.767 417.685 184.848L419.01 185.044C419.676 185.142 420.265 185.286 420.775 185.476C421.3 185.665 421.741 185.917 422.096 186.23C422.466 186.527 422.743 186.895 422.926 187.329C423.124 187.766 423.221 188.287 423.217 188.892C423.212 189.497 423.077 190.054 422.81 190.564C422.542 191.073 422.167 191.513 421.683 191.882C421.215 192.252 420.639 192.543 419.955 192.755C419.286 192.951 418.549 193.047 417.744 193.041ZM431.434 184.319C431.438 183.728 431.285 183.263 430.979 182.918C430.686 182.575 430.19 182.401 429.493 182.396C428.825 182.391 428.297 182.535 427.908 182.826C427.518 183.104 427.189 183.427 426.923 183.798L424.889 181.968C425.391 181.242 426.007 180.679 426.739 180.282C427.486 179.868 428.497 179.665 429.767 179.676C431.458 179.687 432.735 180.076 433.599 180.842C434.461 181.609 434.889 182.721 434.877 184.18L434.816 192.883L431.373 192.86L431.434 184.319ZM443.504 193.225C442.604 193.219 441.798 193.088 441.087 192.835C440.376 192.582 439.773 192.228 439.28 191.775C438.787 191.322 438.41 190.768 438.152 190.115C437.893 189.462 437.766 188.739 437.772 187.948L437.829 180.012L441.272 180.036L441.217 187.809C441.209 188.662 441.407 189.324 441.807 189.792C442.223 190.26 442.794 190.497 443.523 190.502C444.253 190.508 444.82 190.278 445.227 189.815C445.633 189.353 445.839 188.695 445.846 187.841L445.902 180.07L449.345 180.093L449.288 188.029C449.282 188.82 449.146 189.542 448.877 190.191C448.609 190.841 448.225 191.389 447.725 191.836C447.225 192.282 446.619 192.627 445.903 192.87C445.188 193.113 444.388 193.231 443.504 193.225ZM452.241 185.305C452.247 184.467 452.4 183.715 452.699 183.05C452.999 182.385 453.421 181.814 453.967 181.337C454.514 180.86 455.176 180.5 455.952 180.257C456.746 179.999 457.63 179.873 458.607 179.881C459.584 179.888 460.46 180.026 461.233 180.295C462.023 180.548 462.687 180.918 463.227 181.404C463.766 181.888 464.181 182.465 464.47 183.135C464.761 183.804 464.902 184.557 464.896 185.395L464.842 193.098L461.399 193.073L461.453 185.533C461.459 184.602 461.209 183.887 460.7 183.386C460.192 182.871 459.488 182.609 458.588 182.604C457.688 182.596 456.982 182.848 456.465 183.356C455.951 183.849 455.689 184.561 455.683 185.492L455.663 188.262H455.779C455.843 187.921 455.955 187.596 456.112 187.287C456.269 186.963 456.473 186.676 456.723 186.431C456.989 186.183 457.3 185.993 457.658 185.855C458.016 185.702 458.434 185.628 458.916 185.631L459.52 185.635L459.497 188.847L458.636 188.841C457.629 188.833 456.876 188.96 456.377 189.22C455.894 189.481 455.651 189.968 455.645 190.682L455.629 193.033L452.186 193.008L452.241 185.305ZM472.678 193.433C471.438 193.424 470.384 193.215 469.519 192.806C468.668 192.396 467.921 191.824 467.274 191.091L469.359 189.104C469.805 189.603 470.314 190.01 470.885 190.324C471.473 190.624 472.132 190.775 472.86 190.781C473.573 190.785 474.093 190.673 474.422 190.444C474.749 190.212 474.913 189.911 474.916 189.539C474.919 189.136 474.79 188.848 474.526 188.675C474.265 188.487 473.908 188.361 473.459 188.295L472.135 188.122C470.724 187.942 469.641 187.523 468.886 186.865C468.146 186.209 467.781 185.299 467.788 184.135C467.794 183.484 467.913 182.903 468.15 182.393C468.402 181.882 468.747 181.45 469.183 181.097C469.635 180.727 470.164 180.452 470.771 180.271C471.393 180.073 472.076 179.977 472.821 179.983C473.44 179.987 473.999 180.036 474.494 180.134C474.99 180.215 475.44 180.342 475.841 180.515C476.258 180.689 476.638 180.902 476.977 181.152C477.317 181.402 477.647 181.692 477.971 182.02L475.933 184.007C475.563 183.601 475.108 183.273 474.567 183.02C474.026 182.768 473.461 182.64 472.872 182.636C472.235 182.631 471.77 182.743 471.473 182.975C471.176 183.206 471.027 183.507 471.025 183.879C471.022 184.252 471.136 184.554 471.367 184.79C471.614 185.008 472.031 185.158 472.62 185.241L473.945 185.436C474.611 185.533 475.2 185.677 475.71 185.868C476.236 186.057 476.676 186.308 477.03 186.621C477.401 186.919 477.677 187.286 477.861 187.721C478.058 188.157 478.156 188.678 478.151 189.283C478.147 189.888 478.012 190.445 477.744 190.956C477.477 191.466 477.102 191.905 476.619 192.273C476.151 192.643 475.575 192.934 474.89 193.146C474.223 193.343 473.484 193.439 472.678 193.433ZM474.902 178.298C473.94 178.291 473.212 178.061 472.719 177.607C472.21 177.153 471.96 176.493 471.966 175.623L471.979 173.715L474.701 173.735L474.686 175.783L480.921 175.827L480.904 178.34L474.902 178.298ZM486.376 193.53C485.476 193.524 484.67 193.395 483.959 193.14C483.247 192.887 482.645 192.534 482.152 192.081C481.659 191.628 481.282 191.073 481.023 190.42C480.764 189.767 480.638 189.044 480.642 188.253L480.699 180.317L484.142 180.342L484.087 188.115C484.081 188.969 484.277 189.629 484.679 190.097C485.093 190.566 485.666 190.803 486.395 190.807C487.123 190.813 487.692 190.585 488.097 190.122C488.504 189.66 488.711 189.001 488.717 188.148L488.772 180.375L492.215 180.4L492.159 188.336C492.153 189.127 492.016 189.847 491.748 190.497C491.479 191.146 491.096 191.695 490.597 192.141C490.097 192.588 489.489 192.932 488.773 193.175C488.059 193.418 487.26 193.537 486.376 193.53Z" fill="#005FB8"/>
</g>
<g filter="url(#filter5_d_147_763)">
<path d="M178.85 149.823H30.5354C13.6712 149.823 0 163.498 0 180.368C0 197.238 13.6712 210.913 30.5354 210.913H178.85C195.715 210.913 209.386 197.238 209.386 180.368C209.386 163.498 195.715 149.823 178.85 149.823Z" fill="#005FB8"/>
<path d="M178.85 150.55H30.5355C14.0727 150.55 0.727051 163.9 0.727051 180.368C0.727051 196.836 14.0727 210.186 30.5355 210.186H178.85C195.313 210.186 208.659 196.836 208.659 180.368C208.659 163.9 195.313 150.55 178.85 150.55Z" stroke="#005FB8"/>
<path d="M58.4419 178.425H61.7921L64.5839 184.918H64.7002C65.243 184.918 65.6696 184.685 65.9798 184.22C66.2899 183.754 66.4451 183.103 66.4451 182.265V180.124C66.4451 179.286 66.2822 178.634 65.9565 178.169C65.6308 177.703 65.1811 177.471 64.6071 177.471H63.7463V174.748H64.6769C65.5145 174.748 66.259 174.895 66.9104 175.19C67.5774 175.484 68.1357 175.911 68.5855 176.47C69.0508 177.012 69.4075 177.687 69.6557 178.495C69.9039 179.286 70.0279 180.185 70.0279 181.194C70.0279 182.202 69.9039 183.11 69.6557 183.917C69.423 184.708 69.074 185.383 68.6087 185.942C68.159 186.484 67.6006 186.903 66.9337 187.199C66.2822 187.492 65.5455 187.641 64.7235 187.641H62.4668L58.4419 178.425ZM77.8924 179.1C77.8924 178.509 77.7374 178.044 77.4271 177.703C77.1325 177.361 76.6361 177.191 75.9381 177.191C75.2713 177.191 74.7439 177.338 74.3561 177.633C73.9684 177.913 73.6427 178.239 73.379 178.611L71.3316 176.796C71.828 176.065 72.4406 175.5 73.1696 175.097C73.914 174.678 74.9223 174.468 76.194 174.468C77.8847 174.468 79.1643 174.848 80.0328 175.609C80.9014 176.368 81.3356 177.478 81.3356 178.937V187.641H77.8924V179.1ZM88.3281 187.92C86.9943 187.92 85.9783 187.485 85.2804 186.617C84.598 185.732 84.2567 184.476 84.2567 182.847V174.748H87.6999V182.544C87.6999 182.916 87.7309 183.265 87.793 183.591C87.8551 183.901 87.9636 184.173 88.1187 184.406C88.2738 184.623 88.4832 184.801 88.7469 184.941C89.026 185.065 89.3673 185.127 89.7705 185.127C90.0497 185.127 90.3289 185.088 90.6081 185.011C90.9028 184.918 91.1587 184.785 91.3758 184.615C91.5929 184.444 91.7713 184.234 91.9109 183.987C92.0505 183.738 92.1203 183.452 92.1203 183.126V174.748H95.5635V184.964H96.7035V187.641H94.6329C93.237 187.641 92.5158 186.841 92.4693 185.244H92.3064C92.1824 185.6 92.0117 185.942 91.7946 186.268C91.5929 186.577 91.3293 186.857 91.0036 187.105C90.6934 187.353 90.3133 187.548 89.8636 187.687C89.4292 187.841 88.9174 187.92 88.3281 187.92ZM99.0734 174.748H102.517V178.332L105.471 177.936C105.921 177.873 106.239 177.727 106.425 177.494C106.627 177.245 106.759 176.842 106.821 176.284L106.983 174.748H110.543L110.38 176.4C110.303 177.113 110.023 177.727 109.543 178.239C109.062 178.735 108.372 179.021 107.472 179.1V179.216C108.061 179.309 108.534 179.51 108.891 179.821C109.248 180.131 109.527 180.496 109.729 180.915C109.946 181.318 110.093 181.744 110.171 182.195C110.264 182.644 110.326 183.047 110.357 183.405L110.752 187.641H107.216L106.867 183.172C106.805 182.365 106.596 181.753 106.239 181.334C105.882 180.899 105.386 180.72 104.75 180.799L102.517 181.078V187.641H99.0734V174.748ZM117.152 187.873C115.911 187.873 114.918 187.571 114.174 186.966C113.445 186.345 113.081 185.383 113.081 184.08C113.081 182.87 113.43 181.93 114.127 181.264C114.825 180.596 115.834 180.263 117.152 180.263H120.991V179.588C120.991 178.812 120.781 178.223 120.363 177.82C119.959 177.401 119.292 177.191 118.362 177.191C117.912 177.191 117.516 177.245 117.175 177.354C116.834 177.462 116.524 177.61 116.245 177.796C115.965 177.967 115.717 178.169 115.5 178.401C115.283 178.618 115.089 178.851 114.918 179.1L112.732 177.191C113.321 176.353 114.065 175.693 114.965 175.213C115.864 174.716 117.074 174.468 118.594 174.468C120.533 174.468 121.991 174.895 122.968 175.748C123.945 176.586 124.434 177.827 124.434 179.472V187.641H120.991V182.451H118.385C117.175 182.451 116.57 182.947 116.57 183.94V184.336C116.57 184.816 116.694 185.204 116.943 185.5C117.191 185.779 117.555 185.919 118.036 185.919C118.129 185.919 118.222 185.919 118.315 185.919C118.408 185.919 118.501 185.903 118.594 185.872L118.827 187.71C118.749 187.741 118.641 187.764 118.501 187.78C118.377 187.811 118.23 187.827 118.059 187.827C117.904 187.841 117.741 187.85 117.571 187.85C117.416 187.865 117.276 187.873 117.152 187.873ZM131.567 187.92C130.854 187.92 130.179 187.834 129.543 187.664C128.907 187.492 128.341 187.229 127.845 186.873L129.124 184.452C129.388 184.623 129.698 184.793 130.055 184.964C130.412 185.119 130.854 185.197 131.381 185.197C132.125 185.197 132.684 184.948 133.056 184.452C133.444 183.94 133.638 183.257 133.638 182.404V180.007C133.638 179.153 133.452 178.471 133.079 177.959C132.707 177.447 132.149 177.191 131.404 177.191C130.737 177.191 130.21 177.369 129.822 177.727C129.435 178.083 129.179 178.518 129.054 179.03L126.263 177.82C126.65 176.764 127.294 175.942 128.194 175.353C129.109 174.762 130.233 174.468 131.567 174.468C132.482 174.468 133.289 174.631 133.987 174.957C134.7 175.267 135.297 175.716 135.778 176.307C136.259 176.88 136.623 177.578 136.872 178.401C137.12 179.223 137.244 180.147 137.244 181.171C137.244 182.195 137.12 183.126 136.872 183.964C136.623 184.801 136.259 185.514 135.778 186.105C135.297 186.678 134.7 187.129 133.987 187.455C133.289 187.764 132.482 187.92 131.567 187.92ZM138.461 178.425H141.811L144.603 184.918H144.719C145.262 184.918 145.689 184.685 145.999 184.22C146.31 183.754 146.464 183.103 146.464 182.265V180.124C146.464 179.286 146.301 178.634 145.975 178.169C145.65 177.703 145.2 177.471 144.626 177.471H143.766V174.748H144.696C145.533 174.748 146.278 174.895 146.929 175.19C147.597 175.484 148.155 175.911 148.604 176.47C149.07 177.012 149.427 177.687 149.674 178.495C149.923 179.286 150.047 180.185 150.047 181.194C150.047 182.202 149.923 183.11 149.674 183.917C149.442 184.708 149.093 185.383 148.628 185.942C148.178 186.484 147.62 186.903 146.952 187.199C146.301 187.492 145.565 187.641 144.743 187.641H142.486L138.461 178.425Z" fill="white"/>
</g>
<g filter="url(#filter6_d_147_763)">
<path d="M337.502 146.191L173.327 152.851C156.477 153.535 143.371 167.753 144.054 184.609C144.738 201.465 158.952 214.575 175.802 213.892L339.977 207.231C356.827 206.548 369.933 192.329 369.25 175.473C368.566 158.617 354.352 145.507 337.502 146.191Z" fill="white"/>
<path d="M337.531 146.917L173.357 153.577C156.907 154.245 144.114 168.125 144.781 184.579C145.448 201.034 159.323 213.832 175.772 213.165L339.947 206.504C356.396 205.837 369.19 191.957 368.523 175.502C367.856 159.048 353.981 146.25 337.531 146.917Z" stroke="#005FB8"/>
<path d="M202.366 180.297L205.713 180.161L208.766 186.535L208.883 186.531C209.425 186.509 209.841 186.259 210.132 185.782C210.424 185.303 210.552 184.646 210.519 183.809L210.431 181.67C210.398 180.832 210.209 180.188 209.864 179.737C209.52 179.284 209.062 179.071 208.487 179.094L207.628 179.129L207.517 176.407L208.447 176.369C209.284 176.336 210.034 176.452 210.696 176.721C211.375 176.989 211.949 177.392 212.422 177.932C212.909 178.455 213.293 179.116 213.574 179.911C213.853 180.692 214.014 181.587 214.055 182.593C214.096 183.601 214.008 184.513 213.793 185.329C213.592 186.129 213.271 186.819 212.829 187.395C212.402 187.956 211.861 188.397 211.206 188.719C210.568 189.04 209.837 189.217 209.015 189.251L206.761 189.343L202.366 180.297ZM221.828 180.182C221.804 179.593 221.631 179.135 221.306 178.806C220.998 178.477 220.495 178.327 219.798 178.355C219.131 178.383 218.61 178.551 218.235 178.861C217.859 179.155 217.546 179.494 217.299 179.878L215.179 178.147C215.646 177.398 216.235 176.807 216.947 176.374C217.674 175.926 218.673 175.676 219.944 175.623C221.632 175.555 222.926 175.884 223.825 176.608C224.723 177.332 225.203 178.423 225.261 179.881L225.615 188.577L222.174 188.717L221.828 180.182ZM232.612 188.573C231.28 188.627 230.247 188.234 229.515 187.393C228.796 186.538 228.405 185.296 228.338 183.668L228.011 175.577L231.451 175.437L231.767 183.226C231.781 183.599 231.826 183.946 231.902 184.269C231.976 184.576 232.097 184.844 232.261 185.071C232.424 185.28 232.641 185.45 232.91 185.58C233.195 185.692 233.538 185.74 233.941 185.724C234.22 185.712 234.496 185.663 234.772 185.574C235.063 185.469 235.313 185.327 235.524 185.148C235.734 184.967 235.904 184.751 236.033 184.497C236.163 184.244 236.221 183.955 236.208 183.629L235.867 175.257L239.308 175.117L239.722 185.327L240.861 185.28L240.97 187.953L238.901 188.038C237.506 188.095 236.753 187.325 236.642 185.731L236.479 185.737C236.369 186.099 236.213 186.447 236.008 186.781C235.821 187.1 235.568 187.389 235.252 187.651C234.953 187.911 234.58 188.121 234.137 188.278C233.71 188.451 233.201 188.548 232.612 188.573ZM248.114 187.943C246.875 187.994 245.812 187.836 244.928 187.468C244.06 187.1 243.285 186.563 242.604 185.862L244.592 183.777C245.061 184.256 245.589 184.637 246.175 184.925C246.776 185.196 247.44 185.316 248.169 185.286C248.883 185.257 249.396 185.12 249.713 184.874C250.028 184.628 250.18 184.32 250.164 183.948C250.148 183.545 250.004 183.263 249.733 183.103C249.463 182.928 249.102 182.819 248.65 182.774L247.318 182.666C245.9 182.553 244.8 182.185 244.013 181.565C243.244 180.944 242.835 180.052 242.787 178.89C242.761 178.239 242.854 177.652 243.065 177.132C243.293 176.609 243.616 176.161 244.035 175.788C244.47 175.398 244.986 175.097 245.582 174.887C246.194 174.66 246.872 174.531 247.616 174.502C248.236 174.476 248.795 174.5 249.296 174.573C249.794 174.63 250.248 174.736 250.658 174.89C251.084 175.044 251.472 175.238 251.823 175.472C252.173 175.706 252.519 175.98 252.857 176.292L250.915 178.374C250.527 177.985 250.058 177.679 249.505 177.453C248.953 177.226 248.383 177.126 247.794 177.149C247.158 177.175 246.697 177.311 246.412 177.555C246.127 177.799 245.992 178.108 246.008 178.48C246.023 178.851 246.151 179.149 246.393 179.372C246.649 179.58 247.074 179.709 247.666 179.763L248.999 179.895C249.669 179.961 250.263 180.077 250.782 180.243C251.317 180.407 251.769 180.637 252.137 180.932C252.521 181.212 252.815 181.565 253.018 181.991C253.238 182.417 253.36 182.932 253.385 183.537C253.409 184.143 253.299 184.705 253.057 185.228C252.814 185.75 252.46 186.207 251.994 186.598C251.545 186.989 250.984 187.308 250.311 187.552C249.652 187.78 248.921 187.911 248.114 187.943ZM261.373 178.579C261.35 177.99 261.175 177.53 260.851 177.201C260.543 176.873 260.041 176.723 259.343 176.751C258.677 176.778 258.157 176.947 257.78 177.257C257.405 177.552 257.092 177.889 256.844 178.273L254.725 176.543C255.19 175.793 255.781 175.203 256.492 174.769C257.219 174.321 258.218 174.071 259.489 174.019C261.178 173.951 262.472 174.279 263.371 175.004C264.27 175.728 264.748 176.819 264.808 178.276L265.16 186.973L261.719 187.113L261.373 178.579ZM273.994 186.895C273.08 186.931 272.254 186.841 271.515 186.621C270.777 186.403 270.143 186.08 269.613 185.651C269.083 185.222 268.665 184.688 268.36 184.048C268.071 183.408 267.909 182.692 267.877 181.901L267.556 173.972L270.996 173.833L271.312 181.599C271.347 182.451 271.582 183.103 272.02 183.551C272.472 183.997 273.093 184.205 273.884 184.173C274.674 184.141 275.27 183.884 275.668 183.402C276.084 182.919 276.274 182.252 276.24 181.399L276.216 180.817L274.868 180.873C273.24 180.938 272.398 180.273 272.343 178.879L272.279 177.321L274.929 177.213L274.983 178.538L276.122 178.492L275.924 173.632L279.364 173.492L279.562 178.353L281.05 178.292L281.144 180.618L279.657 180.678L279.687 181.423C279.719 182.212 279.609 182.94 279.356 183.601C279.119 184.263 278.754 184.829 278.261 185.3C277.768 185.77 277.161 186.144 276.443 186.422C275.725 186.7 274.909 186.857 273.994 186.895ZM284.709 190.023C285.162 189.306 285.735 188.716 286.43 188.253C287.142 187.805 287.986 187.561 288.961 187.521C289.922 187.482 290.681 187.638 291.24 187.988C291.813 188.352 292.237 188.855 292.512 189.497L292.65 189.491L292.208 178.585C292.167 177.577 291.896 176.812 291.394 176.289C290.891 175.75 290.151 175.501 289.175 175.54C288.43 175.571 287.802 175.751 287.288 176.083C286.789 176.413 286.433 176.809 286.217 177.267L287.045 177.561C287.612 177.754 288.002 177.987 288.214 178.257C288.426 178.529 288.544 178.944 288.567 179.501L288.695 182.663C288.739 183.75 288.494 184.589 287.959 185.185C287.44 185.782 286.591 186.103 285.413 186.151L284.251 186.198L284.142 183.524L285.282 183.478L285.117 179.385L283.061 178.653C283.088 177.798 283.258 177.023 283.572 176.327C283.885 175.616 284.31 175.008 284.849 174.505C285.402 174.001 286.053 173.601 286.802 173.308C287.551 173.014 288.382 172.848 289.297 172.81C290.242 172.772 291.1 172.87 291.869 173.103C292.64 173.335 293.299 173.68 293.844 174.14C294.391 174.583 294.817 175.14 295.124 175.811C295.429 176.467 295.599 177.197 295.631 178.004L296.179 191.537L293.134 191.661C292.881 191.174 292.516 190.755 292.035 190.401C291.571 190.047 290.966 189.885 290.223 189.916C289.495 189.945 288.859 190.157 288.317 190.551C287.789 190.945 287.427 191.395 287.229 191.901L284.709 190.023ZM303.8 185.684C302.56 185.735 301.498 185.577 300.614 185.209C299.746 184.839 298.971 184.304 298.29 183.603L300.278 181.519C300.748 181.997 301.276 182.378 301.862 182.666C302.462 182.937 303.127 183.057 303.855 183.027C304.568 182.998 305.082 182.861 305.398 182.615C305.715 182.369 305.865 182.061 305.85 181.689C305.834 181.286 305.69 181.004 305.42 180.844C305.149 180.669 304.787 180.559 304.335 180.515L303.005 180.406C301.587 180.294 300.485 179.926 299.699 179.306C298.929 178.685 298.52 177.793 298.474 176.631C298.448 175.98 298.539 175.393 298.751 174.873C298.978 174.351 299.303 173.903 299.721 173.529C300.156 173.139 300.671 172.838 301.268 172.627C301.881 172.401 302.558 172.272 303.301 172.243C303.922 172.217 304.482 172.241 304.981 172.314C305.479 172.371 305.935 172.477 306.345 172.631C306.769 172.785 307.157 172.979 307.509 173.213C307.86 173.447 308.204 173.721 308.543 174.032L306.602 176.115C306.214 175.727 305.744 175.42 305.191 175.194C304.639 174.967 304.068 174.867 303.479 174.89C302.843 174.916 302.384 175.052 302.099 175.296C301.814 175.54 301.678 175.849 301.693 176.221C301.709 176.592 301.837 176.89 302.078 177.113C302.336 177.321 302.76 177.45 303.352 177.504L304.684 177.636C305.354 177.702 305.949 177.818 306.468 177.984C307.003 178.148 307.454 178.378 307.823 178.673C308.207 178.953 308.501 179.306 308.705 179.732C308.924 180.159 309.045 180.673 309.069 181.279C309.094 181.884 308.985 182.447 308.742 182.969C308.5 183.491 308.146 183.948 307.681 184.339C307.23 184.73 306.669 185.049 305.996 185.293C305.338 185.521 304.606 185.652 303.8 185.684ZM302.27 168.673C302.235 167.805 302.464 167.136 302.958 166.666C303.435 166.196 304.155 165.942 305.116 165.903L309.951 165.708L310.052 168.218L304.985 168.423L305.068 170.47L302.347 170.58L302.27 168.673Z" fill="#005FB8"/>
</g>
<g filter="url(#filter7_d_147_763)">
<path d="M218.416 74.6653L79.8514 91.5678C63.1112 93.6098 51.1954 108.84 53.2367 125.586C55.2781 142.332 70.5036 154.251 87.2438 152.209L225.808 135.307C242.548 133.265 254.464 118.034 252.423 101.289C250.381 84.5429 235.156 72.6232 218.416 74.6653Z" fill="white"/>
<path d="M218.504 75.3872L79.9396 92.2897C63.5979 94.2831 51.9658 109.151 53.9585 125.498C55.9513 141.845 70.8143 153.481 87.156 151.488L225.72 134.585C242.062 132.592 253.694 117.724 251.701 101.377C249.708 85.0297 234.845 73.3938 218.504 75.3872Z" stroke="#005FB8"/>
<path d="M117.379 125.367C116.055 125.528 114.994 125.22 114.196 124.442C113.411 123.647 112.92 122.441 112.723 120.824L111.743 112.784L115.161 112.367L116.105 120.107C116.15 120.476 116.223 120.819 116.324 121.135C116.423 121.435 116.563 121.692 116.746 121.904C116.926 122.101 117.155 122.252 117.434 122.359C117.726 122.449 118.072 122.469 118.473 122.42C118.75 122.386 119.022 122.314 119.29 122.203C119.571 122.075 119.809 121.913 120.004 121.717C120.199 121.522 120.351 121.292 120.459 121.029C120.568 120.766 120.602 120.472 120.563 120.149L119.549 111.832L122.967 111.415L124.203 121.557L125.335 121.419L125.659 124.076L123.603 124.326C122.218 124.495 121.405 123.789 121.165 122.209L121.004 122.228C120.924 122.598 120.796 122.957 120.62 123.307C120.457 123.639 120.229 123.949 119.936 124.234C119.658 124.518 119.304 124.757 118.875 124.95C118.462 125.157 117.964 125.295 117.379 125.367ZM119.537 109.841C118.582 109.957 117.831 109.822 117.284 109.436C116.722 109.051 116.388 108.428 116.283 107.565L116.052 105.671L118.754 105.341L119.002 107.374L125.191 106.619L125.495 109.114L119.537 109.841ZM117.054 102.548L118.393 102.384L118.297 101.599C118.271 101.383 118.206 101.235 118.103 101.153C117.982 101.059 117.783 101.028 117.505 101.062L116.882 101.138L116.645 99.1977L118.401 98.9836C119.047 98.9048 119.564 98.9823 119.952 99.2163C120.325 99.4523 120.541 99.8166 120.601 100.309C120.641 100.633 120.579 100.961 120.417 101.293C120.252 101.61 120.018 101.865 119.713 102.059L119.733 102.221L123.335 101.781L123.575 103.745L117.293 104.511L117.054 102.548ZM131.948 123.59C130.624 123.751 129.563 123.443 128.765 122.665C127.98 121.87 127.489 120.664 127.292 119.047L126.312 111.007L129.73 110.59L130.674 118.329C130.719 118.699 130.792 119.042 130.893 119.358C130.992 119.658 131.133 119.915 131.315 120.127C131.495 120.324 131.724 120.475 132.003 120.582C132.295 120.671 132.641 120.692 133.042 120.643C133.319 120.609 133.591 120.537 133.859 120.426C134.14 120.298 134.378 120.136 134.573 119.94C134.768 119.744 134.92 119.515 135.028 119.252C135.137 118.988 135.171 118.695 135.132 118.372L134.118 110.055L137.536 109.638L138.772 119.78L139.904 119.642L140.228 122.298L138.172 122.549C136.787 122.718 135.974 122.012 135.735 120.432L135.573 120.451C135.493 120.821 135.365 121.18 135.189 121.53C135.026 121.862 134.798 122.171 134.505 122.457C134.227 122.741 133.873 122.98 133.444 123.173C133.031 123.379 132.533 123.518 131.948 123.59ZM142.756 115.167L140.649 114.604C140.607 113.749 140.714 112.963 140.97 112.244C141.24 111.507 141.63 110.866 142.142 110.319C142.653 109.772 143.278 109.321 144.016 108.965C144.769 108.607 145.608 108.372 146.531 108.259C147.47 108.145 148.325 108.173 149.096 108.345C149.881 108.5 150.564 108.783 151.146 109.197C151.725 109.595 152.196 110.116 152.555 110.76C152.929 111.387 153.164 112.108 153.265 112.924L154.2 120.594L150.781 121.011L149.9 113.78C149.779 112.795 149.432 112.055 148.856 111.563C148.296 111.069 147.531 110.881 146.561 110.999C145.821 111.089 145.202 111.321 144.7 111.695C144.214 112.067 143.876 112.499 143.686 112.991L144.531 113.192C145.112 113.34 145.519 113.541 145.753 113.794C145.987 114.046 146.138 114.45 146.205 115.005L146.993 121.473L143.576 121.89L142.756 115.167ZM145.119 107.025C144.334 107.121 143.671 106.944 143.132 106.494C142.578 106.046 142.246 105.375 142.137 104.482C142.02 103.527 142.219 102.721 142.733 102.064C143.247 101.408 144.019 101.017 145.051 100.891L151.702 100.079L151.947 102.089L145.365 102.892C145.072 102.928 144.862 103.063 144.735 103.297C144.605 103.516 144.56 103.787 144.6 104.111C144.637 104.419 144.736 104.657 144.897 104.825C145.041 104.979 145.244 105.04 145.506 105.008C145.676 104.988 145.81 104.932 145.907 104.842C146.006 104.752 146.079 104.642 146.125 104.511C146.156 104.382 146.179 104.246 146.192 104.104C146.191 103.964 146.183 103.832 146.167 103.709L147.969 103.489C148.031 103.747 148.142 104.007 148.299 104.269C148.453 104.516 148.686 104.621 148.993 104.583C149.193 104.559 149.36 104.46 149.496 104.287C149.613 104.101 149.654 103.854 149.616 103.546L149.544 102.945L152.014 102.644L152.116 103.475C152.221 104.338 152.071 105.028 151.665 105.547C151.242 106.051 150.623 106.354 149.807 106.453C149.606 106.478 149.388 106.481 149.153 106.463C148.916 106.445 148.69 106.394 148.476 106.311C148.247 106.214 148.036 106.083 147.844 105.919C147.634 105.741 147.473 105.511 147.361 105.228L147.245 105.242C147.146 105.832 146.893 106.262 146.489 106.53C146.083 106.798 145.626 106.963 145.119 107.025ZM154.807 111.236L158.133 110.83L161.691 116.937L161.806 116.923C162.345 116.857 162.739 116.575 162.991 116.075C163.242 115.575 163.318 114.91 163.216 114.078L162.957 111.953C162.856 111.121 162.616 110.494 162.236 110.071C161.857 109.649 161.381 109.472 160.813 109.542L159.958 109.646L159.628 106.943L160.552 106.83C161.384 106.729 162.14 106.785 162.822 106.999C163.52 107.211 164.127 107.567 164.64 108.067C165.168 108.549 165.604 109.176 165.947 109.947C166.29 110.702 166.521 111.581 166.644 112.582C166.766 113.583 166.753 114.499 166.604 115.33C166.469 116.143 166.204 116.855 165.809 117.466C165.429 118.06 164.925 118.543 164.3 118.917C163.687 119.288 162.975 119.524 162.158 119.623L159.918 119.896L154.807 111.236ZM174.197 109.55C174.126 108.965 173.915 108.522 173.566 108.221C173.232 107.917 172.719 107.808 172.026 107.893C171.363 107.973 170.859 108.183 170.51 108.523C170.158 108.847 169.874 109.21 169.658 109.612L167.405 108.058C167.81 107.274 168.349 106.637 169.024 106.149C169.713 105.643 170.689 105.313 171.951 105.159C173.629 104.954 174.945 105.176 175.899 105.826C176.854 106.475 177.418 107.524 177.596 108.972L178.648 117.612L175.231 118.029L174.197 109.55ZM185.623 117.042C184.299 117.204 183.239 116.895 182.441 116.118C181.655 115.322 181.165 114.116 180.968 112.499L179.988 104.46L183.406 104.043L184.35 111.782C184.395 112.151 184.467 112.494 184.568 112.81C184.667 113.111 184.808 113.367 184.99 113.579C185.17 113.776 185.4 113.928 185.679 114.035C185.971 114.124 186.317 114.144 186.717 114.095C186.995 114.062 187.267 113.989 187.534 113.878C187.816 113.75 188.053 113.588 188.248 113.393C188.443 113.197 188.596 112.967 188.703 112.704C188.812 112.441 188.847 112.148 188.808 111.824L187.793 103.508L191.211 103.091L192.447 113.232L193.58 113.094L193.903 115.751L191.848 116.001C190.463 116.171 189.65 115.465 189.41 113.884L189.248 113.904C189.168 114.273 189.041 114.632 188.865 114.982C188.702 115.315 188.473 115.624 188.181 115.91C187.902 116.194 187.549 116.432 187.12 116.625C186.707 116.832 186.208 116.971 185.623 117.042Z" fill="#005FB8"/>
</g>
<g filter="url(#filter8_d_147_763)">
<path d="M365.985 8.76089L270.247 2.11752C253.423 0.950103 238.838 13.6466 237.671 30.476C236.504 47.3053 249.197 61.8946 266.021 63.062L361.759 69.7053C378.583 70.8728 393.167 58.1763 394.334 41.3469C395.501 24.5176 382.809 9.92831 365.985 8.76089Z" fill="#005FB8"/>
<path d="M365.935 9.48644L270.196 2.84307C253.773 1.70345 239.536 14.0977 238.396 30.5263C237.257 46.9549 249.647 61.1968 266.071 62.3365L361.809 68.9798C378.232 70.1195 392.47 57.7253 393.609 41.2966C394.748 24.868 382.358 10.6261 365.935 9.48644Z" stroke="#005FB8"/>
<path d="M296.109 32.5846L299.452 32.8165L301.787 39.4873L301.904 39.4953C302.445 39.533 302.887 39.3303 303.228 38.8874C303.57 38.4445 303.769 37.8053 303.827 36.9693L303.976 34.8335C304.034 33.9977 303.916 33.3363 303.624 32.8493C303.332 32.3625 302.898 32.0992 302.325 32.0595L301.467 31.9999L301.655 29.2835L302.584 29.3479C303.419 29.4058 304.152 29.6045 304.781 29.9437C305.427 30.2839 305.953 30.7482 306.363 31.3366C306.791 31.9104 307.101 32.6085 307.291 33.4306C307.484 34.2371 307.546 35.1434 307.476 36.1494C307.406 37.1555 307.22 38.0524 306.916 38.84C306.629 39.6133 306.235 40.2624 305.732 40.7875C305.245 41.2981 304.659 41.6773 303.974 41.9253C303.304 42.1741 302.558 42.2703 301.738 42.2134L299.487 42.0572L296.109 32.5846ZM315.467 34.6044C315.508 34.0162 315.384 33.5411 315.099 33.1791C314.829 32.8182 314.345 32.6135 313.65 32.5653C312.984 32.5191 312.447 32.6297 312.04 32.8969C311.634 33.1487 311.287 33.4511 310.997 33.8044L309.081 31.8517C309.626 31.1586 310.278 30.6361 311.032 30.2841C311.804 29.9177 312.824 29.7785 314.093 29.8666C315.78 29.9836 317.029 30.4514 317.843 31.27C318.657 32.0885 319.014 33.2252 318.913 34.6802L318.311 43.3634L314.875 43.125L315.467 34.6044ZM325.268 44.126C323.937 44.0336 322.953 43.5299 322.317 42.6149C321.698 41.6854 321.443 40.408 321.557 38.7829L322.117 30.7033L325.551 30.9417L325.012 38.7193C324.987 39.0908 324.993 39.4412 325.032 39.7705C325.073 40.0844 325.163 40.3628 325.301 40.6057C325.441 40.8332 325.637 41.0256 325.891 41.1831C326.16 41.3263 326.496 41.4118 326.899 41.4397C327.178 41.4591 327.459 41.4397 327.743 41.3817C328.044 41.3093 328.308 41.1954 328.536 41.0402C328.765 40.885 328.957 40.6883 329.114 40.4503C329.269 40.2124 329.359 39.9308 329.381 39.6058L329.961 31.2477L333.396 31.486L332.689 41.6783L333.826 41.7573L333.642 44.4271L331.577 44.2838C330.184 44.1872 329.519 43.3401 329.583 41.7427L329.42 41.7314C329.272 42.0789 329.079 42.4076 328.84 42.7175C328.616 43.0131 328.334 43.2735 327.993 43.4986C327.665 43.7247 327.273 43.8919 326.815 44C326.371 44.1248 325.855 44.1667 325.268 44.126Z" fill="white"/>
</g>
<defs>
<filter id="filter0_d_147_763" x="131.202" y="29.8987" width="185.456" height="78.0269" filterUnits="userSpaceOnUse" color-interpolation-filters="sRGB">
<feFlood flood-opacity="0" result="BackgroundImageFix"/>
<feColorMatrix in="SourceAlpha" type="matrix" values="0 0 0 0 0 0 0 0 0 0 0 0 0 0 0 0 0 0 127 0" result="hardAlpha"/>
<feOffset dy="4"/>
<feComposite in2="hardAlpha" operator="out"/>
<feColorMatrix type="matrix" values="0 0 0 0 0 0 0 0 0 0.372549 0 0 0 0 0.721569 0 0 0 1 0"/>
<feBlend mode="normal" in2="BackgroundImageFix" result="effect1_dropShadow_147_763"/>
<feBlend mode="normal" in="SourceGraphic" in2="effect1_dropShadow_147_763" result="shape"/>
</filter>
<filter id="filter1_d_147_763" x="215.573" y="60.0137" width="264.254" height="77.6611" filterUnits="userSpaceOnUse" color-interpolation-filters="sRGB">
<feFlood flood-opacity="0" result="BackgroundImageFix"/>
<feColorMatrix in="SourceAlpha" type="matrix" values="0 0 0 0 0 0 0 0 0 0 0 0 0 0 0 0 0 0 127 0" result="hardAlpha"/>
<feOffset dy="4"/>
<feComposite in2="hardAlpha" operator="out"/>
<feColorMatrix type="matrix" values="0 0 0 0 0 0 0 0 0 0.372549 0 0 0 0 0.721569 0 0 0 1 0"/>
<feBlend mode="normal" in2="BackgroundImageFix" result="effect1_dropShadow_147_763"/>
<feBlend mode="normal" in="SourceGraphic" in2="effect1_dropShadow_147_763" result="shape"/>
</filter>
<filter id="filter2_d_147_763" x="226.296" y="99.8269" width="320.822" height="115.812" filterUnits="userSpaceOnUse" color-interpolation-filters="sRGB">
<feFlood flood-opacity="0" result="BackgroundImageFix"/>
<feColorMatrix in="SourceAlpha" type="matrix" values="0 0 0 0 0 0 0 0 0 0 0 0 0 0 0 0 0 0 127 0" result="hardAlpha"/>
<feOffset dy="4"/>
<feComposite in2="hardAlpha" operator="out"/>
<feColorMatrix type="matrix" values="0 0 0 0 0 0 0 0 0 0.372549 0 0 0 0 0.721569 0 0 0 1 0"/>
<feBlend mode="normal" in2="BackgroundImageFix" result="effect1_dropShadow_147_763"/>
<feBlend mode="normal" in="SourceGraphic" in2="effect1_dropShadow_147_763" result="shape"/>
</filter>
<filter id="filter3_d_147_763" x="157.223" y="99.0995" width="200.45" height="72.8124" filterUnits="userSpaceOnUse" color-interpolation-filters="sRGB">
<feFlood flood-opacity="0" result="BackgroundImageFix"/>
<feColorMatrix in="SourceAlpha" type="matrix" values="0 0 0 0 0 0 0 0 0 0 0 0 0 0 0 0 0 0 127 0" result="hardAlpha"/>
<feOffset dy="4"/>
<feComposite in2="hardAlpha" operator="out"/>
<feColorMatrix type="matrix" values="0 0 0 0 0 0 0 0 0 0.372549 0 0 0 0 0.721569 0 0 0 1 0"/>
<feBlend mode="normal" in2="BackgroundImageFix" result="effect1_dropShadow_147_763"/>
<feBlend mode="normal" in="SourceGraphic" in2="effect1_dropShadow_147_763" result="shape"/>
</filter>
<filter id="filter4_d_147_763" x="311.384" y="154.403" width="241.371" height="66.3766" filterUnits="userSpaceOnUse" color-interpolation-filters="sRGB">
<feFlood flood-opacity="0" result="BackgroundImageFix"/>
<feColorMatrix in="SourceAlpha" type="matrix" values="0 0 0 0 0 0 0 0 0 0 0 0 0 0 0 0 0 0 127 0" result="hardAlpha"/>
<feOffset dy="4"/>
<feComposite in2="hardAlpha" operator="out"/>
<feColorMatrix type="matrix" values="0 0 0 0 0 0 0 0 0 0.372549 0 0 0 0 0.721569 0 0 0 1 0"/>
<feBlend mode="normal" in2="BackgroundImageFix" result="effect1_dropShadow_147_763"/>
<feBlend mode="normal" in="SourceGraphic" in2="effect1_dropShadow_147_763" result="shape"/>
</filter>
<filter id="filter5_d_147_763" x="0" y="149.823" width="209.386" height="65.0909" filterUnits="userSpaceOnUse" color-interpolation-filters="sRGB">
<feFlood flood-opacity="0" result="BackgroundImageFix"/>
<feColorMatrix in="SourceAlpha" type="matrix" values="0 0 0 0 0 0 0 0 0 0 0 0 0 0 0 0 0 0 127 0" result="hardAlpha"/>
<feOffset dy="4"/>
<feComposite in2="hardAlpha" operator="out"/>
<feColorMatrix type="matrix" values="0 0 0 0 0 0 0 0 0 0.372549 0 0 0 0 0.721569 0 0 0 1 0"/>
<feBlend mode="normal" in2="BackgroundImageFix" result="effect1_dropShadow_147_763"/>
<feBlend mode="normal" in="SourceGraphic" in2="effect1_dropShadow_147_763" result="shape"/>
</filter>
<filter id="filter6_d_147_763" x="144.029" y="146.165" width="225.247" height="71.7521" filterUnits="userSpaceOnUse" color-interpolation-filters="sRGB">
<feFlood flood-opacity="0" result="BackgroundImageFix"/>
<feColorMatrix in="SourceAlpha" type="matrix" values="0 0 0 0 0 0 0 0 0 0 0 0 0 0 0 0 0 0 127 0" result="hardAlpha"/>
<feOffset dy="4"/>
<feComposite in2="hardAlpha" operator="out"/>
<feColorMatrix type="matrix" values="0 0 0 0 0 0 0 0 0 0.372549 0 0 0 0 0.721569 0 0 0 1 0"/>
<feBlend mode="normal" in2="BackgroundImageFix" result="effect1_dropShadow_147_763"/>
<feBlend mode="normal" in="SourceGraphic" in2="effect1_dropShadow_147_763" result="shape"/>
</filter>
<filter id="filter7_d_147_763" x="53.0092" y="74.4376" width="199.641" height="81.9996" filterUnits="userSpaceOnUse" color-interpolation-filters="sRGB">
<feFlood flood-opacity="0" result="BackgroundImageFix"/>
<feColorMatrix in="SourceAlpha" type="matrix" values="0 0 0 0 0 0 0 0 0 0 0 0 0 0 0 0 0 0 127 0" result="hardAlpha"/>
<feOffset dy="4"/>
<feComposite in2="hardAlpha" operator="out"/>
<feColorMatrix type="matrix" values="0 0 0 0 0 0 0 0 0 0.372549 0 0 0 0 0.721569 0 0 0 1 0"/>
<feBlend mode="normal" in2="BackgroundImageFix" result="effect1_dropShadow_147_763"/>
<feBlend mode="normal" in="SourceGraphic" in2="effect1_dropShadow_147_763" result="shape"/>
</filter>
<filter id="filter8_d_147_763" x="237.597" y="2.04303" width="156.812" height="71.7368" filterUnits="userSpaceOnUse" color-interpolation-filters="sRGB">
<feFlood flood-opacity="0" result="BackgroundImageFix"/>
<feColorMatrix in="SourceAlpha" type="matrix" values="0 0 0 0 0 0 0 0 0 0 0 0 0 0 0 0 0 0 127 0" result="hardAlpha"/>
<feOffset dy="4"/>
<feComposite in2="hardAlpha" operator="out"/>
<feColorMatrix type="matrix" values="0 0 0 0 0 0 0 0 0 0.273511 0 0 0 0 0.529748 0 0 0 1 0"/>
<feBlend mode="normal" in2="BackgroundImageFix" result="effect1_dropShadow_147_763"/>
<feBlend mode="normal" in="SourceGraphic" in2="effect1_dropShadow_147_763" result="shape"/>
</filter>
</defs>
</svg>
