<svg width="1441" height="1180" viewBox="0 0 1441 1180" fill="none" xmlns="http://www.w3.org/2000/svg">
<path d="M1013.59 0.395996C874.519 107.428 736.961 332.759 1013.59 563.723C1319.36 819.022 1248.02 1155.22 1013.59 1155.22C838.996 1155.22 241.903 1175.87 0.0426025 1155.22" stroke="white" stroke-dasharray="5 5"/>
<g opacity="0.4">
<path d="M97.0298 672.865L99.5691 674.297C100.419 674.769 101.306 675.172 102.172 675.614L103.479 676.265C103.919 676.473 104.371 676.656 104.816 676.853L107.497 678.012C109.327 678.674 111.129 679.428 113.001 679.965L114.393 680.404C114.857 680.554 115.321 680.7 115.795 680.81L118.621 681.533C119.09 681.666 119.567 681.751 120.043 681.844L121.472 682.125L122.901 682.407C123.377 682.499 123.859 682.543 124.338 682.614C125.298 682.74 126.257 682.883 127.218 682.997L130.108 683.203C131.045 683.281 131.986 683.307 132.926 683.281C133.857 683.266 134.789 683.203 135.72 683.111C137.583 682.915 139.429 682.575 141.241 682.094C145.052 681.121 148.625 679.373 151.737 676.959C153.215 675.785 154.51 674.395 155.577 672.835C156.599 671.313 157.333 669.616 157.743 667.827C157.806 667.582 157.857 667.333 157.895 667.082L158.015 666.329L158.028 666.247C158.112 665.726 158.341 665.24 158.689 664.845C159.037 664.451 159.49 664.164 159.995 664.019C160.499 663.873 161.035 663.875 161.538 664.025C162.042 664.174 162.493 664.464 162.838 664.862C165.196 667.577 168.696 669.217 172.419 669.651C176.196 670.083 180.017 669.418 183.429 667.735C185.096 666.914 186.623 665.831 187.95 664.528C188.606 663.879 189.197 663.169 189.718 662.407L190.135 661.843C190.264 661.647 190.374 661.439 190.495 661.238C190.725 660.828 190.991 660.44 191.196 660.016C192.046 658.315 192.673 656.511 193.063 654.649C193.437 652.755 193.592 650.823 193.526 648.893C193.379 644.994 192.367 641.178 190.564 637.722C189.65 636.018 188.564 634.414 187.322 632.934C186.035 631.452 184.615 630.093 183.079 628.874C176.854 624.003 168.764 621.442 160.721 621.23L160.705 621.23C160.085 621.213 159.485 621.004 158.987 620.632C158.489 620.259 158.118 619.741 157.926 619.149C157.733 618.556 157.727 617.918 157.909 617.322C158.092 616.726 158.453 616.202 158.944 615.82C160.506 614.575 161.578 612.814 161.968 610.85C162.196 609.798 162.286 608.721 162.235 607.646C162.178 606.537 161.995 605.438 161.692 604.37C161.103 602.235 159.999 600.279 158.478 598.676L158.197 598.39L157.876 598.107L157.238 597.537L156.554 597.017C156.331 596.836 156.097 596.669 155.853 596.517L155.129 596.044C154.88 595.895 154.621 595.761 154.369 595.617C153.858 595.332 153.332 595.076 152.792 594.85C149.472 593.445 145.727 592.839 141.936 592.715C140.027 592.657 138.116 592.72 136.214 592.904C135.263 592.936 134.32 593.056 133.374 593.149L131.964 593.352C131.728 593.381 131.495 593.425 131.265 593.482C131.029 593.507 130.794 593.544 130.562 593.594C130.095 593.675 129.628 593.76 129.171 593.878C128.712 593.989 128.247 594.086 127.791 594.207C126.888 594.463 125.999 594.766 125.127 595.114C123.402 595.768 121.754 596.61 120.211 597.624C120.022 597.749 119.822 597.863 119.641 597.996L119.105 598.405C118.739 598.664 118.389 598.944 118.056 599.243L117.07 600.138L116.18 601.11C115.076 602.447 114.184 603.948 113.536 605.559L113.526 605.583C113.244 606.283 112.698 606.841 112.006 607.136C111.314 607.431 110.535 607.437 109.838 607.155C109.554 607.038 109.291 606.877 109.057 606.678C107.37 605.227 105.65 603.824 103.89 602.487C102.124 601.161 100.328 599.888 98.4893 598.698C96.643 597.524 94.765 596.415 92.841 595.419C90.9247 594.437 88.956 593.562 86.9438 592.797C84.9478 592.061 82.906 591.457 80.8315 590.989C78.7872 590.546 76.7103 590.273 74.6216 590.17C72.5425 590.096 70.4608 590.2 68.3992 590.481C66.3532 590.774 64.3384 591.256 62.3803 591.92C61.8845 592.061 61.4238 592.287 60.9434 592.464L60.2294 592.746C59.9931 592.843 59.7693 592.964 59.5385 593.071C59.0831 593.298 58.6145 593.501 58.1687 593.741L56.8539 594.498C55.1435 595.534 53.5603 596.768 52.1369 598.175C51.7751 598.515 51.4751 598.909 51.1385 599.27L50.6461 599.824L50.2105 600.42C49.9344 600.822 49.5848 601.197 49.3348 601.598L48.9448 602.193L48.5879 602.813C47.6478 604.52 46.9792 606.364 46.6065 608.278C46.3082 609.237 46.0913 610.22 45.9581 611.216C45.8052 612.221 45.7878 613.242 45.9065 614.251C46.0719 616.268 46.5513 618.246 47.3272 620.114C48.8923 623.802 51.6899 626.799 55.1501 628.226C55.6831 628.446 56.1371 628.823 56.452 629.308C56.7668 629.793 56.9278 630.362 56.9135 630.941C56.8992 631.519 56.7103 632.08 56.3719 632.548C56.0334 633.017 55.5614 633.371 55.0181 633.564L54.856 633.621C53.2219 634.196 51.6515 634.94 50.1696 635.84C49.8065 636.077 49.4245 636.283 49.0758 636.541L48.0192 637.297L47.0147 638.118C46.6746 638.385 46.3775 638.701 46.0554 638.987C43.2218 641.484 41.0425 644.641 39.7089 648.182L39.2804 649.512L38.9609 650.87C38.873 651.322 38.8273 651.774 38.7529 652.228C38.6796 652.681 38.6945 653.146 38.6562 653.606C38.6066 655.475 38.8403 657.341 39.3494 659.14C39.5842 659.971 39.862 660.79 40.1816 661.592C40.3519 661.968 40.5237 662.333 40.6814 662.698C40.8291 663.069 41.046 663.388 41.2149 663.728C41.5474 664.414 41.9734 664.991 42.326 665.589C42.5184 665.874 42.7271 666.134 42.9171 666.403C43.097 666.668 43.2912 666.923 43.4988 667.167C44.7979 668.741 46.2701 670.163 47.8874 671.405C49.7934 672.732 49.7859 673.361 47.54 673.123C46.856 673.005 46.183 672.831 45.5277 672.602C45.1425 672.452 44.7385 672.262 44.2991 672.059C44.0833 671.953 43.8466 671.859 43.6277 671.726L42.9486 671.311C40.6657 669.863 38.721 667.936 37.2473 665.664C34.9159 662.149 33.6057 658.052 33.4639 653.832L33.4652 652.201C33.5069 651.657 33.5611 651.112 33.6133 650.567C33.634 650.296 33.6723 650.027 33.728 649.761L33.8753 648.964C33.9278 648.7 33.9692 648.432 34.0325 648.171L34.2435 647.392C34.7881 645.337 35.611 643.366 36.6892 641.536C37.5998 639.966 38.6648 638.491 39.8683 637.134C40.4425 636.435 41.1063 635.827 41.7329 635.181C42.0623 634.876 42.4062 634.587 42.7482 634.297C43.0838 633.998 43.4408 633.728 43.8016 633.463C46.6498 631.301 49.8567 629.663 53.2738 628.624L53.0343 633.02C49.4485 631.306 46.4685 628.534 44.4915 625.075C44.0065 624.241 43.5709 623.379 43.1872 622.493C42.9878 622.055 42.8238 621.605 42.6422 621.161C42.4883 620.708 42.3226 620.259 42.1844 619.802C41.6319 617.978 41.2657 616.102 41.0917 614.204C41.0047 613.256 40.9905 612.307 40.9223 611.353C40.8878 610.393 40.9025 609.432 40.9663 608.474C41.0132 607.507 41.1596 606.546 41.4033 605.609C41.6264 604.661 41.9038 603.727 42.2341 602.812C42.8979 600.96 43.8026 599.205 44.9245 597.591C45.4668 596.792 46.0609 596.029 46.7029 595.308L47.663 594.227C48.0024 593.886 48.356 593.561 48.703 593.229C51.4882 590.616 54.735 588.548 58.2762 587.133C61.7538 585.726 65.4153 584.83 69.1475 584.473C69.6101 584.411 70.0754 584.385 70.541 584.365L71.9373 584.294C72.8685 584.271 73.8013 584.298 74.7331 584.308C75.6629 584.382 76.5963 584.416 77.5234 584.529L78.913 584.714L79.607 584.809L80.2878 584.939C83.9084 585.612 87.448 586.668 90.8475 588.089C94.927 589.813 98.8305 591.93 102.503 594.411C106.093 596.837 109.514 599.507 112.742 602.401L108.285 603.515C108.554 602.935 108.82 602.362 109.083 601.796C109.212 601.514 109.361 601.241 109.53 600.981L110.012 600.192C112.01 597.113 114.675 594.527 117.809 592.628L118.373 592.268L118.955 591.949L120.12 591.313C120.911 590.93 121.705 590.551 122.511 590.213C123.325 589.905 124.127 589.548 124.956 589.299C125.367 589.161 125.78 589.032 126.188 588.882C126.598 588.745 127.015 588.632 127.428 588.507C129.081 588.017 130.762 587.628 132.463 587.343C133.311 587.21 134.163 587.09 135.016 586.987C135.442 586.923 135.873 586.914 136.301 586.88C136.73 586.847 137.157 586.829 137.583 586.82C139.295 586.756 141.009 586.782 142.718 586.898C144.448 587.002 146.169 587.22 147.871 587.551C149.602 587.877 151.304 588.342 152.96 588.943C154.646 589.563 156.273 590.331 157.823 591.239C159.39 592.187 160.847 593.308 162.167 594.579C163.509 595.918 164.64 597.455 165.52 599.136C167.298 602.477 168.083 606.262 167.781 610.039C167.615 611.996 167.086 613.905 166.224 615.668C165.324 617.492 164.029 619.09 162.433 620.346L160.844 615.507C164.708 615.597 168.546 616.159 172.275 617.181C177.972 618.735 183.271 621.495 187.818 625.277C190.111 627.212 192.138 629.442 193.849 631.91C196.405 635.685 198.107 639.977 198.836 644.483C199.564 648.99 199.302 653.602 198.067 657.995C197.188 660.966 195.773 663.749 193.891 666.204C192.952 667.465 191.867 668.61 190.66 669.614C189.467 670.616 188.175 671.491 186.804 672.226C182.355 674.612 177.296 675.604 172.28 675.075C171.024 674.946 169.782 674.707 168.567 674.363C167.337 674.027 166.141 673.574 164.996 673.01C163.837 672.447 162.736 671.77 161.71 670.988C160.683 670.195 159.736 669.303 158.882 668.326L163.221 667.006C162.924 669.153 162.293 671.241 161.35 673.191C160.408 675.111 159.19 676.881 157.736 678.445C156.321 679.975 154.729 681.331 152.995 682.483C151.301 683.621 149.504 684.598 147.629 685.401C143.923 686.977 140.002 687.981 135.997 688.38C134.999 688.473 133.999 688.545 132.995 688.564C132.493 688.577 131.991 688.583 131.488 688.569C130.98 688.571 130.492 688.538 130.005 688.504L127.077 688.31C126.587 688.291 126.106 688.211 125.621 688.152L124.17 687.965C122.226 687.764 120.326 687.329 118.412 686.98C117.459 686.785 116.522 686.522 115.578 686.296C114.635 686.059 113.688 685.84 112.766 685.534L109.984 684.677C109.059 684.384 108.158 684.021 107.245 683.696C105.409 683.069 103.645 682.255 101.859 681.505C98.3227 679.909 94.902 678.067 91.6217 675.992C89.9532 675 88.3966 673.827 86.8043 672.714C86.0192 672.141 85.2746 671.51 84.5082 670.91L83.3671 669.999C82.9915 669.689 82.6384 669.35 82.2732 669.027C78.5612 665.817 75.3212 662.094 72.6497 657.97L75.8216 656.94C75.8373 658.398 75.6518 659.852 75.2703 661.259C74.8892 662.644 74.3018 663.963 73.5281 665.171C72.0178 667.433 69.9863 669.296 67.6061 670.601C63.3023 672.951 58.37 673.877 53.5116 673.248C52.4054 673.125 51.3318 672.795 50.3458 672.277C49.7383 671.897 49.5489 671.59 49.712 671.389C50.0555 670.961 51.6937 671.091 54.8243 670.841C58.923 670.543 62.8573 669.101 66.1834 666.678C67.7038 665.546 68.9443 664.077 69.8087 662.386C70.2045 661.582 70.4916 660.729 70.6623 659.849C70.8161 658.949 70.8707 658.036 70.8252 657.125C70.7952 656.431 70.9862 655.745 71.3704 655.167C71.7547 654.589 72.3122 654.148 72.9622 653.91C73.6122 653.672 74.3209 653.647 74.9856 653.841C75.6503 654.034 76.2365 654.435 76.6591 654.985L76.8077 655.181L78.316 657.171C80.8388 660.335 83.6644 663.242 86.7523 665.852C89.9385 668.487 93.3383 670.85 96.9162 672.916C96.953 672.897 96.9875 672.881 97.0298 672.865Z" fill="white"/>
<path d="M82.6095 695.45C83.698 695.696 84.7693 696.014 85.8168 696.399C88.8886 697.563 91.7146 699.297 94.147 701.511C94.9985 702.282 95.8028 703.103 96.5555 703.971C97.4145 704.965 98.1317 706.075 98.6867 707.268C99.0653 708.06 99.3546 708.893 99.549 709.75C99.7609 710.633 99.8596 711.539 99.8429 712.447C99.836 712.917 99.7992 713.386 99.7327 713.851C99.6543 714.328 99.5422 714.798 99.3973 715.259C99.2512 715.728 99.0679 716.185 98.8494 716.625C98.6238 717.063 98.367 717.485 98.081 717.886C96.9756 719.357 95.5249 720.532 93.8583 721.304C92.4078 721.987 90.8787 722.488 89.3057 722.793C84.8559 723.729 80.2554 723.671 75.8308 722.62C74.3573 722.26 72.9136 721.787 71.5123 721.204C69.9322 720.568 68.4499 719.71 67.11 718.655C66.3981 718.039 65.7655 717.335 65.2268 716.561C64.6319 715.754 64.1528 714.867 63.8036 713.925L66.8309 715.709C65.3223 715.944 63.7931 716.016 62.2693 715.923C60.756 715.822 59.2571 715.564 57.7967 715.153C56.3384 714.744 54.9279 714.18 53.589 713.47C52.9173 713.117 52.2663 712.727 51.6391 712.3L51.1469 711.963C50.9114 711.79 50.6892 711.599 50.4821 711.392C50.1194 711.027 49.7976 710.623 49.5226 710.188C49.0413 709.411 48.669 708.572 48.4163 707.693C48.1776 706.818 48.0661 705.912 48.0852 705.005C48.1058 704.112 48.2558 703.227 48.5307 702.378C48.794 701.539 49.1743 700.742 49.6605 700.011C50.629 698.562 51.9533 697.389 53.5053 696.604C53.8586 696.423 54.221 696.261 54.5912 696.118C54.9408 695.979 55.3001 695.855 55.66 695.733C56.3965 695.493 57.1501 695.31 57.9142 695.185C59.1274 694.972 60.368 694.968 61.5828 695.172C62.8068 695.376 63.9831 695.804 65.0531 696.435C65.8842 696.912 66.5882 697.583 67.1051 698.392C67.2857 698.682 67.4277 698.994 67.5277 699.32C67.5048 699.571 67.4998 699.823 67.5127 700.075C67.5661 700.907 67.7231 701.512 67.0063 701.49C66.7733 701.47 66.5456 701.409 66.3336 701.31C66.1854 701.245 66.0416 701.171 65.903 701.087C65.8499 701.052 65.7912 701.027 65.7295 701.012L65.5756 700.956C65.3551 700.871 65.1405 700.772 64.9334 700.657C64.6871 700.555 64.4476 700.436 64.2164 700.302C63.5796 699.986 62.9209 699.716 62.2453 699.495C61.5572 699.289 60.8493 699.158 60.1334 699.102C59.2704 699.049 58.4044 699.127 57.5648 699.335C57.1261 699.44 56.6931 699.568 56.2674 699.718C56.0516 699.79 55.8394 699.882 55.6247 699.964C55.4151 700.048 55.2644 700.137 55.0789 700.219C54.3893 700.585 53.7914 701.104 53.3302 701.736C52.869 702.367 52.5564 703.096 52.416 703.866C52.2782 704.604 52.3137 705.364 52.5197 706.085C52.6202 706.436 52.7627 706.773 52.944 707.089C53.1012 707.388 53.3014 707.663 53.5381 707.903C53.6185 707.983 53.7092 708.052 53.8078 708.107C53.8315 708.118 53.8544 708.13 53.8762 708.144L54.0235 708.229L54.3175 708.399C54.5103 708.517 54.714 708.617 54.9156 708.72C55.116 708.824 55.3177 708.925 55.5266 709.013C56.347 709.388 57.2 709.687 58.0748 709.904C59.0434 710.139 60.0293 710.293 61.0229 710.366C62.0104 710.444 62.9807 710.472 63.9244 710.522C64.6094 710.555 65.2959 710.534 65.9777 710.461L66.2108 710.44C66.7634 710.391 67.3164 710.529 67.7821 710.832C68.2477 711.135 68.5992 711.585 68.7807 712.112L68.8966 712.449C68.9505 712.558 68.9878 712.673 69.049 712.781C69.1613 713.013 69.31 713.226 69.4895 713.41C69.5792 713.512 69.6748 713.608 69.7757 713.699C69.8761 713.797 69.9818 713.889 70.0923 713.976C70.2026 714.07 70.3184 714.157 70.439 714.238C70.5452 714.336 70.6731 714.422 70.7914 714.514C71.8794 715.272 73.0752 715.862 74.3385 716.262C77.0284 717.173 79.8315 717.703 82.667 717.837C83.8569 717.901 85.05 717.87 86.2351 717.745C87.4069 717.624 88.5673 717.41 89.7052 717.104C90.7199 716.84 91.6883 716.421 92.5764 715.862C93.2987 715.415 93.8812 714.774 94.2575 714.011C94.8956 712.762 94.7846 710.9 94.0446 709.276C93.9594 709.07 93.8441 708.878 93.7463 708.677C93.6242 708.492 93.5257 708.287 93.3909 708.112C93.2687 707.928 93.1358 707.751 92.9927 707.583C92.8699 707.424 92.6784 707.213 92.5002 707.025C91.7728 706.248 90.9934 705.522 90.1675 704.852C86.8773 702.14 82.8228 700.341 78.5481 700.169C75.146 700.045 71.8888 700.365 68.5248 700.485C68.2944 700.522 68.0583 700.496 67.8415 700.409C67.7247 700.372 67.7208 700.222 67.7675 700.066C67.7794 700.025 67.7946 699.981 67.8123 699.935L67.8407 699.864L67.856 699.828L67.864 699.809L67.868 699.8L67.87 699.796L67.8711 699.793L67.8716 699.792L67.8769 699.761C67.9227 699.643 67.9747 699.507 68.0214 699.356C68.0707 699.2 68.1079 699.04 68.1325 698.878C68.1611 698.725 68.1537 698.526 68.1765 698.456C68.1405 698.411 68.321 698.302 68.448 698.206L68.8502 697.914C69.1224 697.723 69.39 697.512 69.6774 697.333C69.9587 697.145 70.256 696.982 70.5659 696.846C70.8675 696.693 71.1871 696.576 71.5028 696.444C72.1323 696.175 72.7938 695.969 73.4591 695.76C74.1351 695.572 74.8208 695.421 75.513 695.308C76.6752 695.118 77.8544 695.055 79.0301 695.119C80.2175 695.19 81.3998 695.33 82.571 695.538L82.6095 695.45Z" fill="white"/>
<path d="M38.7977 733.779C40.694 733.683 42.5938 733.878 44.4313 734.358C45.3787 734.598 46.2948 734.907 47.2354 735.183C48.6012 735.561 49.8925 736.171 51.0535 736.986C51.7378 737.477 52.3397 738.075 52.8365 738.757C53.4109 739.552 53.7928 740.471 53.9519 741.44C54.1102 742.438 54.0221 743.46 53.6954 744.416C53.4017 745.272 52.9537 746.067 52.3737 746.761C51.3664 747.943 50.0987 748.873 48.671 749.477C47.8804 749.823 47.0523 750.075 46.2035 750.228C45.7905 750.311 45.3791 750.367 44.9695 750.413C44.5157 750.467 44.0586 750.49 43.6017 750.48C43.1534 750.47 42.7012 750.436 42.2892 750.39C41.9159 750.345 41.5428 750.294 41.1702 750.235C40.4241 750.118 39.6812 749.959 38.9359 749.783C37.3956 749.435 35.9035 748.899 34.4933 748.186C34.1223 748 33.7608 747.796 33.4103 747.573C33.2327 747.459 33.054 747.351 32.881 747.222L32.6203 747.035L32.4904 746.941L32.325 746.804C31.4223 746.069 30.7609 745.079 30.4268 743.962C30.2411 743.309 30.1915 742.625 30.2813 741.952C30.371 741.28 30.5982 740.633 30.9485 740.053C31.206 739.586 31.6271 739.231 32.1301 739.058C32.3355 738.995 32.5503 738.969 32.7648 738.98C32.9697 738.997 33.1708 739.046 33.3612 739.124C33.5989 739.236 33.812 739.394 33.9883 739.589C34.1645 739.784 34.3003 740.013 34.3878 740.261C34.55 740.611 34.6438 740.989 34.664 741.374C34.6498 741.697 34.6167 742.019 34.5649 742.339C34.5441 742.523 34.5622 742.709 34.618 742.886C34.6737 743.063 34.7659 743.226 34.8885 743.364C34.9206 743.399 34.9603 743.429 34.9939 743.464C35.012 743.484 35.0312 743.502 35.0514 743.52L35.1531 743.594C35.2874 743.698 35.4269 743.795 35.5709 743.885C35.8645 744.075 36.1721 744.242 36.491 744.384C37.86 744.97 39.3367 745.259 40.8246 745.232C41.2468 745.227 41.6793 745.192 42.1052 745.175C42.3172 745.171 42.5298 745.163 42.7372 745.177C42.904 745.185 43.0701 745.203 43.2346 745.232C43.4791 745.277 43.7276 745.295 43.976 745.287C44.0834 745.286 44.2433 745.262 44.3852 745.244C44.5297 745.228 44.6732 745.203 44.815 745.171C45.3637 745.052 45.8973 744.871 46.4056 744.632C47.2355 744.257 47.9632 743.686 48.5274 742.969C48.6564 742.815 48.7457 742.631 48.7874 742.434C48.8206 742.285 48.8102 742.129 48.7574 741.986C48.5225 741.488 48.1488 741.07 47.6816 740.782C46.3657 739.926 44.886 739.357 43.3379 739.111C42.5239 738.961 41.6985 738.881 40.8709 738.872C40.0553 738.874 39.2417 738.953 38.4407 739.107C38.1265 739.177 37.804 739.212 37.4891 739.264C37.3293 739.285 37.1654 739.296 36.9985 739.303C36.8307 739.321 36.662 739.327 36.4935 739.322C36.1388 739.307 35.7862 739.309 35.4044 739.286L34.1981 739.196C34.0035 739.189 33.8135 739.135 33.6445 739.038C33.4754 738.941 33.3325 738.804 33.228 738.639C33.1236 738.474 33.0607 738.286 33.0448 738.091C33.0289 737.896 33.0605 737.7 33.1369 737.52L33.3261 737.035C33.4022 736.894 33.4945 736.763 33.6012 736.644C33.7995 736.396 34.0101 736.15 34.2324 735.908C34.4639 735.685 34.7059 735.467 34.9583 735.252C35.2152 735.055 35.4885 734.881 35.7754 734.732C36.7251 734.265 37.7512 733.974 38.8039 733.874L38.7977 733.779Z" fill="white"/>
</g>
<g opacity="0.5">
<path d="M1334.14 437.49L1335.2 435.757L1335.04 436.07C1335.65 434.67 1336.55 433.413 1337.68 432.38C1338.88 431.288 1340.34 430.523 1341.93 430.158C1342.32 430.069 1342.71 430 1343.1 429.953L1344.04 429.876L1345.5 429.742C1346.49 429.633 1347.51 429.531 1348.52 429.386C1350.53 429.123 1352.54 428.782 1354.54 428.38C1356.54 427.984 1358.52 427.52 1360.49 426.986C1368.38 424.89 1375.95 421.753 1383 417.657C1390.74 413.117 1397.83 407.266 1402.99 400.103C1405.65 396.456 1407.75 392.444 1409.24 388.195C1410.7 383.978 1411.45 379.55 1411.46 375.092C1411.45 370.614 1410.76 366.163 1409.41 361.889C1408.73 359.732 1407.93 357.616 1407.01 355.552C1406.06 353.487 1405.01 351.466 1403.86 349.485L1404.07 349.794L1402.34 347.683L1401.48 346.627C1401.18 346.285 1400.86 345.958 1400.55 345.623L1398.7 343.622C1398.05 342.978 1397.38 342.361 1396.72 341.729L1395.74 340.785C1395.41 340.471 1395.04 340.191 1394.7 339.892L1392.61 338.124C1391.9 337.553 1391.16 337.02 1390.43 336.466L1389.34 335.641C1388.97 335.363 1388.58 335.126 1388.2 334.867L1385.92 333.339C1385.15 332.846 1384.35 332.396 1383.56 331.921C1382.01 330.945 1380.35 330.148 1378.73 329.274C1375.43 327.631 1372.03 326.185 1368.56 324.943C1366.83 324.283 1365.05 323.756 1363.29 323.196C1362.41 322.901 1361.51 322.692 1360.61 322.439C1359.72 322.204 1358.83 321.936 1357.92 321.727C1356.11 321.324 1354.31 320.854 1352.48 320.533L1349.73 320.006L1346.97 319.571C1339.58 318.459 1332.11 317.915 1324.63 317.945C1317.11 317.937 1309.6 318.431 1302.15 319.426C1301.22 319.534 1300.29 319.673 1299.36 319.818L1296.57 320.242L1293.8 320.736L1292.41 320.982L1291.03 321.262L1288.26 321.824L1285.52 322.453C1283.68 322.851 1281.88 323.364 1280.05 323.818L1277.33 324.594L1275.97 324.983L1274.66 325.378L1274 325.574L1273.36 325.795L1272.09 326.239C1271.25 326.567 1270.41 326.886 1269.59 327.248C1266.28 328.683 1263.14 330.468 1260.22 332.57C1257.29 334.676 1254.58 337.076 1252.15 339.732C1249.69 342.378 1247.52 345.276 1245.68 348.375C1244.76 349.921 1243.91 351.513 1243.15 353.144C1242.8 353.97 1242.4 354.781 1242.09 355.624L1241.59 356.879L1241.15 358.154C1239.98 361.559 1239.2 365.08 1238.81 368.656C1238.69 369.546 1238.67 370.445 1238.59 371.34C1238.57 372.236 1238.51 373.136 1238.53 374.032C1238.54 374.928 1238.54 375.822 1238.63 376.731C1238.7 377.635 1238.74 378.543 1238.84 379.445C1239.23 383.055 1239.96 386.62 1241.02 390.095L1241.43 391.392C1241.56 391.826 1241.7 392.258 1241.87 392.678L1242.85 395.219L1243.97 397.703C1244.37 398.522 1244.8 399.325 1245.21 400.135C1248.69 406.59 1253.37 412.341 1258.98 417.091C1261.8 419.486 1264.81 421.652 1267.98 423.569C1275.71 428.209 1284.19 431.503 1293.04 433.308L1294.59 433.617C1295.09 433.723 1295.58 433.819 1296.07 433.891L1298.84 434.356C1300.61 434.581 1302.21 434.844 1303.66 434.976L1305.72 435.214L1307.55 435.379L1309.17 435.548L1310.59 435.668C1313.14 435.915 1313.19 436.252 1310.98 436.66C1310.43 436.758 1309.74 436.874 1308.91 436.968C1308.09 437.042 1307.13 437.113 1306.04 437.179C1304.95 437.242 1303.73 437.224 1302.39 437.233C1301.72 437.238 1301.02 437.183 1300.29 437.155C1299.56 437.11 1298.8 437.098 1298.01 437.015C1289.67 436.312 1281.51 434.25 1273.84 430.912C1265.02 427.117 1257.05 421.613 1250.41 414.724C1247.1 411.254 1244.19 407.419 1241.76 403.296C1239.32 399.158 1237.4 394.739 1236.05 390.138C1234.7 385.54 1233.87 380.805 1233.59 376.023C1233.46 373.614 1233.49 371.199 1233.66 368.792C1233.86 366.387 1234.21 363.996 1234.71 361.633C1237.4 349.442 1243.96 338.426 1253.42 330.196C1255.5 328.405 1257.71 326.766 1260.03 325.292C1262.34 323.82 1264.77 322.531 1267.28 321.436C1269.74 320.386 1272.27 319.518 1274.85 318.839C1278.73 317.747 1282.71 316.796 1286.69 315.936L1289.68 315.342L1291.18 315.045L1292.68 314.785L1295.69 314.264L1298.71 313.812C1299.71 313.651 1300.72 313.521 1301.73 313.399L1304.76 313.021C1306.79 312.83 1308.81 312.576 1310.85 312.446L1313.9 312.214L1316.95 312.058L1318.48 311.981L1320.01 311.943L1323.06 311.866L1326.13 311.872L1327.66 311.878L1329.19 311.925L1332.25 312.023L1335.31 312.207C1337.35 312.304 1339.39 312.545 1341.42 312.719C1342.44 312.829 1343.45 312.968 1344.47 313.092C1345.49 313.217 1346.5 313.34 1347.51 313.515L1350.54 314C1351.55 314.174 1352.56 314.388 1353.56 314.581C1355.58 314.943 1357.57 315.466 1359.57 315.925C1360.56 316.175 1361.55 316.467 1362.54 316.737C1363.52 317.009 1364.51 317.282 1365.49 317.613L1368.42 318.562C1369.39 318.903 1370.35 319.274 1371.31 319.629C1378.57 322.336 1385.46 325.938 1391.81 330.352C1392.63 330.876 1393.38 331.499 1394.16 332.078L1395.31 332.96C1395.7 333.255 1396.09 333.541 1396.45 333.866C1397.92 335.14 1399.44 336.352 1400.81 337.739C1401.5 338.419 1402.22 339.075 1402.9 339.776L1404.87 341.924C1405.2 342.285 1405.54 342.633 1405.85 343.005L1406.77 344.138L1408.6 346.404C1408.66 346.475 1408.71 346.55 1408.76 346.628L1408.79 346.681C1411.09 350.627 1412.97 354.797 1414.41 359.126C1415.86 363.507 1416.7 368.063 1416.92 372.669C1417.13 377.476 1416.57 382.285 1415.27 386.92C1413.97 391.527 1412 395.92 1409.42 399.962C1406.87 403.955 1403.85 407.639 1400.44 410.942C1397.05 414.212 1393.37 417.163 1389.44 419.758C1381.61 424.889 1373.05 428.837 1364.05 431.473C1359.57 432.804 1355.01 433.824 1350.39 434.524C1349.23 434.691 1348.07 434.852 1346.91 434.98C1346.34 435.054 1345.74 435.107 1345.14 435.164L1344.25 435.25C1343.99 435.276 1343.77 435.277 1343.58 435.315C1342.81 435.42 1342.09 435.736 1341.5 436.228C1340.87 436.767 1340.38 437.442 1340.06 438.199L1340.04 438.236C1340.02 438.287 1339.99 438.339 1339.97 438.386C1336.9 443.737 1332.89 448.494 1328.12 452.427C1323.08 456.628 1317.22 459.763 1310.91 461.64L1310.83 461.664C1310.46 461.772 1310.06 461.746 1309.71 461.59C1309.35 461.433 1309.07 461.157 1308.9 460.811C1308.73 460.465 1308.7 460.071 1308.8 459.701C1308.9 459.33 1309.13 459.007 1309.45 458.789C1310.35 458.139 1311.18 457.396 1311.93 456.571C1312.71 455.72 1313.45 454.824 1314.14 453.889C1314.83 452.956 1315.48 451.998 1316.08 451.015C1316.67 450.044 1317.22 449.044 1317.72 448.018C1318.73 446.058 1319.39 443.938 1319.67 441.752C1319.79 440.707 1319.65 439.649 1319.25 438.674C1318.8 437.704 1318.03 436.919 1317.06 436.453C1315.93 435.965 1314.74 435.606 1313.53 435.383C1312.75 435.212 1312.38 434.985 1312.49 434.757C1312.55 434.637 1312.72 434.532 1313.02 434.396C1313.2 434.325 1313.39 434.263 1313.57 434.211L1313.92 434.119L1314.33 434.062C1314.63 434.027 1314.96 433.996 1315.32 433.971C1315.7 433.98 1316.12 434.007 1316.57 434.045C1316.82 434.079 1317.06 434.127 1317.3 434.188C1317.57 434.242 1317.84 434.314 1318.1 434.403C1318.37 434.513 1318.66 434.63 1318.95 434.764C1319.25 434.923 1319.54 435.105 1319.81 435.309C1320.15 435.545 1320.46 435.818 1320.74 436.122C1321.03 436.417 1321.28 436.742 1321.5 437.091C1321.93 437.754 1322.26 438.48 1322.46 439.241C1322.81 440.593 1322.92 441.994 1322.78 443.382C1322.66 444.638 1322.42 445.88 1322.07 447.091C1321.73 448.26 1321.33 449.407 1320.85 450.525C1319.91 452.743 1318.77 454.868 1317.43 456.874C1316.74 457.901 1316 458.89 1315.2 459.837C1314.33 460.883 1313.35 461.831 1312.28 462.661L1309.41 457.094C1311.32 456.415 1313.19 455.622 1315 454.721C1316.93 453.75 1318.79 452.662 1320.59 451.464C1322.39 450.246 1324.11 448.918 1325.74 447.487C1327.37 446.037 1328.9 444.485 1330.33 442.841C1331.73 441.184 1333.02 439.435 1334.19 437.608C1334.17 437.57 1334.16 437.534 1334.14 437.49Z" fill="white"/>
</g>
<path d="M323.64 173.159C325.575 174.131 327.51 175.307 329.134 176.935C329.934 177.75 330.637 178.655 331.228 179.632C331.804 180.593 332.293 181.604 332.69 182.652C333.512 184.854 333.958 187.133 334.304 189.366C334.395 189.92 334.477 190.474 334.554 191.025L334.776 192.678L332.756 192.929C332.433 190.33 332.179 187.659 332.401 184.95C332.613 182.252 333.322 179.503 334.76 177.095C335.121 176.49 335.527 175.913 335.975 175.369C336.424 174.815 336.924 174.303 337.466 173.84C337.599 173.718 337.742 173.613 337.883 173.503C338.025 173.395 338.163 173.279 338.31 173.18C338.605 172.98 338.897 172.774 339.205 172.601C339.81 172.241 340.44 171.926 341.091 171.658C341.73 171.394 342.383 171.166 343.048 170.974C343.706 170.79 344.366 170.62 345.025 170.487C346.344 170.207 347.655 170.018 348.947 169.832L349.075 172.282L347.923 172.257C346.672 172.233 345.409 172.166 344.136 172.063C342.834 171.97 341.54 171.779 340.266 171.491C338.923 171.191 337.637 170.68 336.454 169.977C335.843 169.599 335.278 169.152 334.77 168.644C334.265 168.133 333.825 167.561 333.461 166.941C332.742 165.73 332.3 164.464 331.923 163.246C331.542 162.02 331.225 160.775 330.973 159.517C330.714 158.26 330.53 156.99 330.42 155.712C330.367 155.073 330.326 154.433 330.306 153.793L330.291 153.313C330.287 153.153 330.291 152.993 330.278 152.833C330.26 152.513 330.256 152.193 330.244 151.873L332.415 151.976C332.233 154.312 332.037 156.689 331.587 159.076C331.526 159.374 331.47 159.674 331.403 159.971L331.181 160.861L330.926 161.748L330.637 162.629C330.227 163.812 329.703 164.953 329.074 166.036C327.857 168.082 326.187 169.823 324.194 171.124C323.423 171.642 322.579 172.044 321.691 172.315C321.367 172.408 321.035 172.475 320.7 172.515C320.551 172.531 320.41 172.542 320.278 172.547L320.181 172.55L320.102 172.54C320.046 172.532 319.993 172.525 319.941 172.518C319.302 172.425 318.948 172.313 319.44 171.83C319.511 171.763 319.586 171.7 319.665 171.642C319.707 171.61 319.765 171.574 319.802 171.543C319.837 171.514 319.873 171.484 319.911 171.453C320.061 171.328 320.243 171.206 320.444 171.062C320.643 170.914 320.874 170.773 321.117 170.599C321.24 170.517 321.369 170.431 321.503 170.342C321.635 170.248 321.773 170.154 321.917 170.057C322.663 169.546 323.374 168.986 324.047 168.382C324.733 167.775 325.372 167.115 325.958 166.41C326.756 165.436 327.426 164.366 327.954 163.223C328.487 162.056 328.911 160.842 329.22 159.597C329.885 157.088 330.186 154.449 330.468 151.788L330.468 151.787C330.491 151.566 330.598 151.363 330.767 151.219C330.935 151.075 331.152 151.001 331.373 151.011C331.595 151.022 331.804 151.117 331.957 151.277C332.111 151.436 332.198 151.649 332.2 151.87C332.204 152.302 332.19 152.734 332.22 153.165C332.247 153.597 332.28 154.027 332.323 154.456C332.407 155.316 332.531 156.17 332.672 157.019C332.952 158.717 333.363 160.391 333.9 162.026C334.243 163.144 334.689 164.228 335.233 165.264C335.488 165.732 335.789 166.174 336.132 166.582C336.466 166.967 336.836 167.318 337.238 167.631C337.614 167.913 338.014 168.162 338.433 168.377C338.871 168.592 339.323 168.778 339.786 168.933C340.755 169.242 341.751 169.46 342.761 169.584C344.829 169.853 346.978 169.892 349.14 169.972L349.153 169.972C349.424 169.982 349.681 170.094 349.873 170.284C350.066 170.475 350.18 170.731 350.192 171.002C350.205 171.273 350.115 171.538 349.941 171.746C349.767 171.954 349.521 172.088 349.252 172.123C347.611 172.336 345.996 172.559 344.444 172.921C342.898 173.29 341.401 173.774 340.079 174.534C339.516 174.856 338.983 175.231 338.489 175.652C337.999 176.083 337.549 176.559 337.146 177.073C336.342 178.136 335.71 179.32 335.273 180.579C334.826 181.857 334.538 183.185 334.414 184.534C334.286 185.904 334.258 187.282 334.329 188.657C334.387 189.995 334.523 191.342 334.681 192.693L334.682 192.702C334.71 192.944 334.641 193.188 334.49 193.379C334.339 193.571 334.118 193.694 333.876 193.723C333.633 193.752 333.39 193.684 333.198 193.534C333.006 193.383 332.881 193.163 332.852 192.92C332.586 190.751 332.307 188.599 331.805 186.525C331.569 185.493 331.268 184.477 330.903 183.483C330.539 182.507 330.084 181.567 329.544 180.676C329.402 180.461 329.27 180.237 329.121 180.027L328.66 179.408C328.336 179.009 327.991 178.628 327.627 178.266C326.874 177.544 326.049 176.901 325.164 176.348C324.718 176.065 324.259 175.799 323.79 175.544C323.556 175.417 323.319 175.293 323.08 175.172L322.72 174.992L322.54 174.904L322.369 174.827C322.146 174.72 321.901 174.633 321.663 174.539C321.416 174.458 321.174 174.367 320.92 174.297C320.42 174.142 319.904 174.024 319.388 173.912C318.387 173.703 317.372 173.572 316.351 173.52C315.362 173.471 314.385 173.529 313.574 173.81L313.341 172.883L313.34 172.821H313.341H313.346H313.354H313.369L313.4 172.821C313.42 172.822 313.44 172.822 313.469 172.821L313.626 172.816L313.948 172.802C314.163 172.793 314.377 172.783 314.59 172.774C315.018 172.757 315.44 172.74 315.857 172.723C316.693 172.693 317.509 172.675 318.306 172.658C318.577 172.648 318.849 172.659 319.118 172.69C319.223 172.698 319.285 172.73 319.382 172.729C319.444 172.728 319.506 172.745 319.559 172.779L319.717 172.595C319.695 172.679 319.664 172.716 319.679 172.724C319.689 172.731 319.744 172.707 319.794 172.627C319.8 172.617 319.804 172.606 319.805 172.595C319.806 172.584 319.805 172.572 319.802 172.561C319.798 172.55 319.792 172.54 319.784 172.532C319.776 172.524 319.767 172.517 319.756 172.513C319.745 172.509 319.734 172.507 319.722 172.508C319.711 172.509 319.7 172.512 319.69 172.518C319.68 172.524 319.671 172.531 319.665 172.541C319.658 172.55 319.654 172.561 319.652 172.572L319.602 172.85C319.593 172.902 319.524 172.981 319.395 173.068C319.305 173.141 319.207 173.204 319.104 173.255C318.784 173.411 318.447 173.529 318.099 173.605C317.347 173.778 316.589 173.932 315.819 174.077C315.435 174.15 315.048 174.219 314.658 174.286L314.068 174.384L313.765 174.431L313.607 174.453C313.547 174.461 313.459 174.469 313.386 174.475C313.125 174.497 312.864 174.428 312.649 174.278C312.434 174.129 312.278 173.909 312.208 173.656C312.138 173.404 312.159 173.135 312.266 172.896C312.374 172.657 312.562 172.463 312.797 172.348L312.872 172.312C313.478 172.03 314.122 171.837 314.784 171.74C315.09 171.703 315.403 171.655 315.704 171.644C315.855 171.636 316.008 171.623 316.158 171.619L316.607 171.616C317.798 171.628 318.984 171.766 320.145 172.029C320.732 172.156 321.312 172.312 321.883 172.496L322.316 172.641L322.752 172.807C322.896 172.858 323.044 172.928 323.19 172.992L323.41 173.089L323.605 173.183C323.617 173.175 323.627 173.167 323.64 173.159Z" fill="white"/>
<path d="M375.088 178.18C376.097 179.389 376.911 180.75 377.499 182.211C377.572 182.394 377.649 182.574 377.716 182.759L377.893 183.323C377.949 183.511 378.015 183.697 378.063 183.888L378.192 184.465C378.232 184.658 378.286 184.847 378.312 185.043L378.393 185.629L378.432 185.922C378.446 186.019 378.459 186.116 378.465 186.224C378.481 186.435 378.489 186.653 378.484 186.879C378.478 187.287 378.412 187.691 378.287 188.079C378.21 188.305 378.106 188.521 377.978 188.723C377.836 188.938 377.663 189.132 377.465 189.298L377.451 189.309C377.288 189.447 377.087 189.531 376.874 189.552C376.662 189.573 376.448 189.529 376.261 189.426C376.074 189.323 375.922 189.166 375.826 188.976C375.73 188.785 375.694 188.57 375.722 188.358C375.854 187.378 376.042 186.406 376.285 185.447C376.68 183.844 377.291 182.302 378.103 180.865C378.935 179.395 380.022 178.084 381.313 176.996C382.635 175.903 384.161 175.086 385.804 174.592C387.49 174.091 389.274 174.007 391 174.348C391.254 174.4 391.485 174.53 391.661 174.72C391.838 174.909 391.951 175.148 391.986 175.405C392.02 175.662 391.974 175.923 391.854 176.152C391.734 176.381 391.545 176.568 391.315 176.685L391.292 176.697C390.73 176.974 390.128 177.162 389.508 177.252C388.938 177.332 388.361 177.355 387.786 177.321C387.235 177.293 386.711 177.228 386.206 177.156C385.703 177.082 385.223 177.01 384.702 176.915C383.953 176.789 383.219 176.581 382.515 176.296C382.129 176.134 381.76 175.935 381.414 175.7C381.06 175.459 380.734 175.18 380.44 174.868C379.895 174.271 379.449 173.589 379.121 172.85C378.816 172.168 378.577 171.457 378.407 170.73C377.72 167.909 377.778 164.958 378.575 162.166L378.577 162.162C378.646 161.919 378.786 161.701 378.978 161.536C379.17 161.371 379.406 161.266 379.657 161.233C379.908 161.201 380.163 161.242 380.39 161.353C380.618 161.464 380.808 161.638 380.938 161.856C381.345 162.562 381.565 163.36 381.577 164.174C381.591 164.888 381.502 165.601 381.315 166.29C381.232 166.623 381.125 166.93 381.022 167.241C380.908 167.548 380.797 167.856 380.661 168.153C380.403 168.752 380.099 169.331 379.754 169.885C378.38 172.121 376.389 173.912 374.021 175.042C372.514 175.748 370.878 176.136 369.215 176.182C368.562 176.205 367.911 176.115 367.288 175.917C367.162 175.875 367.044 175.831 366.934 175.785C366.824 175.735 366.722 175.684 366.628 175.631C366.456 175.539 366.296 175.426 366.151 175.295C365.771 174.952 365.843 174.676 366.221 174.496C366.6 174.319 367.286 174.226 368.216 174.132L368.663 174.084L369.114 174.024C369.416 173.978 369.722 173.94 370.027 173.882C370.635 173.775 371.237 173.631 371.828 173.452C372.969 173.097 374.04 172.548 374.995 171.828C376.923 170.379 378.324 168.337 378.983 166.016C379.14 165.488 379.22 164.939 379.22 164.387C379.227 163.932 379.105 163.484 378.867 163.095L380.896 162.828C380.689 163.649 380.56 164.488 380.51 165.333C380.414 166.894 380.626 168.499 380.895 169.973C381.081 171.024 381.407 172.019 381.937 172.784C382.187 173.151 382.503 173.469 382.87 173.72C383.269 173.974 383.705 174.168 384.161 174.293C384.682 174.437 385.211 174.549 385.745 174.63C386.315 174.722 386.881 174.814 387.415 174.869C388.487 174.984 389.475 174.94 390.231 174.57L390.492 176.67L390.117 176.599L389.93 176.562L389.74 176.539L389.36 176.493L388.977 176.474C388.104 176.441 387.232 176.543 386.391 176.777C385.535 177.017 384.714 177.369 383.949 177.823C383.179 178.278 382.469 178.827 381.834 179.456C381.193 180.095 380.624 180.802 380.136 181.565C378.797 183.633 378.008 186.083 377.68 188.586L376.198 187.788C376.287 187.714 376.353 187.617 376.392 187.508C376.453 187.338 376.489 187.16 376.496 186.98C376.508 186.756 376.502 186.531 376.478 186.308L376.372 185.561C376.335 185.311 376.285 185.064 376.221 184.82L376.136 184.451C376.11 184.327 376.062 184.21 376.026 184.088C375.946 183.848 375.877 183.604 375.788 183.367L375.498 182.662C375.076 181.732 374.552 180.851 373.935 180.037C373.304 179.228 372.589 178.487 371.803 177.828C370.81 177.016 369.73 176.318 368.581 175.747C368.512 175.711 368.445 175.672 368.375 175.638L368.163 175.545L367.742 175.354C367.466 175.214 367.178 175.121 366.896 175.007L366.473 174.838C366.335 174.788 366.198 174.744 366.06 174.709C365.787 174.624 365.496 174.623 365.222 174.705C365.155 174.731 365.095 174.762 365.047 174.784C365.046 174.784 365.045 174.785 365.044 174.786C365.043 174.786 365.043 174.787 365.042 174.788L365.037 174.804C365.019 174.86 365.022 174.921 365.047 174.975C365.07 175.024 365.103 175.068 365.143 175.104C365.215 175.169 365.306 175.21 365.403 175.221C365.449 175.227 365.496 175.224 365.54 175.211C365.58 175.203 365.619 175.193 365.657 175.179C365.721 175.155 365.768 175.14 365.794 175.157C365.82 175.173 365.827 175.223 365.79 175.309C365.762 175.362 365.725 175.409 365.681 175.449C365.627 175.512 365.558 175.561 365.48 175.589C365.292 175.664 365.084 175.671 364.892 175.608C364.75 175.561 364.623 175.478 364.522 175.367C364.45 175.286 364.393 175.194 364.355 175.093C364.31 174.973 364.29 174.846 364.295 174.719C364.299 174.622 364.33 174.529 364.386 174.449L364.525 174.25C364.598 174.145 364.683 174.049 364.779 173.965C364.833 173.918 364.89 173.875 364.95 173.837C365.013 173.801 365.08 173.77 365.148 173.743C365.469 173.621 365.812 173.561 366.156 173.568C366.424 173.57 366.693 173.593 366.958 173.639L367.686 173.755L367.869 173.786L368.049 173.832L368.409 173.925C369.381 174.177 370.319 174.544 371.204 175.017C372.667 175.836 373.969 176.912 375.05 178.193C375.062 178.189 375.073 178.185 375.088 178.18Z" fill="white"/>
<path d="M352.408 204.175L353.175 204.605L353.914 205.083L354.097 205.204L354.274 205.336L354.626 205.601C354.742 205.69 354.861 205.776 354.975 205.868L355.309 206.157C355.755 206.54 356.179 206.947 356.579 207.378L357.154 208.046C357.343 208.27 357.509 208.512 357.686 208.745C358.366 209.694 358.943 210.712 359.406 211.784C359.854 212.853 360.194 213.965 360.42 215.103C360.471 215.406 360.534 215.706 360.573 216.011L360.674 216.926L360.719 217.846C360.735 218.153 360.715 218.46 360.714 218.767C360.674 219.997 360.498 221.219 360.191 222.411L359.951 223.249C359.882 223.49 359.728 223.698 359.518 223.834C359.308 223.971 359.055 224.027 358.807 223.992C358.559 223.957 358.332 223.834 358.167 223.645C358.003 223.456 357.912 223.214 357.912 222.963L357.912 222.914C357.915 220.209 357.909 217.418 358.429 214.616C358.684 213.197 359.103 211.813 359.675 210.49C360.26 209.131 361.061 207.875 362.049 206.773C363.061 205.681 364.251 204.768 365.568 204.072C366.846 203.405 368.19 202.874 369.578 202.487C370.261 202.292 370.945 202.125 371.632 201.978C372.321 201.832 373.026 201.704 373.755 201.625C374.499 201.537 375.25 201.514 375.999 201.558C376.784 201.604 377.56 201.751 378.308 201.995C378.555 202.075 378.77 202.23 378.926 202.437C379.081 202.645 379.169 202.895 379.176 203.154C379.184 203.413 379.112 203.668 378.969 203.885C378.827 204.101 378.621 204.268 378.379 204.364L378.352 204.374C377.175 204.812 375.93 205.041 374.673 205.051C373.34 205.059 372.008 204.953 370.693 204.734C369.389 204.553 368.098 204.289 366.828 203.943C366.171 203.761 365.527 203.539 364.897 203.279C364.249 203.016 363.623 202.7 363.027 202.334C362.415 201.961 361.841 201.529 361.313 201.045C360.787 200.558 360.311 200.02 359.892 199.439C359.095 198.315 358.448 197.093 357.967 195.802C357.022 193.322 356.439 190.72 356.234 188.074C356.21 187.744 356.189 187.414 356.178 187.083C356.171 186.918 356.165 186.752 356.163 186.587C356.161 186.42 356.155 186.266 356.158 186.063C356.158 185.617 356.224 185.174 356.354 184.748C356.443 184.466 356.575 184.2 356.747 183.959C356.952 183.675 357.218 183.44 357.524 183.269L357.537 183.262C357.687 183.18 357.852 183.129 358.021 183.111C358.191 183.093 358.363 183.108 358.527 183.156C358.691 183.205 358.844 183.285 358.977 183.392C359.109 183.499 359.22 183.632 359.302 183.782C359.39 183.944 359.442 184.123 359.457 184.307C359.841 189.578 358.48 194.83 355.585 199.251C354.911 200.279 354.112 201.218 353.206 202.049C352.742 202.468 352.246 202.849 351.721 203.188C351.193 203.529 350.636 203.821 350.055 204.059C349.133 204.45 348.135 204.628 347.135 204.579C346.494 204.556 345.868 204.378 345.31 204.062C344.71 203.68 344.829 203.416 345.351 203.293C345.617 203.216 345.989 203.168 346.455 203.079C347.019 202.974 347.575 202.833 348.121 202.655C348.958 202.372 349.749 201.969 350.47 201.458C351.22 200.921 351.905 200.298 352.512 199.603C353.387 198.587 354.139 197.47 354.751 196.276C355.385 195.078 355.9 193.82 356.289 192.521C357.072 189.923 357.352 187.199 357.115 184.495L358.661 185.326C358.662 185.327 358.664 185.33 358.662 185.326L358.656 185.318C358.657 185.32 358.658 185.321 358.659 185.323C358.663 185.327 358.666 185.33 358.664 185.328V185.331C358.655 185.343 358.648 185.357 358.642 185.371C358.602 185.466 358.576 185.567 358.565 185.669C358.544 185.831 358.536 185.993 358.54 186.155L358.563 186.77C358.606 187.606 358.694 188.439 358.815 189.265C359.064 190.916 359.481 192.538 360.058 194.105C360.456 195.217 360.977 196.283 361.609 197.282C361.91 197.751 362.249 198.196 362.62 198.612C362.799 198.813 362.988 199.004 363.186 199.186C363.286 199.274 363.38 199.369 363.482 199.454L363.79 199.709C364.712 200.416 365.746 200.964 366.848 201.331C368.014 201.725 369.211 202.021 370.427 202.215C371.645 202.442 372.877 202.583 374.115 202.638C375.264 202.694 376.414 202.527 377.5 202.147L377.54 204.252C376.464 203.886 375.249 203.826 374.001 203.952C373.377 204.011 372.744 204.114 372.103 204.237C371.462 204.362 370.825 204.503 370.199 204.665C368.858 204.996 367.564 205.494 366.348 206.149C365.166 206.783 364.118 207.639 363.26 208.671C362.411 209.73 361.739 210.921 361.273 212.196C360.792 213.502 360.456 214.856 360.272 216.236C359.962 218.408 359.929 220.652 359.9 222.925L358.064 222.624C359.287 219.019 358.86 214.864 357.03 211.485C356.911 211.277 356.804 211.06 356.674 210.858L356.283 210.253C356.15 210.053 355.997 209.867 355.856 209.673C355.782 209.578 355.715 209.478 355.637 209.387L355.401 209.116C355.087 208.753 354.756 208.405 354.407 208.075C354.042 207.763 353.688 207.436 353.292 207.16C353.102 207.011 352.904 206.872 352.7 206.743C352.496 206.615 352.297 206.478 352.089 206.355L351.454 206.004C351.244 205.883 351.018 205.794 350.801 205.687C349.92 205.277 349 204.96 348.054 204.741C345.799 204.211 343.458 204.166 341.185 204.607L341.162 203.705C342.523 204.119 343.952 204.264 345.368 204.132C346.172 204.056 346.58 204.034 346.577 204.207C346.572 204.284 346.465 204.416 346.236 204.567C346.098 204.659 345.952 204.74 345.802 204.81C345.714 204.853 345.617 204.896 345.513 204.937C345.46 204.957 345.406 204.98 345.349 204.998C345.292 205.015 345.233 205.031 345.172 205.048C343.751 205.421 342.267 205.485 340.819 205.236C340.579 205.194 340.361 205.073 340.198 204.892C340.035 204.712 339.937 204.482 339.92 204.239C339.903 203.996 339.968 203.755 340.104 203.553C340.24 203.352 340.439 203.201 340.671 203.126L340.763 203.097C342.201 202.638 343.701 202.406 345.211 202.407C346.451 202.404 347.685 202.562 348.884 202.877C350.091 203.189 351.26 203.632 352.371 204.198C352.383 204.19 352.394 204.182 352.408 204.175Z" fill="white"/>
<g opacity="0.2" clip-path="url(#clip0_184_10831)">
<path d="M1362.82 1014.48C1364.51 1017.13 1366 1019.9 1367.27 1022.79C1368.52 1025.68 1369.57 1028.69 1370.28 1031.78C1371.71 1037.91 1372.17 1044.2 1371.81 1050.42C1371.44 1057.02 1370.09 1063.57 1367.96 1069.83C1367.24 1071.91 1366.42 1073.97 1365.49 1075.98C1364.54 1077.98 1363.49 1079.94 1362.32 1081.84C1361.15 1083.74 1359.84 1085.56 1358.42 1087.3C1358.06 1087.72 1357.71 1088.17 1357.33 1088.58L1356.19 1089.83L1354.99 1091.02C1354.6 1091.43 1354.16 1091.79 1353.75 1092.18C1353.54 1092.36 1353.33 1092.56 1353.11 1092.74L1352.45 1093.28C1352.02 1093.64 1351.58 1094.01 1351.14 1094.33L1349.82 1095.32C1349.38 1095.64 1348.92 1095.95 1348.47 1096.27L1347.8 1096.74L1347.11 1097.2C1346.65 1097.5 1346.19 1097.81 1345.73 1098.1C1344.79 1098.67 1343.85 1099.26 1342.89 1099.79C1341.94 1100.35 1340.95 1100.85 1339.97 1101.36C1338.98 1101.84 1337.99 1102.34 1336.97 1102.77C1334.95 1103.67 1332.88 1104.47 1330.76 1105.14C1328.64 1105.81 1326.5 1106.38 1324.32 1106.81C1322.14 1107.24 1319.93 1107.56 1317.72 1107.75C1313.28 1108.13 1308.8 1107.96 1304.4 1107.32C1300 1106.66 1295.69 1105.5 1291.55 1103.89C1287.41 1102.27 1283.46 1100.2 1279.77 1097.75C1270.68 1091.69 1263.16 1083.32 1258.11 1073.62C1255.58 1068.77 1253.66 1063.59 1252.43 1058.25L1252.2 1057.24L1252 1056.22C1251.86 1055.53 1251.76 1054.84 1251.66 1054.15C1251.45 1052.77 1251.33 1051.37 1251.24 1049.98C1251.09 1047.19 1251.2 1044.38 1251.53 1041.61C1252.19 1036.07 1253.84 1030.69 1256.16 1025.67C1258.49 1020.66 1261.51 1016.01 1265.02 1011.81C1272.05 1003.4 1280.98 996.687 1290.97 992.248C1297 989.578 1303.58 987.972 1310.08 987.529C1313.19 987.33 1315.78 987.553 1317.84 987.97C1318.87 988.168 1319.78 988.446 1320.56 988.714C1321.35 989.018 1322.02 989.305 1322.58 989.638C1324.23 990.593 1324.04 991.296 1322.52 991.662C1322.33 991.709 1322.12 991.747 1321.88 991.784C1321.65 991.827 1321.4 991.866 1321.12 991.899C1320.85 991.932 1320.55 991.96 1320.24 991.983C1319.93 992.017 1319.59 992.047 1319.24 992.071C1317.83 992.174 1316.11 992.256 1314.11 992.413C1309.04 992.78 1303.54 993.809 1298.5 995.44C1292.7 997.294 1287.15 1000.07 1282.11 1003.56C1277.05 1007.05 1272.48 1011.26 1268.65 1016.03C1266.72 1018.41 1265 1020.95 1263.47 1023.59C1261.98 1026.24 1260.68 1029 1259.67 1031.86C1257.64 1037.55 1256.71 1043.6 1257.14 1049.53C1257.27 1051.17 1257.49 1052.81 1257.8 1054.44C1258.13 1056.05 1258.56 1057.71 1259.02 1059.33C1259.98 1062.56 1261.15 1065.71 1262.45 1068.67C1263.48 1071.05 1264.69 1073.35 1266.05 1075.57C1267.41 1077.78 1268.94 1079.9 1270.6 1081.91C1273.92 1085.93 1277.8 1089.5 1282.09 1092.47C1290.64 1098.44 1300.84 1101.99 1311.22 1102.49C1318.93 1102.89 1326.75 1101.47 1333.97 1098.49C1335.77 1097.74 1337.55 1096.92 1339.28 1096C1341.01 1095.07 1342.71 1094.1 1344.35 1093.01L1344.97 1092.61L1345.58 1092.19L1346.79 1091.35L1347.98 1090.48L1348.58 1090.04L1349.14 1089.59C1349.51 1089.29 1349.89 1089.01 1350.25 1088.69L1351.32 1087.74C1352.01 1087.07 1352.71 1086.42 1353.35 1085.7C1353.95 1085.09 1354.49 1084.42 1355.06 1083.77L1355.86 1082.76L1356.26 1082.25L1356.63 1081.72C1357.67 1080.34 1358.58 1078.86 1359.46 1077.37C1361.18 1074.34 1362.64 1071.16 1363.78 1067.84C1364.37 1066.19 1364.84 1064.5 1365.3 1062.81C1365.71 1061.1 1366.11 1059.39 1366.39 1057.66C1366.99 1054.19 1367.29 1050.68 1367.32 1047.17C1367.35 1040.15 1366.31 1033.08 1363.73 1026.62C1361.16 1020.13 1357.23 1014.15 1352.49 1008.97C1348.69 1004.83 1344.53 1001.26 1340.2 998.288C1335.87 995.317 1331.37 992.949 1326.83 991.224C1326.3 991.033 1325.86 990.829 1325.47 990.667C1325.09 990.504 1324.78 990.347 1324.54 990.198C1324.07 989.902 1323.88 989.642 1324 989.449C1324.12 989.256 1324.54 989.129 1325.27 989.099C1325.64 989.084 1326.08 989.087 1326.6 989.154C1327.11 989.219 1327.71 989.289 1328.37 989.442C1330.24 989.84 1332.1 990.399 1333.94 991.037C1335.78 991.703 1337.59 992.475 1339.37 993.347C1342.91 995.115 1346.3 997.272 1349.42 999.747C1354.58 1003.8 1359.05 1008.93 1362.72 1014.48C1362.75 1014.48 1362.79 1014.48 1362.82 1014.48Z" fill="white"/>
<path d="M1287.7 1017.84C1288.78 1017.87 1289.85 1017.91 1290.93 1017.92C1291.49 1017.93 1292.07 1017.94 1292.62 1017.84C1294.1 1017.58 1295.65 1017.25 1297.36 1017.1C1299.06 1016.96 1300.98 1017.02 1302.89 1017.68C1304.05 1018.1 1305.17 1018.68 1306.13 1019.42C1307.09 1020.15 1307.91 1021 1308.62 1021.87C1309.33 1022.75 1309.91 1023.67 1310.43 1024.59C1310.94 1025.5 1311.39 1026.43 1311.79 1027.33C1312.04 1027.88 1312.07 1028.52 1312.09 1029.14C1312.1 1029.73 1311.55 1030.33 1310.75 1030.88C1309.57 1031.7 1308.07 1031.96 1307.47 1031.42C1307.09 1031.08 1306.9 1030.62 1306.79 1030.16C1306.54 1029.11 1306.15 1028.13 1305.62 1027.27C1305.1 1026.41 1304.42 1025.68 1303.65 1025.19C1303.23 1024.91 1302.74 1024.77 1302.54 1024.35C1302.2 1023.68 1301.6 1023.28 1300.98 1023.02C1300.34 1022.76 1299.63 1022.65 1298.86 1022.46C1297.7 1022.17 1296.39 1022.32 1295.01 1022.36C1292.44 1022.46 1289.87 1022.55 1287.3 1022.65C1286.27 1022.69 1285.26 1022.37 1284.28 1021.33C1283.82 1020.85 1283.7 1019.57 1284.12 1019.23C1284.72 1018.74 1285.37 1018.4 1286.03 1018.16C1286.56 1017.96 1287.14 1018 1287.71 1017.93C1287.7 1017.9 1287.7 1017.87 1287.7 1017.84Z" fill="white"/>
<path d="M1347.29 1052.72C1347.01 1051.65 1346.68 1050.59 1346.29 1049.55C1346.08 1048.99 1345.86 1048.44 1345.54 1047.95C1344.67 1046.65 1343.69 1045.43 1342.67 1044.27C1341.65 1043.11 1340.63 1042.16 1339.71 1041.63C1339.43 1041.46 1339.15 1041.34 1338.89 1041.24C1338.76 1041.21 1338.68 1041.2 1338.58 1041.16C1338.43 1041.15 1338.3 1041.13 1338.15 1041.11C1337.52 1041.05 1336.68 1041.1 1335.82 1041.21C1334.1 1041.45 1332.24 1041.93 1330.42 1042.51C1329.87 1042.69 1329.24 1042.68 1328.62 1042.67C1328.03 1042.66 1327.43 1042.12 1326.87 1041.31C1326.04 1040.14 1325.81 1038.63 1326.51 1037.98C1326.94 1037.58 1327.51 1037.37 1328.08 1037.27C1329.38 1037.03 1330.65 1036.72 1331.94 1036.37C1333.23 1036.02 1334.51 1035.61 1335.94 1035.23C1336.34 1035.14 1336.73 1035 1337.18 1034.95C1337.4 1034.93 1337.62 1034.91 1337.83 1034.92C1338.06 1034.93 1338.29 1034.97 1338.5 1035.03C1338.84 1035.12 1339.21 1035.25 1339.58 1035.36L1339.85 1035.44C1339.94 1035.47 1340.04 1035.51 1340.13 1035.55L1340.71 1035.77C1341.43 1036.07 1342.05 1036.41 1342.66 1036.79C1343.85 1037.54 1344.84 1038.43 1345.56 1039.42C1346.07 1040.13 1346.58 1040.83 1347.09 1041.54C1347.58 1042.22 1348.06 1042.92 1348.47 1043.65C1349.97 1046.26 1351.13 1049.02 1352.04 1051.83C1352.41 1052.95 1352.37 1054.16 1351.57 1055.43C1351.2 1056.01 1349.96 1056.36 1349.54 1056C1348.94 1055.47 1348.46 1054.9 1348.06 1054.3C1347.73 1053.81 1347.61 1053.23 1347.38 1052.69C1347.35 1052.7 1347.32 1052.71 1347.29 1052.72Z" fill="white"/>
<path d="M1329.16 1076.72C1326.74 1077.84 1324.21 1078.72 1321.61 1079.33C1320.92 1079.49 1320.22 1079.63 1319.52 1079.76L1318.47 1079.94L1317.95 1080.04L1317.43 1080.12C1315.57 1080.47 1313.65 1080.6 1311.74 1080.57C1309.82 1080.55 1307.89 1080.32 1306.02 1079.88C1302.27 1079.02 1298.73 1077.43 1295.58 1075.28C1293.65 1073.96 1291.86 1072.43 1290.23 1070.75C1288.61 1069.06 1287.16 1067.22 1285.89 1065.29C1283.33 1061.41 1281.5 1057.15 1280.2 1052.8C1279.8 1051.48 1279.68 1050.08 1279.6 1048.73C1279.53 1047.42 1280.1 1046.47 1280.95 1045.81C1281.57 1045.33 1282.28 1045.21 1282.92 1045.4C1283.56 1045.59 1284.1 1046.09 1284.45 1046.87C1284.66 1047.36 1284.83 1047.88 1284.99 1048.41C1285.13 1048.95 1285.25 1049.49 1285.35 1050.02C1285.82 1052.48 1286.6 1054.86 1287.65 1057.1C1288.72 1059.32 1290.05 1061.41 1291.67 1063.21C1292.55 1064.23 1293.59 1065.12 1294.31 1066.19C1295.47 1067.89 1297 1069.32 1298.67 1070.52C1300.34 1071.73 1302.16 1072.69 1303.99 1073.59C1305.35 1074.26 1306.8 1074.77 1308.28 1075.1C1309.76 1075.43 1311.26 1075.6 1312.78 1075.68C1315.48 1075.79 1318.25 1075.49 1320.94 1074.75C1322.3 1074.4 1323.62 1073.92 1324.93 1073.39C1325.58 1073.1 1326.24 1072.84 1326.87 1072.51C1327.19 1072.35 1327.51 1072.2 1327.82 1072.03L1328.76 1071.51C1330.75 1070.39 1332.71 1069.46 1334.97 1069.04C1336.01 1068.86 1336.84 1069.84 1336.16 1070.79C1335.23 1072.13 1334.03 1073.35 1332.73 1074.43C1332.18 1074.87 1331.61 1075.27 1330.99 1075.62L1330.07 1076.14C1329.75 1076.31 1329.44 1076.47 1329.13 1076.64C1329.14 1076.67 1329.15 1076.69 1329.16 1076.72Z" fill="white"/>
</g>
<defs>
<clipPath id="clip0_184_10831">
<rect width="154.655" height="155.452" fill="white" transform="translate(1282.02 942.178) rotate(28.418)"/>
</clipPath>
</defs>
</svg>
